<svg width="120" height="120" viewBox="0 0 120 120" fill="none" xmlns="http://www.w3.org/2000/svg">
<path d="M81.9511 91.4817H82.7011V90.7317V23C82.7011 20.9289 81.0222 19.25 78.9511 19.25H36.1707C34.0996 19.25 32.4207 20.9289 32.4207 23V90.7317V91.4817H33.1707H81.9511Z" fill="white" stroke="#25245C" stroke-width="1.5"/>
<rect x="41.0977" y="28.5366" width="7.31707" height="9.14634" rx="2" fill="white"/>
<rect x="53.9026" y="28.5366" width="7.31707" height="9.14634" rx="2" fill="white"/>
<rect x="66.7075" y="28.5366" width="7.31707" height="9.14634" rx="2" fill="white"/>
<rect x="41.0977" y="42.561" width="7.31707" height="9.14634" rx="2" fill="url(#paint0_radial_356_7138)"/>
<rect x="53.9026" y="42.561" width="7.31707" height="9.14634" rx="2" fill="white"/>
<rect x="66.7075" y="42.561" width="7.31707" height="9.14634" rx="2" fill="white"/>
<rect x="41.0977" y="56.5854" width="7.31707" height="9.14634" rx="2" fill="white"/>
<rect x="53.9026" y="56.5854" width="7.31707" height="9.14634" rx="2" fill="white"/>
<rect x="66.7075" y="56.5854" width="7.31707" height="9.14634" rx="2" fill="white"/>
<rect x="41.8477" y="29.2866" width="5.81707" height="7.64634" rx="1.25" stroke="#25245C" stroke-width="1.5"/>
<rect x="54.6526" y="29.2866" width="5.81707" height="7.64634" rx="1.25" stroke="#25245C" stroke-width="1.5"/>
<rect x="67.4575" y="29.2866" width="5.81707" height="7.64634" rx="1.25" stroke="#25245C" stroke-width="1.5"/>
<rect x="41.8477" y="43.311" width="5.81707" height="7.64634" rx="1.25" stroke="#25245C" stroke-width="1.5"/>
<rect x="54.6526" y="43.311" width="5.81707" height="7.64634" rx="1.25" stroke="#25245C" stroke-width="1.5"/>
<rect x="67.4575" y="43.311" width="5.81707" height="7.64634" rx="1.25" stroke="#25245C" stroke-width="1.5"/>
<rect x="41.8477" y="57.3354" width="5.81707" height="7.64634" rx="1.25" stroke="#25245C" stroke-width="1.5"/>
<rect x="54.6526" y="57.3354" width="5.81707" height="7.64634" rx="1.25" stroke="#25245C" stroke-width="1.5"/>
<rect x="67.4575" y="57.3354" width="5.81707" height="7.64634" rx="1.25" stroke="#25245C" stroke-width="1.5"/>
<path opacity="0.06" d="M44.1462 74.439C44.1462 73.3344 45.0417 72.439 46.1462 72.439H68.9755C70.0801 72.439 70.9755 73.3344 70.9755 74.439V90.7316H44.1462V74.439Z" fill="#0066FF"/>
<path d="M44.8962 74.439C44.8962 73.7486 45.4559 73.189 46.1462 73.189H68.9755C69.6659 73.189 70.2255 73.7486 70.2255 74.439V89.9816H44.8962V74.439Z" stroke="#25245C" stroke-width="1.5"/>
<path d="M87.439 98.7988H88.189V98.0488V93.7317C88.189 91.6606 86.51 89.9817 84.439 89.9817H30.6829C28.6118 89.9817 26.9329 91.6606 26.9329 93.7317V98.0488V98.7988H27.6829H87.439Z" fill="white" stroke="#25245C" stroke-width="1.5"/>
<path d="M27.6829 93.7317C27.6829 92.0748 29.026 90.7317 30.6829 90.7317H84.439C86.0958 90.7317 87.439 92.0748 87.439 93.7317V98.0488H27.6829V93.7317Z" fill="url(#paint1_radial_356_7138)"/>
<path d="M103.895 98.7988H104.681L104.644 98.0137C104.467 94.2211 101.336 91.2012 97.5 91.2012C96.4781 91.2012 95.5049 91.4159 94.6243 91.803C92.6445 89.5652 89.7492 88.1525 86.5244 88.1525C80.8845 88.1525 76.254 92.4706 75.7574 97.9815L75.6838 98.7988H76.5044H103.895Z" fill="white" stroke="#25245C" stroke-width="1.5"/>
<path d="M103.895 98.0488C103.736 94.6544 100.934 91.9512 97.5 91.9512C96.3862 91.9512 95.3389 92.2356 94.4267 92.7357C92.5843 90.401 89.7293 88.9025 86.5244 88.9025C81.2762 88.9025 76.9665 92.921 76.5044 98.0488H103.895Z" fill="white"/>
<path d="M101.249 63.0354C101.39 62.2277 101.463 61.3968 101.463 60.5488C101.463 52.6349 95.048 46.2195 87.1342 46.2195C79.2204 46.2195 72.8049 52.6349 72.8049 60.5488C72.8049 61.2853 72.8605 62.009 72.9677 62.7156C69.6052 64.5116 67.3171 68.0556 67.3171 72.1341C67.3171 78.0274 72.0946 82.8048 77.9879 82.8048C81.6668 82.8048 84.9109 80.9431 86.8293 78.1104C88.7478 80.9431 91.9919 82.8048 95.6708 82.8048C101.564 82.8048 106.342 78.0274 106.342 72.1341C106.342 68.2853 104.304 64.9124 101.249 63.0354Z" fill="white"/>
<path d="M101.249 63.0354C101.39 62.2277 101.463 61.3968 101.463 60.5488C101.463 52.6349 95.048 46.2195 87.1342 46.2195C79.2204 46.2195 72.8049 52.6349 72.8049 60.5488C72.8049 61.2853 72.8605 62.009 72.9677 62.7156C69.6052 64.5116 67.3171 68.0556 67.3171 72.1341C67.3171 78.0274 72.0946 82.8048 77.9879 82.8048C81.6668 82.8048 84.9109 80.9431 86.8293 78.1104C88.7478 80.9431 91.9919 82.8048 95.6708 82.8048C101.564 82.8048 106.342 78.0274 106.342 72.1341C106.342 68.2853 104.304 64.9124 101.249 63.0354Z" fill="white" stroke="#25245C" stroke-width="1.5"/>
<path opacity="0.15" d="M101.249 63.0354C101.39 62.2277 101.463 61.3968 101.463 60.5488C101.463 52.6349 95.048 46.2195 87.1342 46.2195C79.2204 46.2195 72.8049 52.6349 72.8049 60.5488C72.8049 61.2853 72.8605 62.009 72.9677 62.7156C69.6052 64.5116 67.3171 68.0556 67.3171 72.1341C67.3171 78.0274 72.0946 82.8048 77.9879 82.8048C81.6668 82.8048 84.9109 80.9431 86.8293 78.1104C88.7478 80.9431 91.9919 82.8048 95.6708 82.8048C101.564 82.8048 106.342 78.0274 106.342 72.1341C106.342 68.2853 104.304 64.9124 101.249 63.0354Z" fill="url(#paint2_radial_356_7138)"/>
<line x1="86.9695" y1="60.9939" x2="86.9695" y2="88.1524" stroke="#25245C" stroke-width="1.5" stroke-linecap="round"/>
<path d="M87 69L80.8111 62.6035" stroke="#25245C" stroke-width="1.5" stroke-linecap="round"/>
<path d="M87 71.5L93.616 64.5916" stroke="#25245C" stroke-width="1.5" stroke-linecap="round"/>
<line x1="58.0061" y1="72.439" x2="58.0061" y2="90.1219" stroke="#25245C" stroke-width="1.5"/>
<line x1="18.0669" y1="98.8" x2="109.25" y2="98.8" stroke="#25245C" stroke-width="1.5" stroke-linecap="round"/>
<line x1="10.75" y1="98.8" x2="13.5183" y2="98.8" stroke="#25245C" stroke-width="1.5" stroke-linecap="round"/>
<defs>
<radialGradient id="paint0_radial_356_7138" cx="0" cy="0" r="1" gradientUnits="userSpaceOnUse" gradientTransform="translate(41.0977 41.8897) rotate(68.3784) scale(19.8577 9.23098)">
<stop stop-color="#6061E6"/>
<stop offset="1" stop-color="#BAE1EB"/>
</radialGradient>
<radialGradient id="paint1_radial_356_7138" cx="0" cy="0" r="1" gradientUnits="userSpaceOnUse" gradientTransform="translate(27.6829 90.1947) rotate(13.8822) scale(61.554 19.4561)">
<stop stop-color="#6061E6"/>
<stop offset="1" stop-color="#BAE1EB"/>
</radialGradient>
<radialGradient id="paint2_radial_356_7138" cx="0" cy="0" r="1" gradientUnits="userSpaceOnUse" gradientTransform="translate(67.3171 43.5343) rotate(62.1442) scale(83.5197 46.8217)">
<stop stop-color="#6061E6"/>
<stop offset="1" stop-color="#BAE1EB"/>
</radialGradient>
</defs>
</svg>
