<svg width="120" height="120" viewBox="0 0 120 120" fill="none" xmlns="http://www.w3.org/2000/svg">
<path d="M19.2829 78.6688L19.6608 78.8892L20.0387 78.6688L22.0409 77.5008L32.5698 83.6427C34.4285 84.727 35.5715 86.7169 35.5715 88.8688V100.874H7C5.20507 100.874 3.75 99.4186 3.75 97.6237V88.8688C3.75 86.7169 4.89299 84.727 6.75174 83.6427C6.75175 83.6427 6.75175 83.6427 6.75175 83.6427L17.2807 77.5008L19.2829 78.6688Z" fill="white" stroke="#25245C" stroke-width="1.5"/>
<path opacity="0.15" d="M19.6608 78.0209L17.2806 76.6326L6.37384 82.9949C4.28469 84.2136 3 86.4502 3 88.8688V97.6237C3 99.8328 4.79086 101.624 7 101.624H36.3215V88.8688C36.3215 86.4502 35.0368 84.2136 32.9477 82.9949L22.0409 76.6326L19.6608 78.0209Z" fill="url(#paint0_radial_356_7137)"/>
<path d="M4.3891 73.2004L4.16837 73.5867L4.40154 73.9656C5.38363 75.5614 8.44401 78.884 13.0624 79.7499L13.131 79.7627H13.2007H26.1212H26.1745L26.2273 79.7552C27.9815 79.5046 32.1403 78.0164 35.5311 74.0606L35.8751 73.6593L35.6128 73.2004L34.3516 70.9932V58.9518C34.3516 51.0262 27.9266 44.6012 20.001 44.6012C12.0753 44.6012 5.65034 51.0262 5.65034 58.9518V70.9932L4.3891 73.2004Z" fill="white" stroke="#25245C" stroke-width="1.5"/>
<path d="M33.6013 71.1924V58.9518C33.6013 51.4404 27.5121 45.3512 20.0007 45.3512C12.4893 45.3512 6.4001 51.4404 6.4001 58.9518V71.1924L5.04004 73.5725C5.94673 75.0459 8.8482 78.1967 13.2004 79.0127H26.121C27.7077 78.786 31.6973 77.3806 34.9614 73.5725L33.6013 71.1924Z" fill="white"/>
<path d="M14.6304 69.2223H25.3709V78.6728C25.3709 81.6387 22.9666 84.043 20.0006 84.043C17.0347 84.043 14.6304 81.6387 14.6304 78.6728V69.2223Z" fill="white" stroke="#25245C" stroke-width="1.5"/>
<path d="M14.8206 59.0618L14.8206 59.0618C15.1837 58.5777 15.9017 58.1366 16.9774 57.9358C18.0417 57.7372 19.4001 57.7872 20.9424 58.2279C23.9891 59.0983 27.7206 61.487 31.1819 66.373C29.9818 71.436 25.4304 75.2026 20.0009 75.2026C13.9031 75.2026 8.91458 70.4526 8.53372 64.4512C9.2922 63.9634 10.3398 63.2356 11.4013 62.392C12.6435 61.4049 13.9477 60.2256 14.8206 59.0618Z" fill="white" stroke="#25245C" stroke-width="1.5"/>
<line x1="11.2302" y1="92.2733" x2="11.2302" y2="101.114" stroke="#25245C" stroke-width="1.5"/>
<path d="M81.3521 100.874V86.5586C81.3521 85.6373 81.8732 84.7953 82.6977 84.3845L82.6978 84.3844L93.5346 78.9843L98.9259 82.0969L99.3009 82.3134L99.6759 82.0969L105.067 78.9843L115.904 84.3844L115.904 84.3845C116.729 84.7953 117.25 85.6373 117.25 86.5586V97.6238C117.25 99.4187 115.795 100.874 114 100.874H81.3521Z" fill="white" stroke="#25245C" stroke-width="1.5"/>
<path opacity="0.15" d="M93.5607 78.1333L82.3633 83.7132C81.2841 84.2509 80.6021 85.3529 80.6021 86.5586V101.624H114C116.209 101.624 118 99.8329 118 97.6238V86.5586C118 85.3529 117.318 84.2509 116.239 83.7132L105.041 78.1333L99.3009 81.4474L93.5607 78.1333Z" fill="url(#paint1_radial_356_7137)"/>
<rect x="93.6709" y="73.7173" width="11.6137" height="8.03722" fill="white" stroke="#25245C" stroke-width="1.5"/>
<circle cx="99.4777" cy="65.2183" r="9.78068" fill="white" stroke="#25245C" stroke-width="1.5"/>
<circle cx="94.3118" cy="57.668" r="4.9673" fill="white"/>
<path d="M88.9857 62.541L89.2875 62.8763L89.7251 62.7669C91.9715 62.2053 92.6775 60.5899 92.6775 59.6549L92.6775 59.5893L92.6661 59.5246C92.2868 57.3752 92.8961 56.4865 93.1571 56.2324H101.243C103.612 56.3825 105.403 57.5469 106.7 58.9849C108.01 60.438 108.783 62.139 109.087 63.2334L109.331 64.1107L110.145 63.7035C110.589 63.4817 110.891 63.0652 111.099 62.6866C111.318 62.2885 111.492 61.8197 111.631 61.3548C111.909 60.4231 112.076 59.4018 112.145 58.74L112.149 58.7008V58.6615V49.5413C112.149 47.4702 110.47 45.7913 108.399 45.7913H94.3118C91.9015 45.7913 90.1466 47.2671 88.9694 48.9412C87.7914 50.6166 87.1028 52.6051 86.8224 53.9371L86.8111 53.9904L86.8077 54.0448C86.7425 55.0885 86.642 57.5652 86.8138 58.7675C86.9178 59.4953 87.3447 60.2901 87.7559 60.9263C88.1826 61.5866 88.6647 62.1843 88.9857 62.541Z" fill="white" stroke="#25245C" stroke-width="1.5"/>
<path d="M87.5563 58.6615C87.7152 59.7742 88.9471 61.3769 89.5432 62.0392C91.4507 61.5624 91.9275 60.251 91.9275 59.6549C91.4506 56.9527 92.3911 55.7473 92.9209 55.4824H101.266C106.511 55.8003 109.147 60.6484 109.81 63.0327C110.764 62.5558 111.267 59.9199 111.399 58.6615V49.5413C111.399 47.8844 110.056 46.5413 108.399 46.5413H94.3118C90.179 46.5413 88.0861 51.5748 87.5563 54.0916C87.49 55.1513 87.3973 57.5488 87.5563 58.6615Z" fill="white"/>
<line x1="88.1074" y1="90.8496" x2="88.1074" y2="101.621" stroke="#25245C" stroke-width="1.5"/>
<path d="M111.399 90.8496L111.399 101.624" stroke="#25245C" stroke-width="1.5"/>
<path d="M93.3183 77.3385L90.5366 80.1202L94.9078 86.081L99.4778 82.9172L104.048 86.081L108.419 80.1202L105.637 77.3385L99.4778 82.0487L93.3183 77.3385Z" fill="white" stroke="#25245C" stroke-width="1.5"/>
<path opacity="0.15" d="M93.3183 77.3385L90.5366 80.1202L94.9078 86.081L99.4778 82.9172L104.048 86.081L108.419 80.1202L105.637 77.3385L99.4778 82.0487L93.3183 77.3385Z" fill="url(#paint2_radial_356_7137)"/>
<path d="M99.4778 81.7098L99.4778 101.624" stroke="#25245C" stroke-width="1.5"/>
<path d="M31.5095 83.2823L31.5095 83.2823L50.3108 73.9133L59.7849 79.3832L60.1599 79.5998L60.5349 79.3832L70.0091 73.9133L88.8103 83.2823L88.8104 83.2823C90.4025 84.0756 91.4087 85.7014 91.4087 87.4802V100.874H28.9111V87.4802C28.9111 85.7014 29.9174 84.0756 31.5095 83.2823Z" fill="white" stroke="#25245C" stroke-width="1.5"/>
<rect x="49.9922" y="64.972" width="20.941" height="14.8207" fill="white" stroke="#25245C" stroke-width="1.5"/>
<circle cx="60.4627" cy="50.9614" r="17.2708" fill="white" stroke="#25245C" stroke-width="1.5"/>
<circle cx="51.6222" cy="38.0409" r="8.50039" fill="white"/>
<path d="M42.9045 46.0229L43.2063 46.3582L43.6439 46.2488C47.247 45.348 48.2922 42.8 48.2921 41.441L48.2921 41.3753L48.2807 41.3107C47.5533 37.1884 48.8646 35.4771 49.4505 35.0507H63.4999C67.7342 35.314 70.9267 37.3969 73.2173 39.9372C75.5216 42.4926 76.8813 45.4796 77.4209 47.422L77.6646 48.2993L78.4789 47.8921C79.0921 47.5855 79.5442 46.9882 79.8826 46.3721C80.2316 45.7366 80.5174 44.9736 80.7492 44.1973C81.2136 42.6426 81.4928 40.9288 81.6095 39.8195L81.6136 39.7803V39.7409V23C81.6136 20.3766 79.487 18.25 76.8636 18.25H51.6223C47.7423 18.25 44.8803 20.6209 42.9164 23.4138C40.9517 26.208 39.7967 29.5391 39.3279 31.7661L39.3167 31.8194L39.3133 31.8738C39.2009 33.6713 39.0345 37.8532 39.3194 39.847C39.4798 40.9704 40.1541 42.2482 40.8515 43.3272C41.5644 44.4303 42.3715 45.4307 42.9045 46.0229Z" fill="white" stroke="#25245C" stroke-width="1.5"/>
<path d="M40.0618 39.7409C40.3338 41.645 42.4419 44.3878 43.462 45.5212C46.7261 44.7052 47.5421 42.4611 47.5421 41.441C46.7261 36.8168 48.3355 34.7541 49.2422 34.3007H63.5229C72.4993 34.8447 77.0101 43.1411 78.1435 47.2213C79.7756 46.4052 80.637 41.8944 80.8636 39.7409V23C80.8636 20.7909 79.0728 19 76.8636 19H51.6223C44.55 19 40.9685 27.6137 40.0618 31.9206C39.9485 33.734 39.7898 37.8369 40.0618 39.7409Z" fill="url(#paint3_radial_356_7137)"/>
<line x1="40.4717" y1="94.8235" x2="40.4717" y2="101.624" stroke="#25245C" stroke-width="1.5"/>
<line x1="81.2734" y1="94.8235" x2="81.2734" y2="101.624" stroke="#25245C" stroke-width="1.5"/>
<path d="M49.9221 71.7024L45.1619 76.4626L52.6422 86.6631L60.4626 81.249L68.2829 86.6631L75.7633 76.4626L71.003 71.7024L60.4626 79.7628L49.9221 71.7024Z" fill="white" stroke="#25245C" stroke-width="1.5"/>
<path opacity="0.15" d="M49.9221 71.7024L45.1619 76.4626L52.6422 86.6631L60.4626 81.249L68.2829 86.6631L75.7633 76.4626L71.003 71.7024L60.4626 79.7628L49.9221 71.7024Z" fill="url(#paint4_radial_356_7137)"/>
<line x1="60.8726" y1="79.1827" x2="60.8726" y2="101.624" stroke="#25245C" stroke-width="1.5"/>
<defs>
<radialGradient id="paint0_radial_356_7137" cx="0" cy="0" r="1" gradientUnits="userSpaceOnUse" gradientTransform="translate(3 74.7984) rotate(56.551) scale(60.4533 37.7297)">
<stop stop-color="#6061E6"/>
<stop offset="1" stop-color="#BAE1EB"/>
</radialGradient>
<radialGradient id="paint1_radial_356_7137" cx="0" cy="0" r="1" gradientUnits="userSpaceOnUse" gradientTransform="translate(80.6021 76.4092) rotate(51.7342) scale(60.3861 39.8467)">
<stop stop-color="#6061E6"/>
<stop offset="1" stop-color="#BAE1EB"/>
</radialGradient>
<radialGradient id="paint2_radial_356_7137" cx="0" cy="0" r="1" gradientUnits="userSpaceOnUse" gradientTransform="translate(90.5366 76.6969) rotate(44.6178) scale(25.1224 17.0447)">
<stop stop-color="#6061E6"/>
<stop offset="1" stop-color="#BAE1EB"/>
</radialGradient>
<radialGradient id="paint3_radial_356_7137" cx="0" cy="0" r="1" gradientUnits="userSpaceOnUse" gradientTransform="translate(39.9116 16.9287) rotate(54.2855) scale(70.1538 45.1226)">
<stop stop-color="#6061E6"/>
<stop offset="1" stop-color="#BAE1EB"/>
</radialGradient>
<radialGradient id="paint4_radial_356_7137" cx="0" cy="0" r="1" gradientUnits="userSpaceOnUse" gradientTransform="translate(45.1619 70.6044) rotate(44.6178) scale(42.9911 29.168)">
<stop stop-color="#6061E6"/>
<stop offset="1" stop-color="#BAE1EB"/>
</radialGradient>
</defs>
</svg>
