<svg width="120" height="120" viewBox="0 0 120 120" fill="none" xmlns="http://www.w3.org/2000/svg">
<path d="M10 30.2294C10 29.1249 10.8954 28.2294 12 28.2294H97.5401C98.6447 28.2294 99.5401 29.1249 99.5401 30.2294V94.0797C99.5401 95.1843 98.6447 96.0797 97.5401 96.0797H12C10.8954 96.0797 10 95.1843 10 94.0797V30.2294Z" fill="white"/>
<path fill-rule="evenodd" clip-rule="evenodd" d="M98.4278 30.3417C98.4278 29.7894 97.9801 29.3417 97.4278 29.3417H12.1123C11.56 29.3417 11.1123 29.7894 11.1123 30.3417V93.9674C11.1123 94.5197 11.56 94.9674 12.1123 94.9674H97.4278C97.9801 94.9674 98.4278 94.5197 98.4278 93.9674V30.3417ZM12 28.2294C10.8954 28.2294 10 29.1249 10 30.2294V94.0797C10 95.1843 10.8954 96.0797 12 96.0797H97.5401C98.6447 96.0797 99.5401 95.1843 99.5401 94.0797V30.2294C99.5401 29.1249 98.6447 28.2294 97.5401 28.2294H12Z" fill="#25245C" stroke="#25245C" stroke-width="0.25"/>
<path d="M64.5028 23C64.5028 21.8954 63.6074 21 62.5028 21H47.0376C45.933 21 45.0376 21.8954 45.0376 23V24.893H38.1392C37.0346 24.893 36.1392 25.7885 36.1392 26.893V30.6791C36.1392 31.7837 37.0346 32.6791 38.1392 32.6791H71.4012C72.5058 32.6791 73.4012 31.7837 73.4012 30.6791V26.893C73.4012 25.7885 72.5058 24.893 71.4012 24.893H64.5028V23Z" fill="white"/>
<path fill-rule="evenodd" clip-rule="evenodd" d="M45.0376 23.893C45.0376 24.4453 44.5898 24.893 44.0376 24.893H37.1392C36.5869 24.893 36.1392 25.3408 36.1392 25.893V31.6791C36.1392 32.2314 36.5869 32.6791 37.1392 32.6791H72.4012C72.9535 32.6791 73.4012 32.2314 73.4012 31.6791V25.893C73.4012 25.3408 72.9535 24.893 72.4012 24.893H65.5028C64.9505 24.893 64.5028 24.4453 64.5028 23.893V22C64.5028 21.4477 64.0551 21 63.5028 21H46.0376C45.4853 21 45.0376 21.4477 45.0376 22V23.893ZM46.6499 22.1123C46.3737 22.1123 46.1499 22.3362 46.1499 22.6123V25.0053C46.1499 25.5576 45.7021 26.0053 45.1499 26.0053H37.7515C37.4753 26.0053 37.2515 26.2292 37.2515 26.5053V31.0668C37.2515 31.343 37.4753 31.5668 37.7515 31.5668H71.7889C72.065 31.5668 72.2889 31.343 72.2889 31.0668V26.5053C72.2889 26.2292 72.065 26.0053 71.7889 26.0053H64.3905C63.8382 26.0053 63.3905 25.5576 63.3905 25.0053V22.6123C63.3905 22.3362 63.1666 22.1123 62.8905 22.1123H46.6499Z" fill="#25245C" stroke="#25245C" stroke-width="0.25"/>
<path d="M15.5613 40.465H52.8233V83.8447H15.5613V40.465Z" fill="white"/>
<path fill-rule="evenodd" clip-rule="evenodd" d="M51.711 42.3273C51.711 41.9131 51.3752 41.5773 50.961 41.5773H17.4236C17.0094 41.5773 16.6736 41.9131 16.6736 42.3273V81.9824C16.6736 82.3966 17.0094 82.7324 17.4236 82.7324H50.961C51.3752 82.7324 51.711 82.3966 51.711 81.9824V42.3273ZM17.0613 40.465C16.2329 40.465 15.5613 41.1365 15.5613 41.965V82.3447C15.5613 83.1731 16.2328 83.8447 17.0613 83.8447H51.3233C52.1517 83.8447 52.8233 83.1731 52.8233 82.3447V41.965C52.8233 41.1365 52.1517 40.465 51.3233 40.465H17.0613Z" fill="#25245C" stroke="#25245C" stroke-width="0.25"/>
<path d="M33.9143 62.1551C36.9858 62.1551 39.4758 59.6651 39.4758 56.5936C39.4758 53.5221 36.9858 51.0321 33.9143 51.0321C30.8427 51.0321 28.3528 53.5221 28.3528 56.5936C28.3528 59.6651 30.8427 62.1551 33.9143 62.1551Z" fill="url(#paint0_radial_257_3652)"/>
<path d="M33.9143 64.3797C29.1971 64.3797 24.988 66.5548 22.2351 69.9568V73.2781H45.5934V69.9568C42.8406 66.5548 38.6314 64.3797 33.9143 64.3797Z" fill="url(#paint1_radial_257_3652)"/>
<rect x="57.6401" y="51.972" width="27.2513" height="1.1123" rx="0.55615" fill="#25245C" stroke="#25245C" stroke-width="0.25"/>
<rect x="57.6401" y="63.6516" width="16.1283" height="1.1123" rx="0.55615" fill="#25245C" stroke="#25245C" stroke-width="0.25"/>
<rect x="57.6401" y="75.3302" width="18.9091" height="1.1123" rx="0.55615" fill="#25245C" stroke="#25245C" stroke-width="0.25"/>
<path fill-rule="evenodd" clip-rule="evenodd" d="M89.5294 60.4875H102.877V66.049H89.5294V60.4875ZM99.4093 83.9363C99.4644 85.2941 99.6758 86.5889 100.106 87.7389H92.3565C92.7862 86.5889 92.9976 85.2941 93.0527 83.9363C93.1318 81.9855 92.8899 79.8639 92.4732 77.7726C91.7748 74.2664 90.5753 69.6842 89.5146 67.1613H102.947C101.887 69.6842 100.687 74.2664 99.9888 77.7726C99.5722 79.8639 99.3302 81.9855 99.4093 83.9363Z" fill="white"/>
<path d="M78.4065 92.1877C78.4065 89.7305 80.3985 87.7385 82.8557 87.7385H109.551C112.008 87.7385 114 89.7305 114 92.1877V94.0808C114 95.1853 113.105 96.0808 112 96.0808H78.4065V92.1877Z" fill="white"/>
<path opacity="0.15" d="M78.4065 92.1877C78.4065 89.7305 80.3985 87.7385 82.8557 87.7385H109.551C112.008 87.7385 114 89.7305 114 92.1877V96.0808H79.4065C78.8542 96.0808 78.4065 95.6331 78.4065 95.0808V92.1877Z" fill="url(#paint2_radial_257_3652)"/>
<path fill-rule="evenodd" clip-rule="evenodd" d="M101.306 87.7385C101.187 87.4694 101.083 87.1869 100.992 86.8921C100.715 85.9915 100.565 84.9794 100.521 83.8908C100.446 82.0563 100.674 80.0276 101.08 77.9895C101.767 74.5381 102.806 70.1011 103.834 67.5338C103.886 67.4047 103.938 67.2803 103.989 67.161V60.3749C103.989 59.8226 103.542 59.3749 102.989 59.3749H89.4172C88.8649 59.3749 88.4172 59.8226 88.4172 60.3749V67.161C88.4715 67.2864 88.526 67.4174 88.5807 67.5537C89.6119 70.1239 90.6966 74.547 91.3825 77.9895C91.7821 79.9958 92.0086 81.9929 91.9446 83.8047C91.9436 83.8335 91.9425 83.8622 91.9414 83.8908C91.9025 84.8485 91.7817 85.7469 91.5645 86.5623C91.4538 86.9776 91.3184 87.3706 91.1565 87.7385H82.8557C80.3985 87.7385 78.4065 89.7305 78.4065 92.1877V96.0808H81.7434V97.3054C81.7434 97.8577 82.1911 98.3054 82.7434 98.3054H109.663C110.215 98.3054 110.663 97.8577 110.663 97.3054V96.0808H113C113.552 96.0808 114 95.6331 114 95.0808V92.1877C114 89.7305 112.008 87.7385 109.551 87.7385H101.306ZM112.888 94.9685V92.1877C112.888 90.3448 111.394 88.8508 109.551 88.8508H82.8557C81.0128 88.8508 79.5188 90.3448 79.5188 92.1877V94.9685H112.888ZM83.3557 96.0808C83.0796 96.0808 82.8557 96.3046 82.8557 96.5808V96.6931C82.8557 96.9692 83.0796 97.1931 83.3557 97.1931H109.051C109.327 97.1931 109.551 96.9692 109.551 96.6931V96.5808C109.551 96.3046 109.327 96.0808 109.051 96.0808H83.3557ZM100.106 87.7385C100.041 87.5658 99.9815 87.3898 99.9266 87.2109C99.8678 87.0194 99.8145 86.8244 99.7662 86.6262C99.56 85.7793 99.4475 84.8743 99.4094 83.9359C99.3303 81.9851 99.5722 79.8636 99.9889 77.7722C100.594 74.7338 101.576 70.8873 102.517 68.2733C102.662 67.8708 102.806 67.4976 102.947 67.161H89.5147C89.6562 67.4976 89.8002 67.8708 89.9451 68.2733C90.8865 70.8873 91.868 74.7338 92.4733 77.7722C92.8899 79.8636 93.1319 81.9851 93.0528 83.9359C93.0489 84.0324 93.0441 84.1285 93.0386 84.2243C92.9906 85.0598 92.881 85.8664 92.696 86.6262C92.6464 86.8297 92.5915 87.0298 92.5309 87.2262C92.4773 87.3999 92.4192 87.5707 92.3565 87.7385H100.106ZM90.0295 60.4872C89.7534 60.4872 89.5295 60.711 89.5295 60.9872V65.5487C89.5295 65.8248 89.7534 66.0487 90.0295 66.0487H102.377C102.653 66.0487 102.877 65.8248 102.877 65.5487V60.9872C102.877 60.711 102.653 60.4872 102.377 60.4872H90.0295Z" fill="#25245C" stroke="#25245C" stroke-width="0.25"/>
<defs>
<radialGradient id="paint0_radial_257_3652" cx="0" cy="0" r="1" gradientUnits="userSpaceOnUse" gradientTransform="translate(22.2351 49.3994) rotate(62.5153) scale(50.6126 28.1208)">
<stop stop-color="#6061E6"/>
<stop offset="1" stop-color="#BAE1EB"/>
</radialGradient>
<radialGradient id="paint1_radial_257_3652" cx="0" cy="0" r="1" gradientUnits="userSpaceOnUse" gradientTransform="translate(22.2351 49.3994) rotate(62.5153) scale(50.6126 28.1208)">
<stop stop-color="#6061E6"/>
<stop offset="1" stop-color="#BAE1EB"/>
</radialGradient>
<radialGradient id="paint2_radial_257_3652" cx="0" cy="0" r="1" gradientUnits="userSpaceOnUse" gradientTransform="translate(78.4065 87.1262) rotate(25.3165) scale(39.3752 20.655)">
<stop stop-color="#6061E6"/>
<stop offset="1" stop-color="#BAE1EB"/>
</radialGradient>
</defs>
</svg>
