<svg width="120" height="120" viewBox="0 0 120 120" fill="none" xmlns="http://www.w3.org/2000/svg">
<rect x="21.75" y="22.75" width="67.4591" height="74.6637" rx="1.25" fill="white" stroke="#25245C" stroke-width="1.5"/>
<rect x="21.3" y="34.8655" width="68.3" height="1.02924" fill="#25245C" stroke="#25245C" stroke-width="0.3"/>
<rect opacity="0.15" x="29.7485" y="48.2456" width="48.8889" height="6.17544" rx="2" fill="url(#paint0_radial_258_3724)"/>
<rect opacity="0.15" x="29.7485" y="62.1404" width="48.8889" height="6.17544" rx="2" fill="url(#paint1_radial_258_3724)"/>
<rect opacity="0.15" x="29.7485" y="76.035" width="48.8889" height="6.17544" rx="2" fill="url(#paint2_radial_258_3724)"/>
<path d="M27.1755 29.7193C26.8913 29.7193 26.6609 29.4889 26.6609 29.2047C26.6609 28.9205 26.8913 28.6901 27.1755 28.6901H43.6433C43.9276 28.6901 44.158 28.9205 44.158 29.2047C44.158 29.4889 43.9276 29.7193 43.6433 29.7193H27.1755Z" fill="#25245C" stroke="#25245C" stroke-width="0.3"/>
<path d="M109 56.4792C109 62.732 103.931 67.8009 97.6783 67.8009C95.6772 67.8009 93.7973 67.2817 92.1661 66.3707L65.1584 94.3013C63.6473 95.864 61.1487 95.885 59.6115 94.3479C58.0749 92.8113 58.0952 90.3138 59.6566 88.8024L87.638 61.716C86.8195 60.1499 86.3567 58.3686 86.3567 56.4792C86.3567 50.2265 91.4256 45.1576 97.6783 45.1576C98.7535 45.1576 99.7937 45.3075 100.779 45.5875L95.9718 50.3948C93.8746 52.4919 93.8746 55.892 95.9718 57.9891C98.0689 60.0863 101.469 60.0863 103.566 57.9891L108.479 53.0758C108.818 54.15 109 55.2933 109 56.4792Z" fill="url(#paint3_radial_258_3724)"/>
<path d="M52.9065 48.76L59.0819 42.5846L69.3743 50.3039L60.1112 59.0524L52.9065 48.76Z" fill="white" stroke="#25245C" stroke-width="1.4"/>
<rect x="62.606" y="56.9565" width="6.17544" height="30.2848" transform="rotate(-45 62.606 56.9565)" fill="white" stroke="#25245C" stroke-width="1.4"/>
<path d="M82.3684 80.0232L90.0234 72.3682L104.98 87.3244C107.093 89.4382 107.093 92.8655 104.98 94.9793C102.866 97.0932 99.4384 97.0932 97.3245 94.9793L82.3684 80.0232Z" fill="white" stroke="#25245C" stroke-width="1.4"/>
<defs>
<radialGradient id="paint0_radial_258_3724" cx="0" cy="0" r="1" gradientUnits="userSpaceOnUse" gradientTransform="translate(29.7485 47.7924) rotate(14.3028) scale(50.4527 16.3903)">
<stop stop-color="#6061E6"/>
<stop offset="1" stop-color="#BAE1EB"/>
</radialGradient>
<radialGradient id="paint1_radial_258_3724" cx="0" cy="0" r="1" gradientUnits="userSpaceOnUse" gradientTransform="translate(29.7485 61.6871) rotate(14.3028) scale(50.4527 16.3903)">
<stop stop-color="#6061E6"/>
<stop offset="1" stop-color="#BAE1EB"/>
</radialGradient>
<radialGradient id="paint2_radial_258_3724" cx="0" cy="0" r="1" gradientUnits="userSpaceOnUse" gradientTransform="translate(29.7485 75.5818) rotate(14.3028) scale(50.4527 16.3903)">
<stop stop-color="#6061E6"/>
<stop offset="1" stop-color="#BAE1EB"/>
</radialGradient>
<radialGradient id="paint3_radial_258_3724" cx="0" cy="0" r="1" gradientUnits="userSpaceOnUse" gradientTransform="translate(58.4722 41.4637) rotate(63.554) scale(113.455 61.3934)">
<stop stop-color="#6061E6"/>
<stop offset="1" stop-color="#BAE1EB"/>
</radialGradient>
</defs>
</svg>
