<svg width="120" height="120" viewBox="0 0 120 120" fill="none" xmlns="http://www.w3.org/2000/svg">
<path fill-rule="evenodd" clip-rule="evenodd" d="M73.9212 20.1584C73.9212 19.6061 73.4735 19.1584 72.9212 19.1584H18.1584C17.6061 19.1584 17.1584 19.6061 17.1584 20.1584V87.6639C17.1584 88.2162 17.6061 88.6639 18.1584 88.6639H72.9212C73.4735 88.6639 73.9212 88.2162 73.9212 87.6639V20.1584ZM18 18C16.8954 18 16 18.8954 16 20V87.8223C16 88.9269 16.8954 89.8223 18 89.8223H73.0797C74.1842 89.8223 75.0797 88.9269 75.0797 87.8223V20C75.0797 18.8954 74.1842 18 73.0797 18H18Z" fill="#25245C" stroke="#25245C" stroke-width="0.25"/>
<path fill-rule="evenodd" clip-rule="evenodd" d="M65.2331 46.3812C65.2331 57.2574 56.4162 66.0744 45.5399 66.0744C34.6636 66.0744 25.8467 57.2574 25.8467 46.3812C25.8467 35.5049 34.6636 26.6879 45.5399 26.6879C56.4162 26.6879 65.2331 35.5049 65.2331 46.3812ZM45.5399 64.916C55.7764 64.916 64.0747 56.6176 64.0747 46.3812C64.0747 36.1447 55.7764 27.8464 45.5399 27.8464C35.3034 27.8464 27.0051 36.1447 27.0051 46.3812C27.0051 56.6176 35.3034 64.916 45.5399 64.916Z" fill="#25245C" stroke="#25245C" stroke-width="0.25"/>
<path d="M58.5382 59.5941C55.193 62.8854 50.6036 64.916 45.5399 64.916C40.4762 64.916 35.8868 62.8854 32.5415 59.5941C36.1061 56.7488 40.6243 55.0479 45.5399 55.0479C50.4554 55.0479 54.9737 56.7488 58.5382 59.5941Z" fill="url(#paint0_radial_258_3723)"/>
<path d="M53.2627 44.2359C53.2627 48.5011 49.8051 51.9587 45.5399 51.9587C41.2747 51.9587 37.817 48.5011 37.817 44.2359C37.817 39.9707 41.2747 36.5131 45.5399 36.5131C49.8051 36.5131 53.2627 39.9707 53.2627 44.2359Z" fill="url(#paint1_radial_258_3723)"/>
<rect x="30.4802" y="73.0251" width="19.6932" height="1.15842" rx="0.579212" fill="#25245C" stroke="#25245C" stroke-width="0.25"/>
<rect x="30.4802" y="80.5549" width="31.8567" height="1.15842" rx="0.579212" fill="#25245C" stroke="#25245C" stroke-width="0.25"/>
<path fill-rule="evenodd" clip-rule="evenodd" d="M86.4732 36.2436L89.3053 35.2732C89.6067 35.17 89.7684 34.843 89.6677 34.5408C89.566 34.2358 89.2357 34.0716 88.9311 34.1747L83.5848 35.9853C83.3545 36.3048 83.3818 36.7424 83.65 37.0308L83.7259 37.1125C95.5777 37.9744 101.125 43.8051 102.686 46.9362C102.829 47.2224 103.164 47.3675 103.461 47.2502C103.759 47.133 103.907 46.7981 103.768 46.5101C102.182 43.2348 96.9749 37.7555 86.4732 36.2436Z" fill="#25245C" stroke="#25245C" stroke-width="0.25"/>
<path fill-rule="evenodd" clip-rule="evenodd" d="M52.0617 106.024L49.2296 106.994C48.9282 107.097 48.7665 107.424 48.8672 107.727C48.9689 108.032 49.2992 108.196 49.6038 108.093L54.9501 106.282C55.1804 105.963 55.1531 105.525 54.8849 105.237L54.809 105.155C42.9572 104.293 37.4095 98.4623 35.8485 95.3312C35.7058 95.0449 35.3714 94.8999 35.0738 95.0172C34.7761 95.1344 34.6278 95.4693 34.7672 95.7573C36.3526 99.0326 41.56 104.512 52.0617 106.024Z" fill="#25245C" stroke="#25245C" stroke-width="0.25"/>
<path d="M65 61.7C65 61.3134 65.3134 61 65.7 61H102.3C102.687 61 103 61.3134 103 61.7V94C103 96.2091 101.209 98 99 98H69C66.7909 98 65 96.2091 65 94V61.7Z" fill="white"/>
<path opacity="0.15" d="M64.6538 61.7031C64.6538 60.5986 65.5492 59.7031 66.6538 59.7031H100.882C101.986 59.7031 102.882 60.5986 102.882 61.7031V95.9312C102.882 97.0357 101.986 97.9312 100.882 97.9312H66.6538C65.5492 97.9312 64.6538 97.0357 64.6538 95.9312V61.7031Z" fill="url(#paint2_radial_258_3723)"/>
<path fill-rule="evenodd" clip-rule="evenodd" d="M101.723 61.8616C101.723 61.3093 101.276 60.8616 100.723 60.8616H66.8122C66.2599 60.8616 65.8122 61.3093 65.8122 61.8616V95.7727C65.8122 96.325 66.26 96.7727 66.8122 96.7727H100.723C101.276 96.7727 101.723 96.325 101.723 95.7727V61.8616ZM66.6538 59.7031C65.5492 59.7031 64.6538 60.5986 64.6538 61.7031V95.9312C64.6538 97.0357 65.5492 97.9312 66.6538 97.9312H100.882C101.986 97.9312 102.882 97.0357 102.882 95.9312V61.7031C102.882 60.5986 101.986 59.7031 100.882 59.7031H66.6538Z" fill="#25245C" stroke="#25245C" stroke-width="0.25"/>
<path fill-rule="evenodd" clip-rule="evenodd" d="M94.7728 86.2239V89.3536H72.7627V86.2239C75.3567 83.0184 79.3228 80.9688 83.7677 80.9688C88.2126 80.9688 92.1788 83.0184 94.7728 86.2239ZM89.0082 73.6321C89.0082 76.5263 86.662 78.8726 83.7677 78.8726C80.8735 78.8726 78.5272 76.5263 78.5272 73.6321C78.5272 70.7378 80.8735 68.3916 83.7677 68.3916C86.662 68.3916 89.0082 70.7378 89.0082 73.6321Z" fill="white"/>
<path fill-rule="evenodd" clip-rule="evenodd" d="M83.7677 77.7139C86.0222 77.7139 87.8498 75.8863 87.8498 73.6319C87.8498 71.3774 86.0222 69.5498 83.7677 69.5498C81.5133 69.5498 79.6857 71.3774 79.6857 73.6319C79.6857 75.8863 81.5133 77.7139 83.7677 77.7139ZM74.0433 86.5037C73.9638 86.5933 73.9211 86.7094 73.9211 86.8292V87.6949C73.9211 87.9711 74.145 88.1949 74.4211 88.1949H93.1143C93.3905 88.1949 93.6143 87.9711 93.6143 87.6949V86.8292C93.6143 86.7094 93.5716 86.5933 93.4922 86.5037C91.1107 83.8174 87.637 82.127 83.7677 82.127C79.8984 82.127 76.4247 83.8174 74.0433 86.5037ZM94.5467 85.9514C94.6952 86.1257 94.7728 86.3486 94.7728 86.5776V88.3533C94.7728 88.9056 94.3251 89.3533 93.7728 89.3533H73.7627C73.2104 89.3533 72.7627 88.9056 72.7627 88.3533V86.5776C72.7627 86.3486 72.8403 86.1257 72.9887 85.9514C75.584 82.9025 79.45 80.9685 83.7677 80.9685C88.0854 80.9685 91.9514 82.9025 94.5467 85.9514ZM89.0082 73.6319C89.0082 76.5261 86.662 78.8723 83.7677 78.8723C80.8735 78.8723 78.5272 76.5261 78.5272 73.6319C78.5272 70.7376 80.8735 68.3914 83.7677 68.3914C86.662 68.3914 89.0082 70.7376 89.0082 73.6319Z" fill="#25245C" stroke="#25245C" stroke-width="0.25"/>
<defs>
<radialGradient id="paint0_radial_258_3723" cx="0" cy="0" r="1" gradientUnits="userSpaceOnUse" gradientTransform="translate(32.5415 34.4284) rotate(65.6066) scale(62.9461 32.1296)">
<stop stop-color="#6061E6"/>
<stop offset="1" stop-color="#BAE1EB"/>
</radialGradient>
<radialGradient id="paint1_radial_258_3723" cx="0" cy="0" r="1" gradientUnits="userSpaceOnUse" gradientTransform="translate(32.5415 34.4284) rotate(65.6066) scale(62.9461 32.1296)">
<stop stop-color="#6061E6"/>
<stop offset="1" stop-color="#BAE1EB"/>
</radialGradient>
<radialGradient id="paint2_radial_258_3723" cx="0" cy="0" r="1" gradientUnits="userSpaceOnUse" gradientTransform="translate(64.6538 56.8974) rotate(63.6437) scale(86.1084 46.4848)">
<stop stop-color="#6061E6"/>
<stop offset="1" stop-color="#BAE1EB"/>
</radialGradient>
</defs>
</svg>
