<svg width="120" height="120" viewBox="0 0 120 120" fill="none" xmlns="http://www.w3.org/2000/svg">
<path d="M49.7169 103.796L49.2463 103.591L49.2457 103.592C40.1258 99.5863 32.537 95.6448 27.1797 87.4241L27.1796 87.4241C21.6776 78.9828 18.7475 69.1076 18.75 59.0123V59.0121V34.0633C18.75 30.223 21.1228 26.7822 24.7122 25.4173L52.0165 15.0343C54.1074 14.2392 56.4157 14.2287 58.5138 15.0049L86.7328 25.4447C90.3631 26.7878 92.7733 30.2493 92.7733 34.1201V58.504V58.5051C92.7872 68.725 89.7899 78.7205 84.159 87.2271L84.159 87.2272C78.5823 95.6542 70.6466 99.5873 61.1417 103.568L61.1405 103.569L56.7395 105.421C55.6675 105.872 54.4573 105.864 53.3912 105.399L49.7169 103.796Z" stroke="#25245C" stroke-width="1.5"/>
<path opacity="0.15" d="M54.7791 93.9839L50.5672 92.1656L50.5663 92.1665C43.592 89.1502 37.6557 86.1882 33.4868 79.8582C29.3174 73.5283 27.0973 66.1235 27.0991 58.5539V52.5907L54.7791 42.1749V93.9839Z" fill="url(#paint0_radial_257_3505)"/>
<path d="M50.8645 91.4757L50.398 91.2743L50.3977 91.2745C43.6395 88.3321 38.059 85.4358 34.1132 79.4444L34.1132 79.4443C30.0243 73.2368 27.8473 65.9755 27.8491 58.5527V58.5526V56.7424C27.8491 54.5561 29.204 52.5987 31.2501 51.8287L53.1086 43.6035C54.2853 43.1607 55.5818 43.1549 56.7624 43.5871L79.319 51.8448C81.3882 52.6023 82.7641 54.5713 82.7641 56.7748V58.177V58.1781C82.7745 65.6923 80.5474 73.042 76.3629 79.2976L76.3629 79.2976C72.2321 85.4744 66.3532 88.3641 59.2547 91.3059L59.2535 91.3064L56.0567 92.638C55.2435 92.9767 54.3276 92.9708 53.5189 92.6217L50.8645 91.4757Z" stroke="#25245C" stroke-width="1.5"/>
<path fill-rule="evenodd" clip-rule="evenodd" d="M78.9324 70.9871C78.9324 66.0413 82.9544 62.0244 87.8951 62.0244C92.8359 62.0244 96.8578 66.0463 96.8578 70.9871V77.2781L78.9326 77.2777L78.9324 70.9871ZM104.659 80.1151C104.659 79.2892 103.994 78.6146 103.163 78.6146H72.6312C71.7996 78.6146 71.1262 79.2859 71.1262 80.1151V102.387C71.1262 103.218 71.8051 103.888 72.6312 103.888H103.168C103.993 103.888 104.664 103.214 104.664 102.387L104.659 80.1151Z" fill="white"/>
<path fill-rule="evenodd" clip-rule="evenodd" d="M87.8949 60.6836C82.2151 60.6836 77.5907 65.3072 77.5907 70.9878V77.2788H72.6311C71.0635 77.2788 69.7898 78.5536 69.7898 80.1156V102.388C69.7898 103.95 71.0639 105.225 72.6311 105.225L103.163 105.224C104.726 105.224 106 103.95 106 102.387V80.1152C106 78.5484 104.726 77.2784 103.163 77.2784L98.1934 77.2784V70.9878C98.1981 65.3079 93.5746 60.6836 87.8949 60.6836ZM78.9322 70.9878C78.9322 66.042 82.9543 62.0251 87.8949 62.0251C92.8357 62.0251 96.8576 66.047 96.8576 70.9878V77.2788L78.9324 77.2784L78.9322 70.9878ZM104.659 80.1159C104.659 79.2899 103.994 78.6154 103.163 78.6154H72.6311C71.7994 78.6154 71.1261 79.2866 71.1261 80.1159V102.388C71.1261 103.218 71.8049 103.889 72.6311 103.889H103.168C103.992 103.889 104.664 103.215 104.664 102.388L104.659 80.1159ZM87.8948 85.0279C86.008 85.0279 84.4714 86.5645 84.4714 88.4513C84.4714 90.0077 85.5148 91.3218 86.9402 91.7327L87.2247 91.8147V96.8104C87.2247 97.1801 87.5256 97.4809 87.8952 97.4809C88.2649 97.4809 88.5657 97.18 88.5657 96.8104V91.8155L88.8492 91.733C90.2759 91.3174 91.319 90.0022 91.319 88.4514M87.8948 85.0279C89.7821 85.0279 91.3186 86.56 91.319 88.4514L87.8948 85.0279ZM85.8077 88.4513C85.8077 87.3027 86.7432 86.3687 87.8948 86.3687C89.0464 86.3687 89.9819 87.3027 89.9819 88.4512M89.9819 88.4512C89.9823 89.5995 89.0468 90.5339 87.8948 90.5339C86.7431 90.5339 85.8077 89.5998 85.8077 88.4513" fill="#25245C"/>
<path d="M53.2326 34.6848L27.9872 43.9014C27.3348 44.1395 26.6443 43.6565 26.6443 42.962V36.9018C26.6443 36.4818 26.9068 36.1065 27.3013 35.9625L53.2326 26.4955C54.5715 26.0067 56.0407 26.0105 57.377 26.5063L82.8621 35.9604C83.2541 36.1059 83.5143 36.4798 83.5143 36.898V42.9541C83.5143 43.6508 82.8197 44.134 82.1665 43.8916L57.377 34.6956C56.0407 34.1998 54.5715 34.196 53.2326 34.6848Z" fill="url(#paint1_radial_257_3505)"/>
<defs>
<radialGradient id="paint0_radial_257_3505" cx="0" cy="0" r="1" gradientUnits="userSpaceOnUse" gradientTransform="translate(27.0991 38.3724) rotate(75.1735) scale(108.17 36.3125)">
<stop stop-color="#6061E6"/>
<stop offset="1" stop-color="#BAE1EB"/>
</radialGradient>
<radialGradient id="paint1_radial_257_3505" cx="0" cy="0" r="1" gradientUnits="userSpaceOnUse" gradientTransform="translate(26.6443 24.3692) rotate(33.5053) scale(68.203 42.602)">
<stop stop-color="#6061E6"/>
<stop offset="1" stop-color="#BAE1EB"/>
</radialGradient>
</defs>
</svg>
