<svg width="536" height="834" viewBox="0 0 536 834" fill="none" xmlns="http://www.w3.org/2000/svg">
<g clip-path="url(#clip0_3524_23670)">
<rect width="536" height="834" fill="white"/>
<rect width="536" height="834" fill="#E2EDFE"/>
<path opacity="0.05" d="M80.8198 479.558C33.981 396.342 58.0375 275.815 144.697 190.449C240.925 95.6571 379.285 78.7592 460.427 149.572C470.422 155.926 479.747 163.418 488.257 172.065C566.149 251.215 546.232 397.2 443.772 498.13C341.312 599.06 195.108 616.716 117.216 537.566C100.773 520.857 88.689 501.17 80.8198 479.558Z" fill="#0066FF"/>
<path opacity="0.05" d="M148.565 407.03C129.588 349.783 159.05 278.037 223.059 235.682C294.136 188.651 381.915 194.997 423.647 248.729C429.073 253.88 433.947 259.655 438.176 266.047C476.887 324.549 446.917 412.57 371.237 462.647C295.557 512.724 202.825 505.894 164.115 447.391C155.943 435.041 150.832 421.376 148.565 407.03Z" fill="#0066FF"/>
<g filter="url(#filter0_d_3524_23670)">
<rect x="119.771" y="296.157" width="505" height="431" rx="20" transform="rotate(-15 119.771 296.157)" fill="white"/>
</g>
<rect x="161.715" y="332.921" width="438.967" height="85.0894" rx="5.2" transform="rotate(-15 161.715 332.921)" fill="#F7F7F8"/>
<rect x="189.949" y="438.293" width="263.467" height="131.3" rx="5.2" transform="rotate(-15 189.949 438.293)" fill="#F7F7F8"/>
<rect x="226.624" y="575.165" width="89.7" height="10.4" rx="1.3" transform="rotate(-15 226.624 575.165)" fill="#F7F7F8"/>
<rect x="230.661" y="590.233" width="234.65" height="23.4" rx="1.3" transform="rotate(-15 230.661 590.233)" fill="#F7F7F8"/>
<rect x="238.063" y="617.859" width="154.7" height="10.4" rx="1.3" transform="rotate(-15 238.063 617.859)" fill="#F7F7F8"/>
<rect x="464.529" y="364.719" width="263.467" height="131.3" rx="5.2" transform="rotate(-15 464.529 364.719)" fill="#F7F7F8"/>
<rect x="501.204" y="501.591" width="89.7" height="10.4" rx="1.3" transform="rotate(-15 501.204 501.591)" fill="#F7F7F8"/>
<rect x="505.241" y="516.66" width="234.65" height="23.4" rx="1.3" transform="rotate(-15 505.241 516.66)" fill="#F7F7F8"/>
<rect x="512.644" y="544.285" width="154.7" height="10.4" rx="1.3" transform="rotate(-15 512.644 544.285)" fill="#F7F7F8"/>
<circle cx="194.575" cy="633.283" r="64" transform="rotate(-15 194.575 633.283)" fill="#B3D1FE" stroke="white" stroke-width="8"/>
<g clip-path="url(#clip1_3524_23670)">
<path fill-rule="evenodd" clip-rule="evenodd" d="M185.314 627.914L176.171 635.619L175.836 635.709L179.966 651.127L189.179 643.404L189.515 643.312L188.438 639.3L190.452 638.76L191.696 643.401C191.767 643.668 191.664 644.022 191.393 644.265L180.31 653.536C179.959 653.81 179.439 653.95 178.997 653.888L164.764 651.4C164.408 651.325 164.141 651.07 164.07 650.803L159.34 633.152C159.259 632.848 159.332 632.524 159.574 632.306L170.639 622.965C170.99 622.692 171.509 622.552 171.951 622.614L186.257 625.15C186.554 625.242 186.825 625.498 186.897 625.768L188.401 631.378L186.387 631.918L185.314 627.914ZM183.353 626.792L171.761 624.669L162.782 632.305L173.805 634.28L174.463 634.415L174.876 633.987L183.353 626.792ZM173.555 636.32L161.784 634.219L165.882 649.512L177.481 651.584L177.97 651.453L173.891 636.231L173.555 636.32Z" fill="#25245C"/>
<path fill-rule="evenodd" clip-rule="evenodd" d="M199.91 624.003L211.68 626.105L212.015 626.015L216.147 641.432L204.307 639.35L203.971 639.439L202.897 635.425L200.883 635.965L202.126 640.606C202.198 640.873 202.464 641.128 202.82 641.202L217.054 643.69C217.495 643.752 218.015 643.613 218.367 643.338L229.449 634.067C229.72 633.824 229.824 633.47 229.752 633.204L225.023 615.552C224.941 615.249 224.716 615.004 224.397 614.937L210.144 612.38C209.704 612.318 209.184 612.457 208.832 612.732L197.711 622.081C197.499 622.309 197.393 622.666 197.465 622.936L198.968 628.546L200.982 628.007L199.91 624.003ZM201.047 622.051L210.024 614.416L221.618 616.54L213.06 623.762L212.558 624.208L211.985 624.044L201.047 622.051ZM214.296 625.404L223.439 617.698L227.537 632.992L218.528 640.585L218.039 640.716L213.961 625.494L214.296 625.404Z" fill="#25245C"/>
<path d="M183.241 636.762C183.446 637.524 184.217 637.91 184.909 637.725L204.499 632.476C205.26 632.272 205.647 631.5 205.461 630.808C205.276 630.116 204.486 629.66 203.794 629.846L184.273 635.076C183.493 635.211 183.038 636.001 183.241 636.762Z" fill="#0066FF" stroke="#B3D1FE" stroke-width="0.708333"/>
</g>
<circle cx="148.164" cy="419.511" r="56.5" transform="rotate(-15 148.164 419.511)" fill="#ACF5DB" stroke="white" stroke-width="8"/>
<g clip-path="url(#clip2_3524_23670)">
<path fill-rule="evenodd" clip-rule="evenodd" d="M120.82 426.935C122.788 434.189 127.548 440.365 134.051 444.104C140.554 447.844 148.267 448.843 155.492 446.88L155.499 446.878C165.251 444.301 172.883 436.699 175.518 426.934C178.155 417.169 175.394 406.725 168.275 399.539C161.158 392.353 150.767 389.516 141.017 392.093L140.642 392.194C133.417 394.155 127.27 398.917 123.551 405.432C119.834 411.947 118.85 419.682 120.82 426.935ZM167.538 402.765L155.03 406.116L154.628 405.308C152.836 401.703 150.359 398.485 147.336 395.834L145.13 393.9L148.064 393.9C154.855 393.901 161.372 396.603 166.185 401.412L167.538 402.765ZM154.679 443.83L153.67 443.194C149.847 440.786 146.717 437.419 144.59 433.427L143.936 432.201L158.169 428.387L158.216 429.776C158.368 434.297 157.342 438.777 155.235 442.775L154.679 443.83ZM173.667 421.441L173.701 420.631C173.92 415.389 172.532 410.204 169.721 405.775L169.287 405.09L122.658 417.585L122.625 418.396C122.52 421.001 122.808 423.606 123.48 426.124L123.481 426.127C124.158 428.644 125.212 431.045 126.604 433.248L127.039 433.935L173.667 421.441ZM141.647 395.195L142.656 395.831C146.48 398.239 149.609 401.607 151.737 405.598L152.391 406.824L138.159 410.638L138.111 409.25C137.958 404.729 138.985 400.248 141.091 396.25L141.647 395.195ZM137.999 395.815L137.052 398.592C135.755 402.399 135.215 406.426 135.463 410.445L135.519 411.346L122.997 414.701L123.494 412.852C125.263 406.274 129.566 400.673 135.456 397.279L137.999 395.815ZM128.788 436.261L141.298 432.909L141.699 433.718C143.49 437.322 145.967 440.54 148.99 443.19L151.197 445.124L148.263 445.124C141.472 445.123 134.956 442.422 130.142 437.613L128.788 436.261ZM158.327 443.21L159.273 440.433C160.571 436.627 161.112 432.6 160.864 428.582L160.808 427.681L173.33 424.326L172.833 426.174C171.064 432.752 166.76 438.354 160.869 441.746L158.327 443.21Z" fill="#25245C" stroke="#ACF5DB" stroke-width="0.5"/>
<path d="M133.333 428.617L128.146 420.061L130.625 419.397L133.654 425.102L133.731 425.082L133.701 418.573L135.722 418.031L138.954 423.697L139.031 423.676L138.803 417.206L141.277 416.543L141.067 426.544L138.906 427.123L135.726 421.944L135.654 421.964L135.49 428.039L133.333 428.617Z" fill="#108F62"/>
<path d="M144.687 425.574L142.201 416.295L148.671 414.561L149.159 416.383L144.932 417.515L145.442 419.418L149.338 418.374L149.828 420.2L145.931 421.244L146.442 423.152L150.669 422.019L151.157 423.84L144.687 425.574Z" fill="#108F62"/>
<path d="M152.564 423.464L150.078 414.185L153.947 413.148C154.642 412.962 155.25 412.904 155.771 412.975C156.294 413.045 156.722 413.225 157.052 413.515C157.385 413.805 157.614 414.182 157.739 414.647C157.833 415.001 157.844 415.336 157.77 415.654C157.696 415.968 157.553 416.251 157.342 416.502C157.131 416.753 156.864 416.96 156.542 417.124L156.567 417.215C156.946 417.132 157.319 417.141 157.686 417.24C158.055 417.339 158.381 417.527 158.662 417.804C158.943 418.078 159.143 418.439 159.263 418.886C159.397 419.385 159.389 419.864 159.241 420.325C159.091 420.783 158.807 421.189 158.387 421.544C157.967 421.896 157.414 422.164 156.728 422.348L152.564 423.464ZM154.323 421.055L155.709 420.684C156.196 420.553 156.529 420.365 156.709 420.119C156.892 419.873 156.94 419.585 156.851 419.256C156.787 419.017 156.677 418.827 156.519 418.684C156.36 418.539 156.165 418.447 155.935 418.409C155.704 418.367 155.445 418.385 155.158 418.462L153.73 418.844L154.323 421.055ZM153.343 417.399L154.585 417.066C154.829 417 155.036 416.901 155.204 416.769C155.373 416.636 155.489 416.479 155.553 416.297C155.621 416.113 155.626 415.913 155.567 415.695C155.484 415.384 155.308 415.169 155.04 415.05C154.772 414.931 154.45 414.922 154.076 415.022L152.798 415.364L153.343 417.399Z" fill="#108F62"/>
<path d="M164.581 420.38C163.874 420.569 163.215 420.617 162.603 420.521C161.994 420.422 161.475 420.201 161.046 419.856C160.617 419.511 160.324 419.06 160.168 418.503L162.425 417.898C162.488 418.098 162.601 418.261 162.764 418.385C162.926 418.507 163.123 418.584 163.355 418.615C163.587 418.647 163.836 418.627 164.102 418.556C164.367 418.485 164.589 418.375 164.766 418.228C164.946 418.076 165.071 417.901 165.141 417.705C165.21 417.505 165.214 417.296 165.153 417.08C165.098 416.861 164.984 416.685 164.812 416.55C164.64 416.414 164.425 416.331 164.167 416.3C163.913 416.268 163.628 416.294 163.314 416.378L162.412 416.62L161.985 415.025L162.887 414.783C163.161 414.71 163.391 414.6 163.575 414.453C163.762 414.306 163.893 414.135 163.967 413.94C164.04 413.742 164.047 413.537 163.986 413.323C163.933 413.114 163.835 412.944 163.69 412.815C163.547 412.682 163.374 412.595 163.169 412.556C162.967 412.516 162.749 412.528 162.513 412.591C162.265 412.658 162.052 412.762 161.873 412.903C161.697 413.044 161.572 413.211 161.497 413.402C161.422 413.594 161.41 413.796 161.46 414.01L159.317 414.584C159.175 414.029 159.199 413.502 159.389 413.001C159.577 412.497 159.899 412.056 160.355 411.679C160.814 411.3 161.377 411.021 162.044 410.842C162.709 410.664 163.325 410.624 163.891 410.721C164.458 410.819 164.936 411.031 165.324 411.357C165.712 411.681 165.973 412.094 166.109 412.599C166.252 413.121 166.196 413.597 165.943 414.027C165.692 414.457 165.308 414.783 164.792 415.006L164.811 415.078C165.553 414.97 166.157 415.058 166.625 415.34C167.095 415.622 167.405 416.049 167.555 416.621C167.699 417.158 167.669 417.678 167.463 418.18C167.26 418.678 166.909 419.121 166.411 419.511C165.916 419.896 165.305 420.186 164.581 420.38Z" fill="#108F62"/>
</g>
<circle cx="432.668" cy="186.952" r="65.5" transform="rotate(-15 432.668 186.952)" fill="#FBDBC0" stroke="white" stroke-width="8"/>
<g clip-path="url(#clip3_3524_23670)">
<path d="M433.169 159.69L433.076 159.34C431.987 155.278 427.814 152.868 423.822 153.938C419.831 155.007 417.421 159.181 418.491 163.173L418.584 163.523C419.654 167.514 423.827 169.924 427.819 168.855C431.811 167.785 434.239 163.682 433.169 159.69ZM421.405 162.842L421.311 162.492C420.654 160.041 422.141 157.466 424.592 156.809C427.043 156.153 429.618 157.639 430.275 160.09L430.368 160.44C431.025 162.891 429.538 165.466 427.087 166.123C424.618 166.71 422.062 165.294 421.405 162.842Z" fill="#F3882B"/>
<path d="M417.421 177.946L423.125 199.235C423.257 199.725 423.668 200.14 424.163 200.308L428.19 201.33L432.844 218.698C433.05 219.468 433.849 219.93 434.62 219.723L447.225 216.345C447.996 216.139 448.457 215.34 448.251 214.569L443.559 197.063L446.535 194.164C446.88 193.771 447.048 193.276 446.898 192.716L441.231 171.567C441.024 170.797 440.225 170.335 439.455 170.542L418.447 176.172C417.676 176.378 417.214 177.175 417.421 177.946ZM420.597 178.596L438.945 173.68L444.049 192.727L441.072 195.626C440.728 196.019 440.56 196.514 440.71 197.074L445.213 213.881L435.34 216.527L430.836 199.72C430.705 199.23 430.293 198.815 429.798 198.647L425.771 197.624L420.668 178.577L420.597 178.596Z" fill="#F3882B"/>
<path d="M451.163 156.52L451.069 156.17C449.999 152.179 445.826 149.769 441.834 150.838C437.843 151.908 435.433 156.081 436.502 160.073L436.596 160.423C437.666 164.415 441.839 166.825 445.831 165.755C449.893 164.667 452.232 160.512 451.163 156.52ZM439.468 159.654L439.374 159.304C438.718 156.853 440.204 154.278 442.655 153.621C445.106 152.964 447.681 154.451 448.338 156.902L448.432 157.252C449.088 159.703 447.602 162.278 445.151 162.935C442.63 163.611 440.125 162.105 439.468 159.654Z" fill="#25245C"/>
<path d="M462.679 186.909L457.819 168.771C457.612 168 456.814 167.539 456.043 167.746L445.819 170.485L446.569 173.286L455.393 170.922L459.653 186.818L456.676 189.717C456.331 190.11 456.164 190.605 456.314 191.165L460.198 205.661L452.075 207.838L452.825 210.639L462.349 208.087C463.119 207.88 463.581 207.081 463.374 206.311L459.321 191.185L462.297 188.285C462.661 187.963 462.81 187.399 462.679 186.909Z" fill="#25245C"/>
<path d="M406.678 160.259C402.686 161.328 400.276 165.501 401.346 169.493L401.44 169.843C402.509 173.835 406.683 176.245 410.675 175.175C414.666 174.106 417.076 169.932 416.006 165.94L415.913 165.59C414.754 161.547 410.669 159.189 406.678 160.259ZM413.135 166.709C413.792 169.16 412.305 171.735 409.854 172.392C407.403 173.048 404.828 171.562 404.171 169.111L404.077 168.761C403.421 166.31 404.907 163.735 407.358 163.078C409.809 162.421 412.384 163.908 413.041 166.359L413.135 166.709Z" fill="#25245C"/>
<path d="M407.676 202.924L411.703 203.947L415.737 219.003C415.944 219.773 416.743 220.235 417.513 220.028L427.037 217.476L426.286 214.676L418.233 216.833L414.349 202.337C414.217 201.847 413.806 201.432 413.311 201.264L409.284 200.241L405.043 184.415L413.867 182.051L413.116 179.25L402.822 182.008C402.051 182.214 401.59 183.014 401.796 183.784L406.656 201.922C406.788 202.412 407.199 202.826 407.676 202.924Z" fill="#25245C"/>
</g>
<circle cx="298.209" cy="247.309" r="45" transform="rotate(-15 298.209 247.309)" fill="#FCF0C8" stroke="white" stroke-width="8"/>
<g clip-path="url(#clip4_3524_23670)">
<path fill-rule="evenodd" clip-rule="evenodd" d="M285.833 229.92C293.492 227.868 301.194 233.39 301.615 241.4C308.763 237.74 317.402 241.666 319.455 249.326C321.246 256.012 317.267 262.908 310.584 264.699C302.904 266.757 295.22 261.203 294.805 253.22C287.655 256.876 279.016 252.955 276.963 245.293C275.171 238.607 279.151 231.71 285.833 229.92ZM304.696 242.721C299.266 244.176 296.033 249.779 297.489 255.212C298.945 260.645 304.546 263.881 309.975 262.426C315.405 260.971 318.638 255.368 317.182 249.935C315.726 244.503 310.125 241.267 304.696 242.721ZM279.236 244.684C277.78 239.251 281.013 233.647 286.442 232.193C293.278 230.361 299.893 235.928 299.236 242.987C297.011 244.874 295.502 247.494 294.985 250.366C289.209 254.473 281.071 251.534 279.236 244.684Z" fill="#25245C"/>
<path fill-rule="evenodd" clip-rule="evenodd" d="M311.008 232.014C309.856 227.962 305.969 225.919 302.281 226.907C301.654 227.075 301.281 227.72 301.449 228.348C301.618 228.975 302.263 229.348 302.89 229.18L303.174 229.113C305.35 228.675 307.969 229.761 308.769 232.747L309.056 233.817L307.733 233.053C307.175 232.747 306.471 232.943 306.151 233.497C305.826 234.06 306.019 234.779 306.581 235.104L310.364 237.289C310.918 237.592 311.625 237.402 311.947 236.845L314.116 233.085L314.196 232.918C314.4 232.387 314.193 231.772 313.685 231.478C313.122 231.154 312.403 231.347 312.078 231.909L311.329 233.208L311.008 232.014ZM289.834 259.515L286.052 257.33C285.497 257.027 284.789 257.218 284.469 257.775L282.299 261.534L282.219 261.702C282.015 262.232 282.222 262.848 282.73 263.141C283.293 263.466 284.013 263.273 284.337 262.71L285.086 261.412L285.407 262.605C286.559 266.658 290.446 268.701 294.134 267.712C294.761 267.544 295.134 266.899 294.966 266.272C294.798 265.644 294.152 265.272 293.525 265.44L293.242 265.506C291.065 265.945 288.446 264.858 287.646 261.873L287.359 260.803L288.682 261.566C289.241 261.872 289.944 261.677 290.264 261.122C290.589 260.56 290.397 259.84 289.834 259.515Z" fill="#F5C320"/>
</g>
</g>
<defs>
<filter id="filter0_d_3524_23670" x="100.261" y="161.943" width="638.363" height="586.038" filterUnits="userSpaceOnUse" color-interpolation-filters="sRGB">
<feFlood flood-opacity="0" result="BackgroundImageFix"/>
<feColorMatrix in="SourceAlpha" type="matrix" values="0 0 0 0 0 0 0 0 0 0 0 0 0 0 0 0 0 0 127 0" result="hardAlpha"/>
<feOffset dy="16"/>
<feGaussianBlur stdDeviation="12"/>
<feComposite in2="hardAlpha" operator="out"/>
<feColorMatrix type="matrix" values="0 0 0 0 0 0 0 0 0 0 0 0 0 0 0 0 0 0 0.05 0"/>
<feBlend mode="normal" in2="BackgroundImageFix" result="effect1_dropShadow_3524_23670"/>
<feBlend mode="normal" in="SourceGraphic" in2="effect1_dropShadow_3524_23670" result="shape"/>
</filter>
<clipPath id="clip0_3524_23670">
<rect width="536" height="834" fill="white"/>
</clipPath>
<clipPath id="clip1_3524_23670">
<rect width="68" height="32.5833" fill="white" transform="translate(157.517 626.347) rotate(-15)"/>
</clipPath>
<clipPath id="clip2_3524_23670">
<rect width="60" height="60" fill="white" transform="translate(111.422 398.298) rotate(-15)"/>
</clipPath>
<clipPath id="clip3_3524_23670">
<rect width="58" height="68.3571" fill="white" transform="translate(395.811 161.444) rotate(-15)"/>
</clipPath>
<clipPath id="clip4_3524_23670">
<rect width="40" height="40" fill="white" transform="translate(273.714 233.167) rotate(-15)"/>
</clipPath>
</defs>
</svg>
