<svg width="536" height="834" viewBox="0 0 536 834" fill="none" xmlns="http://www.w3.org/2000/svg">
<g clip-path="url(#clip0_4450_24163)">
<rect width="536" height="834" fill="white"/>
<rect width="536" height="834" fill="#E2EDFE"/>
<path opacity="0.05" d="M37.0928 437.449C38.1369 341.963 119.234 249.611 236.967 219.012C367.699 185.034 495.97 239.58 530.835 341.477C536.314 351.977 540.644 363.128 543.69 374.871C571.571 482.363 481.331 598.831 342.133 635.009C202.934 671.187 67.49 613.376 39.6089 505.884C33.7232 483.192 33.1014 460.101 37.0928 437.449Z" fill="#0066FF"/>
<path opacity="0.05" d="M132.025 408.511C144.214 349.445 205.602 302.042 282.213 297.366C367.283 292.175 440.129 341.56 449.404 408.959C451.527 416.133 452.861 423.572 453.328 431.222C457.601 501.241 387.636 562.485 297.056 568.012C206.477 573.54 129.584 521.259 125.311 451.24C124.409 436.458 126.815 422.068 132.025 408.511Z" fill="#0066FF"/>
<path d="M407.965 489.346C417.634 504.182 439.049 546.239 447.354 595.778" stroke="#0066FF" stroke-width="3" stroke-dasharray="9 9"/>
<g filter="url(#filter0_d_4450_24163)">
<circle cx="297.972" cy="432.373" r="104" transform="rotate(-15 297.972 432.373)" fill="white"/>
</g>
<mask id="path-7-outside-1_4450_24163" maskUnits="userSpaceOnUse" x="235.683" y="378.924" width="124.06" height="104.968" fill="black">
<rect fill="white" x="235.683" y="378.924" width="124.06" height="104.968"/>
<path d="M275.051 472.679L310.686 392.007L320.345 389.419L284.807 470.065L275.051 472.679ZM269.439 438.983C264.996 440.174 261.135 440.449 257.858 439.809C254.645 439.151 251.976 437.692 249.852 435.432C247.793 433.154 246.305 430.308 245.391 426.895C244.442 423.354 244.299 420.114 244.961 417.176C245.67 414.156 247.251 411.558 249.705 409.382C252.223 407.189 255.704 405.497 260.147 404.307C264.591 403.116 268.419 402.849 271.632 403.507C274.845 404.164 277.513 405.623 279.637 407.884C281.744 410.08 283.272 412.949 284.221 416.491C285.136 419.904 285.238 423.12 284.529 426.14C283.82 429.16 282.238 431.758 279.785 433.934C277.331 436.11 273.882 437.793 269.439 438.983ZM267.524 431.835C270.872 430.938 272.949 429.416 273.754 427.267C274.541 425.055 274.573 422.596 273.848 419.892L273.486 418.539C272.985 416.672 272.255 415.107 271.296 413.846C270.401 412.567 269.207 411.714 267.712 411.287C266.199 410.795 264.316 410.851 262.063 411.454C258.65 412.369 256.541 413.9 255.736 416.048C254.931 418.197 254.891 420.623 255.616 423.328L255.978 424.68C256.703 427.384 257.959 429.498 259.748 431.02C261.519 432.478 264.111 432.75 267.524 431.835ZM335.153 457.817C330.709 459.008 326.849 459.283 323.572 458.643C320.359 457.985 317.699 456.558 315.592 454.362C313.532 452.084 312.036 449.207 311.105 445.729C310.156 442.188 310.012 438.948 310.674 436.009C311.401 433.054 313.023 430.48 315.541 428.287C318.042 426.029 321.482 424.314 325.861 423.14C330.369 421.933 334.238 421.69 337.468 422.411C340.681 423.069 343.309 424.504 345.351 426.718C347.458 428.914 348.986 431.783 349.935 435.325C350.867 438.802 350.978 442.051 350.269 445.07C349.607 448.009 348.016 450.574 345.498 452.767C343.044 454.943 339.596 456.627 335.153 457.817ZM333.237 450.669C336.586 449.772 338.663 448.249 339.467 446.101C340.319 443.871 340.383 441.404 339.658 438.7L339.296 437.347C338.813 435.544 338.092 434.012 337.132 432.751C336.156 431.425 334.92 430.548 333.425 430.12C331.913 429.628 330.03 429.684 327.776 430.288C324.428 431.185 322.319 432.717 321.45 434.882C320.645 437.03 320.605 439.457 321.33 442.161L321.692 443.514C322.417 446.218 323.673 448.332 325.461 449.854C327.297 451.295 329.889 451.566 333.237 450.669Z"/>
</mask>
<path d="M275.051 472.679L271.392 471.063C270.77 472.471 271.012 474.112 272.013 475.281C273.015 476.451 274.599 476.941 276.087 476.543L275.051 472.679ZM310.686 392.007L309.651 388.143C308.481 388.457 307.516 389.283 307.027 390.391L310.686 392.007ZM320.345 389.419L324.006 391.032C324.626 389.623 324.384 387.984 323.382 386.815C322.38 385.647 320.797 385.157 319.31 385.555L320.345 389.419ZM284.807 470.065L285.842 473.929C287.013 473.615 287.979 472.787 288.467 471.678L284.807 470.065ZM257.858 439.809L257.056 443.728C257.068 443.73 257.079 443.732 257.091 443.735L257.858 439.809ZM249.852 435.432L246.885 438.114C246.903 438.133 246.92 438.152 246.937 438.171L249.852 435.432ZM244.961 417.176L241.067 416.261C241.064 416.273 241.061 416.285 241.059 416.296L244.961 417.176ZM249.705 409.382L247.078 406.366C247.069 406.374 247.06 406.381 247.051 406.389L249.705 409.382ZM279.637 407.884L276.722 410.623C276.732 410.633 276.741 410.643 276.751 410.653L279.637 407.884ZM284.529 426.14L288.423 427.055L288.423 427.055L284.529 426.14ZM279.785 433.934L277.131 430.941L277.131 430.941L279.785 433.934ZM273.754 427.267L277.499 428.671C277.507 428.65 277.515 428.629 277.522 428.609L273.754 427.267ZM271.296 413.846L268.019 416.139C268.049 416.183 268.08 416.225 268.112 416.267L271.296 413.846ZM267.712 411.287L266.474 415.09C266.52 415.105 266.565 415.119 266.612 415.132L267.712 411.287ZM259.748 431.02L257.155 434.066C257.172 434.08 257.188 434.094 257.205 434.108L259.748 431.02ZM323.572 458.643L322.77 462.561C322.781 462.564 322.793 462.566 322.805 462.568L323.572 458.643ZM315.592 454.362L312.625 457.045C312.651 457.074 312.678 457.103 312.705 457.131L315.592 454.362ZM310.674 436.009L306.79 435.055C306.784 435.08 306.778 435.105 306.772 435.13L310.674 436.009ZM315.541 428.287L318.168 431.303C318.186 431.287 318.204 431.272 318.222 431.256L315.541 428.287ZM337.468 422.411L336.595 426.315C336.619 426.32 336.642 426.325 336.666 426.33L337.468 422.411ZM345.351 426.718L342.411 429.43C342.429 429.449 342.447 429.468 342.465 429.487L345.351 426.718ZM350.269 445.07L346.375 444.156C346.372 444.168 346.369 444.179 346.366 444.191L350.269 445.07ZM345.498 452.767L342.871 449.751C342.862 449.759 342.853 449.767 342.844 449.775L345.498 452.767ZM339.467 446.101L335.731 444.674C335.728 444.682 335.725 444.69 335.722 444.698L339.467 446.101ZM337.132 432.751L333.912 435.123C333.924 435.139 333.936 435.155 333.948 435.172L337.132 432.751ZM333.425 430.12L332.188 433.924C332.233 433.939 332.279 433.953 332.325 433.966L333.425 430.12ZM321.45 434.882L317.738 433.392C317.726 433.421 317.715 433.45 317.704 433.479L321.45 434.882ZM325.461 449.854L322.869 452.9C322.909 452.934 322.95 452.968 322.992 453L325.461 449.854ZM278.71 474.295L314.345 393.623L307.027 390.391L271.392 471.063L278.71 474.295ZM311.721 395.871L321.381 393.283L319.31 385.555L309.651 388.143L311.721 395.871ZM316.685 387.806L281.147 468.452L288.467 471.678L324.006 391.032L316.685 387.806ZM283.772 466.201L274.016 468.815L276.087 476.543L285.842 473.929L283.772 466.201ZM268.404 435.12C264.339 436.209 261.123 436.371 258.625 435.883L257.091 443.735C261.148 444.527 265.652 444.139 270.474 442.847L268.404 435.12ZM258.66 435.89C256.207 435.388 254.292 434.316 252.767 432.693L246.937 438.171C249.66 441.069 253.083 442.915 257.056 443.728L258.66 435.89ZM252.819 432.749C251.245 431.008 250.03 428.753 249.255 425.86L241.527 427.931C242.581 431.864 244.34 435.3 246.885 438.114L252.819 432.749ZM249.255 425.86C248.437 422.81 248.371 420.238 248.863 418.055L241.059 416.296C240.226 419.99 240.447 423.898 241.527 427.931L249.255 425.86ZM248.855 418.09C249.364 415.922 250.486 414.036 252.359 412.375L247.051 406.389C244.017 409.08 241.976 412.39 241.067 416.261L248.855 418.09ZM252.332 412.399C254.252 410.727 257.118 409.259 261.183 408.17L259.112 400.443C254.29 401.735 250.195 403.651 247.078 406.366L252.332 412.399ZM261.183 408.17C265.253 407.08 268.42 406.933 270.83 407.426L272.434 399.588C268.418 398.766 263.928 399.152 259.112 400.443L261.183 408.17ZM270.83 407.426C273.283 407.928 275.197 409 276.722 410.623L282.552 405.145C279.829 402.247 276.407 400.401 272.434 399.588L270.83 407.426ZM276.751 410.653C278.304 412.273 279.547 414.503 280.358 417.526L288.085 415.456C286.997 411.396 285.184 407.888 282.524 405.115L276.751 410.653ZM280.358 417.526C281.125 420.391 281.174 422.933 280.635 425.225L288.423 427.055C289.303 423.308 289.146 419.417 288.085 415.456L280.358 417.526ZM280.635 425.225C280.126 427.394 279.004 429.28 277.131 430.941L282.438 436.926C285.473 434.236 287.514 430.926 288.423 427.055L280.635 425.225ZM277.131 430.941C275.29 432.573 272.474 434.029 268.404 435.12L270.474 442.847C275.291 441.556 279.372 439.646 282.438 436.926L277.131 430.941ZM268.559 435.699C272.49 434.646 276.044 432.554 277.499 428.671L270.008 425.864C269.853 426.277 269.254 427.231 266.488 427.972L268.559 435.699ZM277.522 428.609C278.63 425.495 278.605 422.191 277.712 418.856L269.984 420.927C270.54 423.002 270.452 424.615 269.985 425.926L277.522 428.609ZM277.712 418.856L277.349 417.504L269.622 419.575L269.984 420.927L277.712 418.856ZM277.349 417.504C276.743 415.242 275.815 413.18 274.48 411.425L268.112 416.267C268.696 417.035 269.227 418.101 269.622 419.575L277.349 417.504ZM274.574 411.553C273.155 409.525 271.193 408.122 268.812 407.441L266.612 415.132C267.221 415.307 267.648 415.61 268.019 416.139L274.574 411.553ZM268.949 407.483C266.433 406.664 263.699 406.875 261.027 407.591L263.098 415.318C264.934 414.826 265.966 414.925 266.474 415.09L268.949 407.483ZM261.027 407.591C257.064 408.653 253.453 410.741 251.99 414.645L259.482 417.452C259.629 417.06 260.236 416.085 263.098 415.318L261.027 407.591ZM251.99 414.645C250.834 417.733 250.86 421.034 251.752 424.363L259.48 422.292C258.922 420.212 259.029 418.661 259.482 417.452L251.99 414.645ZM251.752 424.363L252.115 425.715L259.842 423.645L259.48 422.292L251.752 424.363ZM252.115 425.715C253.008 429.049 254.638 431.923 257.155 434.066L262.341 427.974C261.281 427.072 260.398 425.719 259.842 423.645L252.115 425.715ZM257.205 434.108C260.424 436.758 264.595 436.761 268.559 435.699L266.488 427.972C263.626 428.739 262.613 428.198 262.29 427.932L257.205 434.108ZM334.117 453.953C330.053 455.043 326.837 455.205 324.339 454.717L322.805 462.568C326.861 463.361 331.366 462.973 336.188 461.681L334.117 453.953ZM324.374 454.724C321.891 454.216 319.979 453.157 318.478 451.593L312.705 457.131C315.419 459.959 318.826 461.754 322.77 462.561L324.374 454.724ZM318.559 451.679C316.992 449.946 315.764 447.664 314.968 444.694L307.241 446.765C308.309 450.749 310.072 454.222 312.625 457.045L318.559 451.679ZM314.968 444.694C314.151 441.643 314.085 439.072 314.576 436.889L306.772 435.13C305.94 438.823 306.16 442.732 307.241 446.765L314.968 444.694ZM314.559 436.964C315.069 434.887 316.208 433.01 318.168 431.303L312.914 425.27C309.838 427.949 307.732 431.221 306.79 435.055L314.559 436.964ZM318.222 431.256C320.119 429.543 322.927 428.068 326.896 427.004L324.826 419.277C320.037 420.56 315.966 422.515 312.861 425.317L318.222 431.256ZM326.896 427.004C331.021 425.899 334.2 425.78 336.595 426.315L338.34 418.508C334.276 417.599 329.717 417.966 324.826 419.277L326.896 427.004ZM336.666 426.33C339.134 426.835 340.988 427.888 342.411 429.43L348.291 424.005C345.629 421.12 342.227 419.302 338.27 418.493L336.666 426.33ZM342.465 429.487C344.018 431.106 345.261 433.337 346.071 436.36L353.799 434.289C352.711 430.229 350.898 426.722 348.238 423.949L342.465 429.487ZM346.071 436.36C346.86 439.303 346.91 441.875 346.375 444.156L354.163 445.985C355.045 442.226 354.874 438.301 353.799 434.289L346.071 436.36ZM346.366 444.191C345.912 446.209 344.821 448.053 342.871 449.751L348.125 455.784C351.212 453.096 353.301 449.808 354.171 445.95L346.366 444.191ZM342.844 449.775C341.004 451.407 338.188 452.863 334.117 453.953L336.188 461.681C341.004 460.39 345.085 458.48 348.152 455.76L342.844 449.775ZM334.273 454.533C338.204 453.48 341.758 451.388 343.213 447.504L335.722 444.698C335.567 445.11 334.968 446.064 332.202 446.806L334.273 454.533ZM343.204 447.529C344.406 444.382 344.426 441.037 343.522 437.664L335.794 439.735C336.34 441.771 336.232 443.361 335.731 444.674L343.204 447.529ZM343.522 437.664L343.16 436.312L335.432 438.383L335.794 439.735L343.522 437.664ZM343.16 436.312C342.566 434.095 341.641 432.071 340.316 430.329L333.948 435.172C334.542 435.953 335.06 436.993 335.432 438.383L343.16 436.312ZM340.353 430.379C338.885 428.385 336.923 426.96 334.525 426.275L332.325 433.966C332.918 434.136 333.427 434.464 333.912 435.123L340.353 430.379ZM334.663 426.317C332.146 425.498 329.413 425.709 326.741 426.425L328.812 434.152C330.648 433.66 331.68 433.759 332.188 433.924L334.663 426.317ZM326.741 426.425C322.791 427.483 319.271 429.573 317.738 433.392L325.162 436.372C325.367 435.861 326.065 434.888 328.812 434.152L326.741 426.425ZM317.704 433.479C316.547 436.566 316.574 439.867 317.466 443.197L325.193 441.126C324.636 439.046 324.743 437.494 325.196 436.285L317.704 433.479ZM317.466 443.197L317.828 444.549L325.556 442.478L325.193 441.126L317.466 443.197ZM317.828 444.549C318.722 447.883 320.352 450.757 322.869 452.9L328.054 446.808C326.995 445.906 326.112 444.553 325.556 442.478L317.828 444.549ZM322.992 453C326.229 455.542 330.323 455.591 334.273 454.533L332.202 446.806C329.455 447.542 328.365 447.048 327.931 446.708L322.992 453Z" fill="#25245C" mask="url(#path-7-outside-1_4450_24163)"/>
<circle cx="391.092" cy="461.849" r="29" transform="rotate(-15 391.092 461.849)" fill="#0066FF" stroke="white" stroke-width="20"/>
<path d="M398.725 461.357L393.422 470.542M393.422 470.542L384.236 465.239M393.422 470.542L388.763 453.156" stroke="white" stroke-width="1.5" stroke-linecap="round" stroke-linejoin="round"/>
<g filter="url(#filter1_d_4450_24163)">
<rect x="380.125" y="579.283" width="132" height="132" rx="66" fill="white"/>
</g>
<path fill-rule="evenodd" clip-rule="evenodd" d="M427.686 606.566L436.568 608.941V674.56C453.68 672.239 462.653 661.818 464.406 642.302L464.457 641.708L445.33 636.479V627.367L473.492 635.065L473.495 639.542L473.492 639.68C473.453 641.197 473.299 642.666 473.146 644.083C470.877 665.154 460.794 675.517 449.158 680.262C441.725 682.889 434.568 684.131 427.686 683.989V606.566ZM445.32 611.258L466.106 616.811V626.018L445.32 620.157V611.258Z" fill="url(#paint0_linear_4450_24163)"/>
<g filter="url(#filter2_d_4450_24163)">
<rect x="103.944" y="192.871" width="324.944" height="65" rx="12" transform="rotate(-15 103.944 192.871)" fill="white"/>
</g>
<rect x="170.112" y="204.129" width="229.12" height="9" rx="4.5" transform="rotate(-15 170.112 204.129)" fill="#F7F7F8"/>
<circle cx="143.136" cy="215.499" r="19" transform="rotate(-15 143.136 215.499)" fill="#E2EDFE"/>
<g clip-path="url(#clip1_4450_24163)">
<path d="M141.928 210.502C140.728 210.824 140.015 212.058 140.337 213.258C140.659 214.458 141.892 215.171 143.093 214.849C144.293 214.527 145.005 213.294 144.684 212.093C144.362 210.893 143.128 210.181 141.928 210.502Z" fill="#0066FF"/>
<path fill-rule="evenodd" clip-rule="evenodd" d="M131.106 210.684C130.838 209.684 131.432 208.656 132.432 208.388L149.094 203.923C150.095 203.655 151.123 204.249 151.391 205.249L153.914 214.667C154.182 215.667 153.589 216.695 152.588 216.963L135.926 221.428C134.926 221.696 133.898 221.102 133.63 220.102L131.106 210.684ZM138.888 213.646C138.352 211.646 139.539 209.59 141.54 209.053C143.54 208.517 145.597 209.705 146.133 211.705C146.669 213.706 145.481 215.762 143.481 216.298C141.48 216.834 139.424 215.647 138.888 213.646ZM148.836 210.204C148.436 210.311 148.199 210.723 148.306 211.123L148.308 211.13C148.415 211.53 148.826 211.768 149.226 211.66L149.234 211.658C149.634 211.551 149.871 211.14 149.764 210.74L149.762 210.733C149.655 210.333 149.244 210.095 148.843 210.202L148.836 210.204ZM135.266 214.617C135.159 214.217 135.396 213.805 135.796 213.698L135.803 213.696C136.204 213.589 136.615 213.827 136.722 214.227L136.724 214.234C136.831 214.634 136.594 215.045 136.194 215.152L136.186 215.154C135.786 215.262 135.375 215.024 135.268 214.624L135.266 214.617Z" fill="#0066FF"/>
<path d="M135.228 223.168C134.828 223.275 134.59 223.687 134.697 224.087C134.805 224.487 135.216 224.724 135.616 224.617C140.832 223.219 146.071 222.563 151.221 222.584C152.455 222.589 153.395 221.423 153.069 220.205L152.809 219.234C152.701 218.834 152.29 218.596 151.89 218.703L135.228 223.168Z" fill="#0066FF"/>
</g>
<g filter="url(#filter3_d_4450_24163)">
<rect x="79.6416" y="284.362" width="314.861" height="65" rx="12" transform="rotate(-15 79.6416 284.362)" fill="white"/>
</g>
<rect x="148.612" y="295.306" width="229.12" height="9" rx="4.5" transform="rotate(-15 148.612 295.306)" fill="#F7F7F8"/>
<circle cx="119.136" cy="306.499" r="19" transform="rotate(-15 119.136 306.499)" fill="#DFFAEF"/>
<g clip-path="url(#clip2_4450_24163)">
<path d="M126.237 298.237C126.934 300.838 123.607 303.989 118.806 305.276C114.004 306.562 109.547 305.497 108.851 302.896C108.154 300.295 111.481 297.144 116.282 295.858C121.083 294.571 125.54 295.637 126.237 298.237Z" fill="#14B27C"/>
<path d="M119.194 306.725C121.788 306.03 124.056 304.815 125.615 303.338C126.184 302.799 126.699 302.182 127.088 301.51C127.136 301.624 127.176 301.74 127.208 301.86C127.905 304.46 124.577 307.611 119.776 308.898C114.975 310.184 110.518 309.119 109.821 306.518C109.789 306.399 109.766 306.278 109.75 306.156C110.423 306.543 111.177 306.82 111.94 307.002C114.029 307.502 116.6 307.42 119.194 306.725Z" fill="#14B27C"/>
<path d="M120.164 310.347C122.758 309.652 125.026 308.437 126.585 306.961C127.155 306.421 127.669 305.804 128.059 305.133C128.106 305.246 128.146 305.362 128.178 305.482C128.875 308.082 125.548 311.234 120.747 312.52C115.946 313.807 111.489 312.741 110.792 310.141C110.76 310.021 110.736 309.9 110.721 309.778C111.394 310.165 112.148 310.442 112.911 310.625C114.999 311.124 117.571 311.042 120.164 310.347Z" fill="#14B27C"/>
<path d="M121.135 313.969C123.729 313.274 125.997 312.059 127.556 310.583C128.126 310.043 128.64 309.426 129.029 308.755C129.077 308.868 129.117 308.984 129.149 309.104C129.846 311.705 126.519 314.856 121.717 316.142C116.916 317.429 112.459 316.363 111.762 313.763C111.73 313.643 111.707 313.522 111.691 313.401C112.364 313.787 113.118 314.064 113.881 314.247C115.97 314.746 118.541 314.664 121.135 313.969Z" fill="#14B27C"/>
</g>
</g>
<defs>
<filter id="filter0_d_4450_24163" x="113.946" y="264.347" width="368.052" height="368.052" filterUnits="userSpaceOnUse" color-interpolation-filters="sRGB">
<feFlood flood-opacity="0" result="BackgroundImageFix"/>
<feColorMatrix in="SourceAlpha" type="matrix" values="0 0 0 0 0 0 0 0 0 0 0 0 0 0 0 0 0 0 127 0" result="hardAlpha"/>
<feOffset dy="16"/>
<feGaussianBlur stdDeviation="40"/>
<feComposite in2="hardAlpha" operator="out"/>
<feColorMatrix type="matrix" values="0 0 0 0 0.145098 0 0 0 0 0.141176 0 0 0 0 0.360784 0 0 0 0.08 0"/>
<feBlend mode="normal" in2="BackgroundImageFix" result="effect1_dropShadow_4450_24163"/>
<feBlend mode="normal" in="SourceGraphic" in2="effect1_dropShadow_4450_24163" result="shape"/>
</filter>
<filter id="filter1_d_4450_24163" x="300.125" y="515.283" width="292" height="292" filterUnits="userSpaceOnUse" color-interpolation-filters="sRGB">
<feFlood flood-opacity="0" result="BackgroundImageFix"/>
<feColorMatrix in="SourceAlpha" type="matrix" values="0 0 0 0 0 0 0 0 0 0 0 0 0 0 0 0 0 0 127 0" result="hardAlpha"/>
<feOffset dy="16"/>
<feGaussianBlur stdDeviation="40"/>
<feComposite in2="hardAlpha" operator="out"/>
<feColorMatrix type="matrix" values="0 0 0 0 0.145098 0 0 0 0 0.141176 0 0 0 0 0.360784 0 0 0 0.08 0"/>
<feBlend mode="normal" in2="BackgroundImageFix" result="effect1_dropShadow_4450_24163"/>
<feBlend mode="normal" in="SourceGraphic" in2="effect1_dropShadow_4450_24163" result="shape"/>
</filter>
<filter id="filter2_d_4450_24163" x="26.6387" y="47.4637" width="485.307" height="301.499" filterUnits="userSpaceOnUse" color-interpolation-filters="sRGB">
<feFlood flood-opacity="0" result="BackgroundImageFix"/>
<feColorMatrix in="SourceAlpha" type="matrix" values="0 0 0 0 0 0 0 0 0 0 0 0 0 0 0 0 0 0 127 0" result="hardAlpha"/>
<feOffset dy="16"/>
<feGaussianBlur stdDeviation="40"/>
<feComposite in2="hardAlpha" operator="out"/>
<feColorMatrix type="matrix" values="0 0 0 0 0.145098 0 0 0 0 0.141176 0 0 0 0 0.360784 0 0 0 0.08 0"/>
<feBlend mode="normal" in2="BackgroundImageFix" result="effect1_dropShadow_4450_24163"/>
<feBlend mode="normal" in="SourceGraphic" in2="effect1_dropShadow_4450_24163" result="shape"/>
</filter>
<filter id="filter3_d_4450_24163" x="2.33594" y="141.564" width="475.567" height="298.889" filterUnits="userSpaceOnUse" color-interpolation-filters="sRGB">
<feFlood flood-opacity="0" result="BackgroundImageFix"/>
<feColorMatrix in="SourceAlpha" type="matrix" values="0 0 0 0 0 0 0 0 0 0 0 0 0 0 0 0 0 0 127 0" result="hardAlpha"/>
<feOffset dy="16"/>
<feGaussianBlur stdDeviation="40"/>
<feComposite in2="hardAlpha" operator="out"/>
<feColorMatrix type="matrix" values="0 0 0 0 0.145098 0 0 0 0 0.141176 0 0 0 0 0.360784 0 0 0 0.08 0"/>
<feBlend mode="normal" in2="BackgroundImageFix" result="effect1_dropShadow_4450_24163"/>
<feBlend mode="normal" in="SourceGraphic" in2="effect1_dropShadow_4450_24163" result="shape"/>
</filter>
<linearGradient id="paint0_linear_4450_24163" x1="427.686" y1="606.566" x2="495.552" y2="646.716" gradientUnits="userSpaceOnUse">
<stop stop-color="#BAE1EB"/>
<stop offset="0.548203" stop-color="#6061E6"/>
<stop offset="1" stop-color="#006BFF"/>
</linearGradient>
<clipPath id="clip0_4450_24163">
<rect width="536" height="834" fill="white"/>
</clipPath>
<clipPath id="clip1_4450_24163">
<rect width="24" height="24" fill="white" transform="translate(128.396 206.364) rotate(-15)"/>
</clipPath>
<clipPath id="clip2_4450_24163">
<rect width="24" height="24" fill="white" transform="translate(104.303 297.515) rotate(-15)"/>
</clipPath>
</defs>
</svg>
