<svg width="578" height="834" viewBox="0 0 578 834" fill="none" xmlns="http://www.w3.org/2000/svg">
<rect width="536" height="834" fill="white"/>
<rect width="536" height="834" fill="#E2EDFE"/>
<path opacity="0.05" d="M506.134 326.134C535.807 436.876 448.997 556.356 312.239 593C175.481 629.645 37.9048 539.509 8.23148 428.767C-21.4418 318.025 153.946 252.028 290.704 215.383C400.366 213.539 487.56 274.952 506.134 326.134Z" fill="#0066FF"/>
<path opacity="0.05" d="M114.853 620.153C111.339 559.945 158.366 498.268 231.157 473.924C311.985 446.891 395.13 475.74 421.533 538.442C425.441 544.822 428.654 551.662 431.085 558.93C453.335 625.458 401.605 702.723 315.543 731.506C229.481 760.289 141.676 729.691 119.426 663.163C114.73 649.119 113.329 634.597 114.853 620.153Z" fill="#0066FF"/>
<rect x="131.422" y="210.44" width="412" height="195" rx="12" transform="rotate(-15 131.422 210.44)" fill="white"/>
<g clip-path="url(#clip0_3520_10841)">
<rect x="363.43" y="303.565" width="110" height="34" rx="8" transform="rotate(-15 363.43 303.565)" fill="#0066FF"/>
<path d="M394.337 317.025L392.206 309.073L396.425 307.943C396.866 307.824 397.274 307.802 397.65 307.875C398.023 307.941 398.342 308.096 398.606 308.34C398.878 308.581 399.067 308.899 399.173 309.294C399.253 309.595 399.269 309.885 399.219 310.163C399.177 310.439 399.079 310.689 398.923 310.913C398.776 311.135 398.59 311.321 398.365 311.473L398.378 311.519C398.68 311.504 398.966 311.552 399.236 311.662C399.511 311.762 399.751 311.93 399.955 312.165C400.164 312.39 400.318 312.689 400.418 313.06C400.552 313.562 400.551 314.005 400.414 314.39C400.285 314.772 400.059 315.09 399.737 315.341C399.413 315.586 399.02 315.77 398.556 315.894L394.337 317.025ZM395.337 315.564L398.154 314.809C398.509 314.714 398.774 314.544 398.948 314.298C399.128 314.043 399.161 313.703 399.048 313.278C398.979 313.023 398.871 312.82 398.723 312.669C398.581 312.508 398.4 312.408 398.182 312.367C397.962 312.318 397.705 312.333 397.412 312.412L394.688 313.141L395.337 315.564ZM394.396 312.052L397.015 311.35C397.263 311.284 397.463 311.18 397.616 311.04C397.769 310.9 397.869 310.732 397.916 310.537C397.971 310.34 397.97 310.138 397.914 309.929C397.813 309.55 397.634 309.3 397.378 309.178C397.127 309.047 396.836 309.025 396.503 309.114L393.803 309.838L394.396 312.052ZM404.263 314.514C403.676 314.671 403.159 314.644 402.713 314.432C402.265 314.213 401.94 313.724 401.737 312.967L400.622 308.806L401.827 308.483L402.892 312.459C402.954 312.69 403.033 312.876 403.129 313.016C403.232 313.154 403.35 313.255 403.483 313.319C403.616 313.383 403.761 313.414 403.919 313.414C404.076 313.413 404.243 313.389 404.421 313.341C404.699 313.267 404.933 313.134 405.121 312.942C405.316 312.741 405.451 312.502 405.526 312.225C405.599 311.941 405.592 311.64 405.508 311.323L404.551 307.753L405.756 307.43L407.39 313.527L406.405 313.791L406.068 312.95L405.986 312.971C405.9 313.235 405.776 313.467 405.614 313.667C405.452 313.868 405.258 314.04 405.032 314.184C404.813 314.325 404.557 314.435 404.263 314.514ZM410.502 312.842C410.154 312.935 409.862 312.943 409.626 312.866C409.396 312.778 409.21 312.642 409.069 312.456C408.934 312.26 408.834 312.043 408.77 311.803L407.742 307.966L406.977 308.171L406.71 307.174L407.498 306.963L407.262 305.2L408.224 304.943L408.681 306.647L409.782 306.351L410.049 307.348L408.948 307.643L409.938 311.341C409.986 311.519 410.061 311.644 410.163 311.716C410.265 311.788 410.405 311.8 410.583 311.752L411.185 311.591L411.403 312.402C411.334 312.454 411.245 312.507 411.135 312.561C411.035 312.621 410.929 312.674 410.817 312.72C410.708 312.775 410.603 312.815 410.502 312.842ZM414.034 311.896C413.686 311.989 413.394 311.997 413.158 311.919C412.928 311.832 412.742 311.695 412.601 311.51C412.466 311.314 412.366 311.096 412.302 310.857L411.274 307.02L410.509 307.225L410.242 306.228L411.03 306.017L410.794 304.254L411.756 303.996L412.212 305.7L413.313 305.405L413.58 306.402L412.479 306.697L413.47 310.395C413.518 310.572 413.593 310.697 413.695 310.769C413.797 310.841 413.937 310.853 414.114 310.806L414.717 310.644L414.935 311.456C414.866 311.507 414.776 311.56 414.667 311.614C414.567 311.674 414.461 311.728 414.349 311.774C414.239 311.828 414.134 311.869 414.034 311.896ZM418.643 310.661C418.01 310.83 417.443 310.862 416.942 310.756C416.447 310.64 416.025 310.377 415.674 309.965C415.332 309.552 415.063 308.982 414.868 308.256C414.672 307.522 414.619 306.894 414.712 306.372C414.809 305.841 415.045 305.405 415.417 305.065C415.796 304.715 416.302 304.455 416.935 304.286C417.584 304.112 418.156 304.083 418.651 304.198C419.144 304.307 419.562 304.567 419.904 304.981C420.253 305.384 420.525 305.953 420.722 306.687C420.917 307.414 420.965 308.043 420.867 308.574C420.777 309.103 420.547 309.542 420.176 309.89C419.803 310.23 419.293 310.487 418.643 310.661ZM418.376 309.664C418.763 309.56 419.06 309.402 419.268 309.189C419.474 308.968 419.593 308.688 419.626 308.348C419.667 308.005 419.624 307.598 419.498 307.127L419.442 306.918C419.316 306.447 419.149 306.073 418.943 305.797C418.744 305.519 418.502 305.34 418.215 305.26C417.926 305.171 417.589 305.179 417.202 305.282C416.824 305.384 416.531 305.545 416.326 305.766C416.118 305.979 415.993 306.257 415.952 306.599C415.919 306.939 415.966 307.345 416.092 307.816L416.148 308.025C416.274 308.496 416.437 308.871 416.636 309.149C416.842 309.425 417.09 309.607 417.378 309.695C417.665 309.776 417.998 309.765 418.376 309.664ZM422.767 309.407L421.134 303.31L422.131 303.043L422.468 303.884L422.549 303.862C422.636 303.599 422.76 303.367 422.922 303.166C423.083 302.965 423.273 302.794 423.492 302.653C423.719 302.509 423.979 302.398 424.272 302.32C424.659 302.216 425.018 302.194 425.348 302.255C425.677 302.308 425.963 302.463 426.206 302.721C426.457 302.977 426.651 303.359 426.787 303.869L427.902 308.031L426.697 308.354L425.632 304.378C425.569 304.146 425.487 303.961 425.384 303.823C425.288 303.683 425.174 303.581 425.041 303.518C424.908 303.454 424.763 303.422 424.605 303.423C424.448 303.424 424.281 303.448 424.103 303.495C423.825 303.57 423.589 303.708 423.394 303.909C423.205 304.101 423.073 304.335 422.998 304.611C422.923 304.888 422.929 305.189 423.016 305.514L423.973 309.084L422.767 309.407ZM433.345 306.721C432.997 306.815 432.705 306.822 432.469 306.745C432.239 306.658 432.053 306.521 431.912 306.335C431.777 306.139 431.677 305.922 431.613 305.682L430.585 301.846L429.82 302.051L429.553 301.054L430.341 300.843L430.105 299.08L431.067 298.822L431.523 300.526L432.624 300.231L432.891 301.228L431.79 301.523L432.781 305.22C432.829 305.398 432.904 305.523 433.006 305.595C433.108 305.667 433.248 305.679 433.425 305.631L434.028 305.47L434.246 306.281C434.177 306.333 434.087 306.386 433.978 306.44C433.878 306.5 433.772 306.553 433.66 306.6C433.55 306.654 433.445 306.695 433.345 306.721ZM437.885 305.505C437.259 305.673 436.703 305.701 436.218 305.591C435.739 305.471 435.328 305.204 434.985 304.791C434.643 304.378 434.374 303.808 434.179 303.081C433.983 302.347 433.93 301.719 434.022 301.198C434.113 300.669 434.34 300.235 434.705 299.897C435.068 299.551 435.566 299.293 436.2 299.124C436.779 298.968 437.292 298.951 437.739 299.072C438.191 299.182 438.577 299.435 438.898 299.829C439.219 300.224 439.471 300.761 439.653 301.441L439.777 301.904L435.5 303.05C435.632 303.479 435.795 303.825 435.989 304.087C436.182 304.342 436.413 304.508 436.682 304.585C436.957 304.652 437.275 304.637 437.639 304.54C437.863 304.48 438.056 304.399 438.22 304.297C438.381 304.188 438.509 304.062 438.603 303.921C438.696 303.772 438.756 303.611 438.784 303.438C438.811 303.257 438.797 303.066 438.743 302.865L439.925 302.548C440.022 302.911 440.047 303.249 439.997 303.56C439.948 303.871 439.83 304.156 439.642 304.413C439.46 304.661 439.22 304.878 438.922 305.065C438.625 305.253 438.279 305.399 437.885 305.505ZM435.287 302.163L438.278 301.362C438.197 301.061 438.095 300.819 437.972 300.637C437.854 300.445 437.716 300.299 437.557 300.201C437.398 300.103 437.226 300.049 437.042 300.041C436.855 300.025 436.654 300.046 436.438 300.104C436.113 300.19 435.85 300.323 435.65 300.501C435.457 300.677 435.331 300.905 435.274 301.186C435.214 301.458 435.219 301.784 435.287 302.163ZM441.056 304.506L442.397 300.793L439.55 298.375L441.01 297.984L442.902 299.663L442.971 299.645L443.781 297.241L445.16 296.872L443.883 300.357L446.91 302.938L445.461 303.326L443.378 301.486L443.32 301.502L442.435 304.137L441.056 304.506ZM449.384 302.424C449.037 302.517 448.745 302.525 448.509 302.447C448.278 302.36 448.093 302.223 447.952 302.037C447.816 301.842 447.717 301.624 447.652 301.385L446.624 297.548L445.859 297.753L445.592 296.756L446.381 296.545L446.144 294.782L447.106 294.524L447.563 296.228L448.664 295.933L448.931 296.93L447.83 297.225L448.821 300.922C448.868 301.1 448.943 301.225 449.045 301.297C449.147 301.369 449.287 301.381 449.465 301.334L450.068 301.172L450.285 301.984C450.216 302.035 450.127 302.088 450.017 302.142C449.917 302.202 449.811 302.255 449.7 302.302C449.59 302.356 449.485 302.397 449.384 302.424Z" fill="#0066FF"/>
</g>
<path d="M349.679 252.245L350.994 252.069C352.309 251.893 354.939 251.541 357.107 249.463C359.274 247.385 360.979 243.58 363.336 242.209C365.693 240.837 368.702 241.9 372.226 244.883C375.749 247.865 379.787 252.768 382.374 252.254C384.961 251.74 386.096 245.809 387.803 242.014C389.511 238.219 391.791 236.559 393.405 232.415C395.019 228.272 395.967 221.643 398.224 219.899C400.481 218.155 404.047 221.295 407.058 222.365C410.069 223.434 412.525 222.434 416.939 228.736C421.352 235.039 427.722 248.644 433.326 259.393C438.931 270.141 440.146 264.509 442.439 262.901C444.733 261.292 444.481 250.184 445.165 242.57C445.849 234.956 447.47 230.837 450.809 233.132C454.149 235.427 459.207 244.136 462.109 244.799C465.011 245.462 465.757 238.078 467.353 233.866C468.949 229.655 471.394 228.615 473.396 225.917C475.397 223.219 476.954 218.862 479.555 218.399C482.155 217.935 485.798 221.366 488.891 222.741C491.984 224.116 494.526 223.434 495.797 223.094L497.068 222.753" stroke="#14B27C" stroke-width="2" stroke-linecap="round" stroke-linejoin="round"/>
<circle cx="347.328" cy="197.105" r="12" transform="rotate(-15 347.328 197.105)" fill="#E7E9EE"/>
<rect x="363.281" y="179.372" width="72" height="12" rx="6" transform="rotate(-15 363.281 179.372)" fill="#E7E9EE"/>
<rect x="367.422" y="194.827" width="38" height="10" rx="5" transform="rotate(-15 367.422 194.827)" fill="#F7F7F8"/>
<rect x="143.669" y="217.511" width="175" height="175" rx="12" transform="rotate(-15 143.669 217.511)" fill="#DFFAEF"/>
<circle cx="176.358" cy="242.916" r="12" transform="rotate(-15 176.358 242.916)" fill="#ACF5DB"/>
<rect x="192.312" y="225.183" width="40.75" height="12" rx="6" transform="rotate(-15 192.312 225.183)" fill="#75EDC2"/>
<rect x="196.452" y="240.638" width="87.5" height="10" rx="5" transform="rotate(-15 196.452 240.638)" fill="#ACF5DB"/>
<g filter="url(#filter0_d_3520_10841)">
<rect x="34.9092" y="356.393" width="380" height="389" rx="20" transform="rotate(-15 34.9092 356.393)" fill="white"/>
</g>
<path d="M40.0856 375.711C37.2267 365.042 43.5584 354.075 54.2277 351.217L382.642 263.218C393.312 260.359 404.279 266.691 407.137 277.36L425.772 346.907L58.7205 445.258L40.0856 375.711Z" fill="#F7F7F8"/>
<rect x="158.522" y="354.079" width="140" height="16" rx="6" transform="rotate(-15 158.522 354.079)" fill="#E7E9EE"/>
<rect x="183.595" y="370.375" width="100" height="10" rx="5" transform="rotate(-15 183.595 370.375)" fill="#E7E9EE"/>
<g clip-path="url(#clip1_3520_10841)">
<rect x="58.583" y="653.385" width="380" height="60" rx="12" transform="rotate(-15 58.583 653.385)" fill="#0066FF"/>
<path d="M206.713 647.246C206.731 645.297 206.115 643.395 204.96 641.826C203.804 640.257 202.17 639.105 200.303 638.545C198.437 637.984 196.439 638.044 194.609 638.716C192.78 639.388 191.218 640.636 190.159 642.272C189.099 643.908 188.6 645.843 188.735 647.788C188.87 649.732 189.632 651.58 190.908 653.053C192.183 654.527 193.903 655.547 195.807 655.96C197.712 656.372 199.699 656.156 201.47 655.342L200.719 653.706C199.302 654.357 197.712 654.531 196.188 654.2C194.665 653.87 193.289 653.054 192.269 651.875C191.249 650.697 190.639 649.218 190.53 647.663C190.422 646.107 190.822 644.559 191.67 643.25C192.517 641.941 193.767 640.943 195.23 640.406C196.694 639.868 198.292 639.82 199.785 640.268C201.278 640.717 202.586 641.638 203.51 642.894C204.435 644.149 204.927 645.671 204.913 647.23L206.713 647.246Z" fill="white"/>
<path d="M223.442 645.446L220.601 634.844L222.332 634.381L223.52 638.816L228.899 637.375L227.71 632.939L229.441 632.476L232.282 643.078L230.551 643.541L229.296 638.859L223.918 640.3L225.173 644.983L223.442 645.446ZM237.994 641.746C237.159 641.97 236.419 642.008 235.772 641.861C235.133 641.701 234.585 641.345 234.128 640.794C233.671 640.243 233.313 639.483 233.053 638.515C232.791 637.536 232.721 636.699 232.844 636.003C232.964 635.297 233.268 634.719 233.754 634.268C234.238 633.807 234.902 633.464 235.747 633.237C236.52 633.03 237.204 633.007 237.799 633.168C238.402 633.316 238.917 633.652 239.345 634.178C239.773 634.704 240.109 635.42 240.352 636.327L240.517 636.945L234.815 638.473C234.99 639.045 235.207 639.505 235.467 639.856C235.723 640.195 236.031 640.417 236.39 640.519C236.756 640.609 237.181 640.589 237.666 640.459C237.964 640.379 238.223 640.271 238.44 640.135C238.655 639.99 238.826 639.822 238.952 639.634C239.075 639.435 239.156 639.22 239.193 638.99C239.228 638.748 239.21 638.494 239.138 638.226L240.714 637.803C240.844 638.288 240.876 638.737 240.811 639.152C240.745 639.568 240.587 639.947 240.337 640.29C240.094 640.62 239.774 640.91 239.377 641.16C238.981 641.41 238.519 641.605 237.994 641.746ZM234.531 637.29L238.518 636.222C238.41 635.82 238.274 635.498 238.11 635.255C237.953 634.999 237.768 634.805 237.557 634.674C237.345 634.543 237.116 634.472 236.87 634.461C236.621 634.439 236.353 634.467 236.064 634.544C235.631 634.66 235.281 634.837 235.014 635.074C234.756 635.309 234.589 635.613 234.513 635.987C234.433 636.35 234.439 636.785 234.531 637.29ZM246.18 639.552C245.614 639.704 245.098 639.776 244.632 639.769C244.166 639.761 243.76 639.687 243.413 639.548C243.067 639.409 242.776 639.211 242.542 638.954C242.315 638.683 242.151 638.363 242.052 637.992C242.038 637.94 242.026 637.894 242.015 637.853C242.014 637.809 242.009 637.771 242.001 637.74L243.593 637.314C243.601 637.345 243.61 637.376 243.618 637.406C243.623 637.427 243.63 637.453 243.638 637.484C243.724 637.803 243.881 638.037 244.108 638.186C244.333 638.325 244.601 638.396 244.911 638.402C245.23 638.394 245.564 638.343 245.914 638.249C246.223 638.166 246.497 638.054 246.735 637.913C246.981 637.759 247.165 637.582 247.289 637.384C247.423 637.182 247.458 636.963 247.394 636.726C247.311 636.417 247.14 636.209 246.879 636.102C246.619 635.995 246.301 635.942 245.926 635.943C245.548 635.934 245.153 635.924 244.741 635.913C244.377 635.911 244.01 635.904 243.643 635.892C243.283 635.867 242.945 635.803 242.63 635.7C242.316 635.596 242.04 635.433 241.803 635.209C241.567 634.986 241.394 634.673 241.287 634.271C241.185 633.89 241.177 633.533 241.265 633.2C241.352 632.867 241.514 632.565 241.75 632.292C241.997 632.016 242.307 631.772 242.681 631.562C243.066 631.348 243.5 631.177 243.984 631.047C244.489 630.912 244.953 630.848 245.374 630.857C245.794 630.855 246.163 630.916 246.484 631.04C246.814 631.161 247.089 631.341 247.308 631.581C247.524 631.81 247.673 632.079 247.756 632.388C247.773 632.45 247.785 632.519 247.794 632.593C247.811 632.655 247.822 632.696 247.828 632.717L246.251 633.139L246.214 633C246.159 632.794 246.052 632.624 245.895 632.49C245.737 632.355 245.521 632.269 245.246 632.233C244.982 632.193 244.648 632.227 244.247 632.335C243.979 632.407 243.749 632.496 243.556 632.603C243.361 632.699 243.208 632.806 243.096 632.925C242.984 633.043 242.907 633.169 242.866 633.301C242.834 633.431 242.838 633.568 242.876 633.712C242.94 633.949 243.072 634.113 243.273 634.203C243.481 634.279 243.737 634.327 244.04 634.345C244.34 634.353 244.664 634.365 245.011 634.383C245.409 634.387 245.814 634.394 246.226 634.405C246.635 634.406 247.021 634.446 247.384 634.525C247.758 634.602 248.082 634.758 248.355 634.994C248.638 635.227 248.845 635.586 248.975 636.07C249.093 636.514 249.109 636.923 249.022 637.3C248.936 637.677 248.76 638.011 248.496 638.302C248.239 638.581 247.912 638.823 247.515 639.029C247.12 639.245 246.675 639.42 246.18 639.552ZM253.342 637.633C253.085 637.702 252.798 637.746 252.483 637.764C252.168 637.782 251.854 637.745 251.542 637.652C251.24 637.556 250.968 637.386 250.726 637.142C250.481 636.887 250.295 636.523 250.168 636.049C250.019 635.492 250.025 634.999 250.186 634.57C250.347 634.14 250.632 633.76 251.04 633.43C251.449 633.1 251.961 632.808 252.578 632.554C253.205 632.298 253.9 632.067 254.662 631.863L254.447 631.059C254.375 630.792 254.265 630.567 254.117 630.386C253.979 630.202 253.777 630.085 253.51 630.035C253.253 629.982 252.908 630.014 252.475 630.13C252.042 630.246 251.717 630.394 251.5 630.573C251.291 630.74 251.157 630.919 251.098 631.112C251.047 631.291 251.046 631.474 251.096 631.659L251.158 631.891L249.612 632.305C249.588 632.256 249.569 632.206 249.555 632.155C249.542 632.103 249.525 632.041 249.506 631.969C249.376 631.485 249.401 631.042 249.58 630.641C249.768 630.226 250.085 629.865 250.533 629.557C250.98 629.25 251.529 629.009 252.178 628.835C252.878 628.647 253.488 628.594 254.007 628.676C254.533 628.745 254.965 628.933 255.301 629.24C255.637 629.548 255.876 629.964 256.017 630.49L257.122 634.616C257.175 634.812 257.258 634.939 257.373 634.996C257.498 635.051 257.628 635.06 257.762 635.025L258.318 634.875L258.608 635.957C258.498 636.042 258.358 636.135 258.186 636.236C258.014 636.337 257.805 636.421 257.557 636.487C257.279 636.562 257.029 636.574 256.805 636.523C256.595 636.48 256.404 636.388 256.234 636.246C256.071 636.091 255.938 635.905 255.836 635.69L255.744 635.714C255.622 636.001 255.452 636.273 255.233 636.53C255.023 636.774 254.76 636.988 254.445 637.172C254.132 637.366 253.765 637.52 253.342 637.633ZM253.435 636.184C253.754 636.098 254.035 635.973 254.278 635.809C254.529 635.631 254.728 635.429 254.877 635.201C255.023 634.963 255.12 634.705 255.167 634.428C255.211 634.14 255.193 633.846 255.113 633.548L254.968 633.007C254.258 633.197 253.645 633.405 253.132 633.631C252.618 633.857 252.242 634.124 252.004 634.431C251.763 634.727 251.695 635.071 251.8 635.462C251.864 635.699 251.969 635.887 252.116 636.024C252.261 636.151 252.447 636.228 252.675 636.255C252.903 636.282 253.156 636.259 253.435 636.184ZM260.451 638.395L257.556 627.593L258.87 627.241L259.307 628.316L259.415 628.287C259.578 627.78 259.846 627.36 260.221 627.028C260.596 626.695 261.051 626.457 261.587 626.314C262.256 626.134 262.868 626.131 263.422 626.302C263.986 626.471 264.482 626.836 264.908 627.395C265.334 627.955 265.68 628.734 265.948 629.733C266.208 630.702 266.288 631.536 266.188 632.237C266.096 632.924 265.853 633.48 265.46 633.906C265.066 634.332 264.56 634.628 263.941 634.793C263.581 634.89 263.235 634.938 262.904 634.939C262.573 634.939 262.26 634.885 261.966 634.776C261.682 634.664 261.416 634.498 261.169 634.277L261.077 634.302L262.058 637.965L260.451 638.395ZM263.012 633.551C263.497 633.422 263.863 633.224 264.112 632.958C264.359 632.683 264.495 632.326 264.521 631.888C264.558 631.448 264.493 630.918 264.328 630.3L264.253 630.022C264.079 629.373 263.866 628.867 263.614 628.504C263.363 628.14 263.062 627.906 262.714 627.801C262.376 627.693 261.975 627.701 261.511 627.825C261.037 627.952 260.68 628.164 260.439 628.46C260.195 628.746 260.057 629.115 260.023 629.565C259.999 630.013 260.066 630.531 260.224 631.118L260.282 631.335C260.411 631.819 260.57 632.224 260.756 632.549C260.943 632.875 261.154 633.127 261.39 633.307C261.623 633.476 261.877 633.58 262.152 633.616C262.427 633.653 262.714 633.631 263.012 633.551ZM268.684 633.324L265.69 622.15L267.298 621.719L270.292 632.893L268.684 633.324ZM274.472 631.972C274.215 632.041 273.928 632.084 273.613 632.102C273.297 632.121 272.984 632.083 272.672 631.99C272.37 631.894 272.098 631.724 271.856 631.48C271.611 631.225 271.425 630.861 271.298 630.387C271.149 629.831 271.155 629.338 271.316 628.908C271.477 628.479 271.761 628.099 272.17 627.768C272.578 627.438 273.091 627.146 273.707 626.892C274.334 626.636 275.029 626.406 275.792 626.201L275.576 625.398C275.505 625.13 275.395 624.905 275.247 624.724C275.109 624.54 274.907 624.423 274.639 624.373C274.382 624.321 274.037 624.352 273.605 624.468C273.172 624.584 272.847 624.732 272.63 624.912C272.421 625.078 272.287 625.258 272.228 625.45C272.176 625.63 272.176 625.812 272.225 625.998L272.287 626.229L270.742 626.643C270.718 626.595 270.699 626.545 270.685 626.493C270.671 626.442 270.655 626.38 270.635 626.308C270.506 625.823 270.531 625.38 270.71 624.979C270.897 624.564 271.215 624.203 271.662 623.896C272.11 623.588 272.658 623.347 273.307 623.173C274.008 622.986 274.618 622.933 275.136 623.014C275.663 623.083 276.094 623.271 276.431 623.579C276.767 623.886 277.006 624.303 277.146 624.828L278.252 628.954C278.304 629.15 278.388 629.277 278.503 629.334C278.628 629.389 278.758 629.399 278.891 629.363L279.448 629.214L279.738 630.296C279.628 630.38 279.487 630.473 279.316 630.574C279.144 630.676 278.934 630.759 278.687 630.826C278.409 630.9 278.158 630.912 277.935 630.862C277.724 630.819 277.534 630.726 277.363 630.584C277.2 630.429 277.068 630.244 276.966 630.028L276.873 630.053C276.751 630.339 276.581 630.611 276.363 630.869C276.152 631.113 275.889 631.327 275.574 631.511C275.262 631.705 274.895 631.858 274.472 631.972ZM274.564 630.522C274.884 630.437 275.165 630.312 275.408 630.147C275.658 629.97 275.858 629.767 276.007 629.539C276.153 629.302 276.25 629.044 276.297 628.766C276.341 628.478 276.323 628.185 276.243 627.886L276.098 627.345C275.387 627.536 274.775 627.744 274.261 627.97C273.747 628.196 273.372 628.462 273.134 628.769C272.893 629.065 272.825 629.409 272.93 629.801C272.993 630.038 273.099 630.225 273.246 630.362C273.39 630.489 273.576 630.566 273.805 630.593C274.033 630.621 274.286 630.597 274.564 630.522ZM280.864 630.06L278.686 621.931L280.015 621.575L280.465 622.697L280.573 622.668C280.688 622.316 280.854 622.007 281.069 621.739C281.285 621.472 281.539 621.244 281.83 621.055C282.132 620.864 282.479 620.716 282.871 620.611C283.386 620.473 283.864 620.444 284.305 620.525C284.744 620.595 285.125 620.802 285.449 621.146C285.783 621.487 286.042 621.997 286.224 622.677L287.711 628.226L286.103 628.656L284.683 623.355C284.6 623.046 284.49 622.8 284.352 622.616C284.225 622.429 284.072 622.293 283.895 622.208C283.718 622.123 283.524 622.081 283.315 622.082C283.105 622.083 282.882 622.115 282.645 622.179C282.274 622.278 281.959 622.462 281.699 622.73C281.448 622.985 281.272 623.297 281.172 623.667C281.072 624.036 281.08 624.437 281.196 624.869L282.471 629.629L280.864 630.06ZM289.723 627.686L287.545 619.557L289.152 619.126L291.331 627.256L289.723 627.686ZM295.041 629.276C294.731 629.359 294.467 629.402 294.247 629.406C294.03 629.42 293.894 629.429 293.84 629.432L293.529 628.273L294.302 628.066C294.529 628.005 294.742 627.893 294.941 627.729C295.15 627.563 295.317 627.341 295.442 627.065C295.567 626.789 295.645 626.464 295.678 626.091L290.331 618.81L292.016 618.359L294.677 621.986C294.799 622.152 294.939 622.363 295.095 622.619C295.263 622.873 295.426 623.132 295.586 623.399C295.756 623.662 295.902 623.899 296.025 624.109L296.102 624.089C296.112 623.92 296.117 623.731 296.116 623.522C296.122 623.299 296.128 623.071 296.132 622.838C296.135 622.606 296.142 622.383 296.151 622.171C296.158 621.948 296.163 621.759 296.165 621.604L296.39 617.187L298.028 616.748L297.372 625.305C297.334 625.78 297.273 626.232 297.189 626.663C297.106 627.094 296.978 627.482 296.805 627.826C296.646 628.178 296.422 628.475 296.133 628.718C295.848 628.972 295.484 629.158 295.041 629.276ZM304.856 623.83C304.011 624.057 303.255 624.099 302.588 623.958C301.928 623.803 301.365 623.452 300.897 622.903C300.441 622.352 300.082 621.592 299.823 620.624C299.561 619.645 299.491 618.808 299.614 618.112C299.744 617.404 300.058 616.823 300.555 616.369C301.059 615.903 301.734 615.556 302.579 615.33C303.444 615.098 304.207 615.059 304.867 615.214C305.524 615.358 306.081 615.706 306.537 616.257C307.002 616.795 307.365 617.554 307.628 618.532C307.887 619.501 307.952 620.339 307.821 621.048C307.701 621.754 307.394 622.339 306.9 622.802C306.403 623.256 305.722 623.598 304.856 623.83ZM304.5 622.501C305.015 622.363 305.411 622.152 305.689 621.868C305.963 621.573 306.123 621.199 306.167 620.746C306.221 620.29 306.164 619.747 305.996 619.119L305.921 618.841C305.753 618.212 305.531 617.714 305.256 617.346C304.991 616.975 304.667 616.736 304.285 616.629C303.9 616.511 303.45 616.521 302.935 616.659C302.43 616.794 302.04 617.009 301.766 617.304C301.489 617.588 301.323 617.958 301.268 618.414C301.224 618.868 301.286 619.409 301.455 620.037L301.529 620.316C301.698 620.944 301.914 621.444 302.179 621.814C302.455 622.182 302.785 622.425 303.17 622.543C303.552 622.65 303.995 622.636 304.5 622.501ZM310.355 622.158L308.177 614.029L309.506 613.673L309.997 614.949L310.09 614.924C310.113 614.642 310.167 614.368 310.25 614.103C310.344 613.834 310.49 613.597 310.689 613.389C310.897 613.178 311.177 613.026 311.527 612.932C311.692 612.888 311.84 612.865 311.972 612.863C312.114 612.858 312.224 612.856 312.302 612.857L312.708 614.372L312.167 614.517C311.837 614.605 311.557 614.735 311.327 614.907C311.108 615.077 310.938 615.288 310.818 615.541C310.706 615.781 310.647 616.056 310.642 616.366C310.647 616.674 310.698 617.008 310.794 617.369L311.962 621.727L310.355 622.158Z" fill="white"/>
</g>
<path d="M351.357 628.237C350.385 628.192 349.461 628.657 348.954 629.536C348.447 630.414 348.506 631.446 349.031 632.266L361.009 650.407C361.534 651.227 362.502 651.579 363.42 651.42C364.082 651.286 364.669 650.867 364.997 650.299C365.116 650.092 365.214 649.804 365.281 649.568L367.084 640.003L374.425 633.67C375.172 633.033 375.431 632.047 375.099 631.132C374.807 630.206 373.989 629.595 373.016 629.55L351.357 628.237ZM372.983 631.873C372.994 631.914 372.994 631.914 372.965 631.965L365.624 638.299C365.23 638.622 364.932 639.139 364.848 639.642L363.034 649.166C363.045 649.206 363.045 649.206 362.963 649.228C362.923 649.239 362.923 649.239 362.912 649.198L350.934 631.057C350.861 630.946 350.869 630.813 350.928 630.71C350.988 630.606 351.099 630.533 351.232 630.541L372.932 631.843C372.973 631.832 372.973 631.832 372.983 631.873Z" fill="#061024"/>
<path d="M372.984 631.873C372.994 631.914 372.995 631.914 372.965 631.965L365.624 638.299C365.23 638.622 364.932 639.139 364.848 639.642L363.034 649.166C363.045 649.206 363.045 649.206 362.964 649.228C362.923 649.239 362.923 649.239 362.912 649.198L350.934 631.057C350.861 630.946 350.869 630.813 350.928 630.71C350.988 630.606 351.099 630.533 351.232 630.541L372.932 631.843C372.973 631.832 372.973 631.832 372.984 631.873Z" fill="white"/>
<path d="M346.485 621.945C346.719 621.839 346.93 621.651 347.05 621.445C347.229 621.135 347.263 620.776 347.135 620.461L345.288 615.848C345.043 615.259 344.404 614.993 343.815 615.238C343.226 615.483 342.96 616.122 343.205 616.711L345.053 621.325C345.246 621.884 345.896 622.19 346.485 621.945Z" fill="#061024"/>
<path d="M342.241 625.659C342.569 625.09 342.383 624.398 341.826 624.111L337.539 621.635C336.971 621.307 336.278 621.493 335.991 622.05C335.663 622.618 335.848 623.311 336.406 623.598L340.693 626.073C341.209 626.372 341.902 626.186 342.241 625.659Z" fill="#061024"/>
<path d="M352.728 615.426C352.912 614.809 353.52 614.471 354.137 614.655C354.754 614.839 355.103 615.488 354.908 616.064L353.525 620.845C353.507 620.937 353.477 620.989 353.417 621.092C353.149 621.557 352.63 621.74 352.116 621.615C351.499 621.431 351.162 620.823 351.346 620.206L352.728 615.426Z" fill="#061024"/>
<path d="M361.037 620.36L357.014 623.272C356.498 623.628 356.388 624.357 356.744 624.872C357.101 625.388 357.829 625.499 358.345 625.142L362.367 622.23C362.519 622.146 362.609 621.991 362.668 621.888C362.877 621.526 362.879 621.045 362.596 620.641C362.281 620.114 361.552 620.004 361.037 620.36Z" fill="#061024"/>
<path d="M340.996 631.93C340.858 632.229 340.565 632.439 340.187 632.496L335.257 633.162C334.665 633.233 334.075 632.824 333.993 632.191C333.922 631.599 334.331 631.009 334.964 630.927L339.883 630.22C340.475 630.148 341.065 630.558 341.148 631.191C341.172 631.446 341.116 631.723 340.996 631.93Z" fill="#061024"/>
<path d="M343.754 637.828C343.825 637.765 343.885 637.662 343.914 637.61C344.183 637.145 344.122 636.594 343.717 636.222C343.249 635.78 342.554 635.792 342.112 636.259L338.663 639.847C338.221 640.315 338.232 641.01 338.7 641.452C339.168 641.895 339.864 641.883 340.306 641.415L343.754 637.828Z" fill="#061024"/>
<path d="M347.56 639.646C347.611 639.021 348.186 638.561 348.811 638.612C349.447 638.704 349.896 639.238 349.856 639.904L349.345 644.844C349.337 644.977 349.289 645.121 349.199 645.276C348.95 645.648 348.534 645.891 348.083 645.837C347.458 645.786 346.999 645.21 347.05 644.586L347.56 639.646Z" fill="#061024"/>
<rect x="98.3858" y="459.994" width="311" height="128" rx="11.5" transform="rotate(-15 98.3858 459.994)" fill="white"/>
<rect x="98.3858" y="459.994" width="311" height="128" rx="11.5" transform="rotate(-15 98.3858 459.994)" stroke="#E7E9EE"/>
<circle cx="146.763" cy="487.925" r="16" transform="rotate(-15 146.763 487.925)" fill="#E7E9EE"/>
<rect x="167.875" y="473.986" width="100" height="16" rx="6" transform="rotate(-15 167.875 473.986)" fill="#E7E9EE"/>
<g clip-path="url(#clip2_3520_10841)">
<path d="M150.629 555.476L155.932 546.29M155.932 546.29L150.499 547.746M155.932 546.29L157.388 551.724" stroke="#14B27C" stroke-width="1.5" stroke-linecap="round" stroke-linejoin="round"/>
</g>
<path d="M166.633 551.964L170.895 540.879L172.085 540.56L167.809 551.649L166.633 551.964ZM166.237 547.186C165.795 547.304 165.392 547.335 165.029 547.277C164.673 547.209 164.361 547.022 164.096 546.716C163.83 546.41 163.614 545.946 163.448 545.324C163.279 544.693 163.233 544.179 163.31 543.781C163.387 543.384 163.564 543.071 163.841 542.842C164.124 542.602 164.487 542.422 164.928 542.304C165.37 542.186 165.765 542.162 166.112 542.233C166.467 542.293 166.777 542.476 167.042 542.781C167.308 543.087 167.525 543.555 167.694 544.186C167.861 544.809 167.907 545.323 167.832 545.729C167.755 546.127 167.578 546.44 167.301 546.669C167.033 546.895 166.678 547.067 166.237 547.186ZM165.997 546.293C166.385 546.189 166.607 545.99 166.663 545.695C166.719 545.399 166.686 545.022 166.563 544.562L166.523 544.413C166.441 544.107 166.343 543.853 166.231 543.651C166.117 543.44 165.972 543.295 165.796 543.217C165.63 543.136 165.42 543.129 165.168 543.197C164.78 543.3 164.554 543.501 164.488 543.799C164.432 544.094 164.466 544.472 164.589 544.931L164.629 545.08C164.752 545.54 164.912 545.884 165.108 546.111C165.313 546.337 165.61 546.397 165.997 546.293ZM173.776 550.224C173.343 550.34 172.945 550.369 172.582 550.312C172.225 550.243 171.914 550.056 171.649 549.75C171.383 549.445 171.167 548.981 171 548.359C170.831 547.728 170.785 547.213 170.862 546.816C170.94 546.418 171.117 546.105 171.393 545.877C171.677 545.636 172.035 545.458 172.468 545.342C172.909 545.224 173.309 545.199 173.665 545.268C174.019 545.328 174.325 545.511 174.581 545.82C174.847 546.125 175.064 546.594 175.233 547.225C175.4 547.847 175.446 548.361 175.371 548.768C175.303 549.163 175.131 549.475 174.854 549.703C174.577 549.932 174.218 550.106 173.776 550.224ZM173.537 549.332C173.924 549.228 174.146 549.028 174.202 548.733C174.259 548.438 174.225 548.06 174.102 547.6L174.062 547.452C173.98 547.145 173.883 546.891 173.771 546.689C173.665 546.476 173.525 546.33 173.349 546.251C173.182 546.17 172.968 546.165 172.707 546.235C172.328 546.336 172.106 546.536 172.041 546.834C171.985 547.129 172.019 547.506 172.142 547.966L172.182 548.115C172.305 548.575 172.464 548.918 172.661 549.146C172.866 549.371 173.158 549.433 173.537 549.332ZM177.735 548.989L177.623 548.57C177.519 548.182 177.496 547.807 177.553 547.444C177.617 547.069 177.734 546.714 177.905 546.378C178.085 546.04 178.296 545.708 178.537 545.383C178.778 545.057 179.027 544.74 179.282 544.43C179.617 544.021 179.92 543.621 180.192 543.229C180.464 542.837 180.662 542.441 180.787 542.041C180.92 541.638 180.93 541.224 180.817 540.801C180.752 540.557 180.633 540.348 180.46 540.172C180.296 539.993 180.08 539.872 179.812 539.809C179.541 539.737 179.217 539.751 178.838 539.852C178.423 539.964 178.105 540.126 177.882 540.341C177.666 540.543 177.527 540.784 177.466 541.061C177.412 541.327 177.427 541.617 177.511 541.933L177.66 542.487L176.253 542.864C176.232 542.821 176.205 542.756 176.172 542.668C176.139 542.581 176.104 542.469 176.068 542.334C175.889 541.667 175.894 541.091 176.083 540.605C176.278 540.108 176.599 539.699 177.044 539.377C177.495 539.043 178.01 538.799 178.587 538.644C179.146 538.495 179.636 538.45 180.058 538.511C180.487 538.56 180.849 538.686 181.145 538.887C181.449 539.085 181.693 539.329 181.877 539.618C182.07 539.905 182.206 540.197 182.286 540.494C182.402 540.927 182.43 541.339 182.371 541.732C182.321 542.122 182.202 542.507 182.013 542.886C181.834 543.263 181.603 543.643 181.319 544.029C181.043 544.402 180.739 544.783 180.408 545.171C180.202 545.41 180.001 545.652 179.806 545.898C179.62 546.141 179.462 546.382 179.332 546.619C179.2 546.848 179.126 547.056 179.108 547.244L183.814 545.983L184.159 547.268L177.735 548.989ZM186.411 548.897L186.248 548.288C186.437 548.199 186.57 548.066 186.649 547.891C186.739 547.722 186.783 547.526 186.781 547.304C186.789 547.08 186.759 546.842 186.691 546.589L185.975 546.781L185.554 545.213L187.055 544.811L187.436 546.231C187.576 546.753 187.606 547.19 187.526 547.54C187.455 547.887 187.312 548.167 187.098 548.379C186.896 548.598 186.667 548.77 186.411 548.897ZM192.618 545.175C191.843 545.383 191.179 545.43 190.627 545.317C190.084 545.202 189.646 544.972 189.312 544.626C188.984 544.27 188.754 543.843 188.621 543.347C188.486 542.843 188.489 542.368 188.631 541.924C188.771 541.472 189.079 541.07 189.555 540.72C189.071 540.608 188.671 540.397 188.356 540.085C188.04 539.773 187.823 539.397 187.705 538.955C187.577 538.477 187.574 538.014 187.695 537.566C187.817 537.118 188.073 536.721 188.463 536.375C188.851 536.02 189.379 535.753 190.046 535.574C190.713 535.395 191.299 535.364 191.803 535.48C192.305 535.587 192.721 535.804 193.05 536.131C193.389 536.456 193.622 536.857 193.75 537.335C193.868 537.777 193.864 538.213 193.738 538.643C193.621 539.07 193.38 539.454 193.017 539.793C193.613 539.855 194.081 540.049 194.419 540.374C194.764 540.687 195.004 541.096 195.139 541.601C195.272 542.097 195.281 542.582 195.167 543.057C195.06 543.521 194.799 543.939 194.387 544.31C193.974 544.681 193.385 544.97 192.618 545.175ZM192.31 544.026C192.896 543.869 193.305 543.609 193.537 543.248C193.766 542.877 193.814 542.444 193.681 541.948C193.549 541.452 193.291 541.106 192.91 540.908C192.529 540.711 192.045 540.691 191.459 540.848C190.864 541.007 190.446 541.269 190.205 541.633C189.974 541.995 189.924 542.423 190.057 542.919C190.19 543.415 190.448 543.766 190.832 543.973C191.223 544.167 191.715 544.185 192.31 544.026ZM191.151 539.698C191.638 539.568 191.987 539.339 192.199 539.012C192.417 538.673 192.463 538.265 192.335 537.787C192.209 537.318 191.971 536.99 191.622 536.804C191.272 536.617 190.85 536.59 190.354 536.723C189.849 536.859 189.487 537.096 189.269 537.434C189.059 537.771 189.018 538.173 189.143 538.642C189.271 539.12 189.51 539.452 189.859 539.639C190.216 539.814 190.646 539.834 191.151 539.698ZM200.586 543.04C200.054 543.183 199.556 543.234 199.091 543.194C198.635 543.152 198.213 543 197.823 542.737C197.432 542.465 197.082 542.061 196.774 541.525C196.464 540.98 196.194 540.28 195.964 539.423C195.708 538.468 195.566 537.646 195.536 536.958C195.515 536.268 195.597 535.69 195.782 535.225C195.964 534.751 196.239 534.373 196.608 534.091C196.977 533.808 197.427 533.596 197.959 533.453C198.627 533.275 199.201 533.256 199.684 533.397C200.175 533.536 200.573 533.797 200.879 534.179C201.193 534.558 201.424 535.023 201.571 535.573L200.138 535.957C200.039 535.587 199.901 535.291 199.725 535.067C199.556 534.833 199.342 534.682 199.083 534.616C198.83 534.539 198.537 534.545 198.203 534.635C197.708 534.767 197.361 535.005 197.163 535.348C196.971 535.68 196.892 536.107 196.926 536.629C196.966 537.14 197.074 537.739 197.248 538.427C197.3 538.259 197.409 538.07 197.575 537.861C197.741 537.652 197.96 537.458 198.231 537.28C198.508 537.089 198.827 536.946 199.188 536.849C199.846 536.673 200.423 536.663 200.92 536.82C201.413 536.968 201.821 537.245 202.143 537.652C202.473 538.056 202.716 538.547 202.87 539.124C203.037 539.746 203.048 540.327 202.903 540.869C202.756 541.401 202.482 541.856 202.08 542.234C201.679 542.612 201.181 542.881 200.586 543.04ZM200.18 541.903C200.577 541.796 200.878 541.624 201.085 541.385C201.298 541.134 201.429 540.848 201.478 540.526C201.524 540.195 201.5 539.853 201.406 539.501C201.312 539.15 201.164 538.851 200.963 538.606C200.769 538.348 200.519 538.174 200.214 538.082C199.916 537.978 199.568 537.979 199.172 538.086C198.775 538.192 198.469 538.366 198.253 538.607C198.035 538.839 197.902 539.117 197.853 539.439C197.804 539.761 197.829 540.107 197.928 540.477C198.02 540.819 198.169 541.123 198.375 541.386C198.578 541.641 198.829 541.82 199.127 541.924C199.432 542.016 199.783 542.009 200.18 541.903Z" fill="#14B27C"/>
<path d="M143.727 535.325L143.599 534.846C143.48 534.403 143.454 533.974 143.519 533.559C143.592 533.131 143.726 532.725 143.922 532.341C144.127 531.955 144.368 531.576 144.644 531.204C144.92 530.832 145.203 530.469 145.495 530.114C145.878 529.647 146.224 529.19 146.535 528.742C146.846 528.295 147.072 527.842 147.215 527.384C147.368 526.924 147.379 526.451 147.249 525.967C147.175 525.689 147.039 525.449 146.841 525.248C146.654 525.044 146.407 524.906 146.101 524.834C145.791 524.751 145.42 524.767 144.988 524.883C144.514 525.01 144.149 525.196 143.895 525.441C143.648 525.673 143.489 525.947 143.42 526.264C143.358 526.568 143.375 526.9 143.471 527.261L143.641 527.895L142.034 528.325C142.01 528.276 141.979 528.202 141.941 528.102C141.903 528.001 141.863 527.874 141.822 527.719C141.618 526.957 141.623 526.298 141.839 525.744C142.062 525.176 142.428 524.708 142.937 524.34C143.453 523.958 144.041 523.679 144.701 523.503C145.339 523.332 145.9 523.281 146.382 523.35C146.872 523.407 147.286 523.55 147.624 523.78C147.972 524.007 148.251 524.285 148.461 524.615C148.681 524.943 148.837 525.277 148.928 525.617C149.06 526.111 149.093 526.583 149.025 527.032C148.968 527.478 148.832 527.917 148.617 528.35C148.412 528.781 148.147 529.216 147.824 529.656C147.507 530.083 147.16 530.518 146.782 530.962C146.546 531.235 146.317 531.512 146.094 531.793C145.881 532.07 145.701 532.345 145.552 532.617C145.402 532.878 145.316 533.116 145.297 533.331L150.675 531.89L151.068 533.358L143.727 535.325ZM152.557 532.96L152.428 532.481C152.309 532.038 152.283 531.608 152.348 531.193C152.421 530.765 152.555 530.359 152.751 529.976C152.956 529.589 153.197 529.21 153.473 528.838C153.749 528.466 154.032 528.103 154.324 527.749C154.707 527.282 155.054 526.824 155.364 526.377C155.675 525.929 155.902 525.476 156.044 525.018C156.197 524.558 156.208 524.086 156.078 523.601C156.004 523.323 155.868 523.083 155.67 522.882C155.483 522.679 155.236 522.54 154.93 522.468C154.621 522.385 154.25 522.402 153.817 522.518C153.343 522.645 152.979 522.831 152.724 523.076C152.477 523.307 152.319 523.582 152.249 523.899C152.187 524.202 152.204 524.535 152.301 524.895L152.47 525.529L150.863 525.959C150.839 525.911 150.808 525.836 150.77 525.736C150.732 525.636 150.692 525.508 150.651 525.354C150.447 524.591 150.452 523.933 150.668 523.378C150.892 522.81 151.258 522.342 151.766 521.974C152.283 521.593 152.87 521.314 153.53 521.137C154.169 520.966 154.729 520.915 155.212 520.984C155.702 521.041 156.115 521.184 156.453 521.414C156.801 521.641 157.08 521.919 157.29 522.25C157.51 522.577 157.666 522.911 157.757 523.251C157.889 523.745 157.922 524.217 157.854 524.666C157.797 525.112 157.661 525.551 157.446 525.985C157.241 526.415 156.977 526.85 156.653 527.29C156.337 527.717 155.989 528.153 155.611 528.596C155.375 528.869 155.146 529.146 154.923 529.427C154.71 529.705 154.53 529.979 154.382 530.251C154.231 530.512 154.146 530.75 154.126 530.966L159.504 529.524L159.898 530.993L152.557 532.96ZM165.129 529.79C164.387 529.988 163.696 530.025 163.055 529.898C162.424 529.769 161.885 529.488 161.437 529.056C160.988 528.613 160.666 528.032 160.473 527.31L162.126 526.867C162.245 527.31 162.436 527.673 162.7 527.956C162.96 528.228 163.269 528.411 163.625 528.503C163.988 528.582 164.371 528.568 164.773 528.461C165.164 528.356 165.488 528.181 165.742 527.936C166.004 527.678 166.172 527.357 166.246 526.973C166.327 526.575 166.299 526.119 166.161 525.604C166.034 525.13 165.847 524.761 165.599 524.496C165.359 524.218 165.07 524.047 164.733 523.982C164.403 523.905 164.047 523.918 163.666 524.02C163.388 524.094 163.137 524.211 162.915 524.37C162.69 524.519 162.505 524.695 162.361 524.899C162.217 525.104 162.107 525.332 162.031 525.584L160.459 525.774L159.318 519.785L165.36 518.166L165.758 519.649L161.122 520.892L161.7 523.917C161.832 523.749 161.981 523.582 162.146 523.417C162.322 523.248 162.534 523.092 162.782 522.948C163.041 522.801 163.346 522.681 163.696 522.587C164.294 522.427 164.868 522.406 165.418 522.523C165.969 522.641 166.456 522.913 166.88 523.341C167.301 523.758 167.616 524.358 167.826 525.141C168.033 525.914 168.06 526.613 167.908 527.24C167.755 527.866 167.445 528.396 166.976 528.831C166.507 529.266 165.892 529.585 165.129 529.79ZM170.832 528.063L170.352 526.27L172.067 525.81L172.548 527.603L170.832 528.063ZM175.176 526.899L174.816 525.554L177.443 524.85L175.559 517.818L172.932 518.522L172.663 517.518C172.997 517.406 173.357 517.243 173.741 517.03C174.126 516.816 174.501 516.567 174.866 516.281C175.231 515.996 175.551 515.684 175.824 515.345L176.582 515.142L179.066 524.415L181.493 523.765L181.853 525.11L175.176 526.899ZM186.893 523.958C186.151 524.157 185.459 524.193 184.818 524.067C184.187 523.938 183.648 523.657 183.201 523.225C182.751 522.782 182.429 522.2 182.236 521.479L183.89 521.036C184.009 521.479 184.2 521.842 184.463 522.124C184.724 522.397 185.032 522.579 185.388 522.672C185.752 522.751 186.135 522.737 186.536 522.629C186.928 522.524 187.251 522.349 187.506 522.104C187.768 521.846 187.936 521.525 188.01 521.141C188.091 520.744 188.062 520.288 187.924 519.772C187.797 519.298 187.61 518.929 187.362 518.664C187.122 518.386 186.833 518.215 186.496 518.151C186.166 518.074 185.811 518.086 185.429 518.188C185.151 518.263 184.901 518.38 184.678 518.539C184.453 518.687 184.269 518.864 184.125 519.068C183.981 519.272 183.871 519.5 183.795 519.753L182.222 519.942L181.081 513.953L187.124 512.334L187.522 513.818L182.885 515.06L183.464 518.085C183.596 517.918 183.744 517.751 183.909 517.585C184.085 517.417 184.297 517.26 184.546 517.116C184.805 516.97 185.109 516.849 185.46 516.756C186.057 516.595 186.631 516.574 187.182 516.692C187.732 516.809 188.219 517.082 188.643 517.509C189.064 517.927 189.38 518.527 189.589 519.31C189.796 520.082 189.824 520.782 189.671 521.408C189.519 522.034 189.208 522.565 188.739 522.999C188.271 523.434 187.655 523.754 186.893 523.958ZM198.254 520.715L195.81 511.597L192.302 512.537L191.904 511.053L200.683 508.701L201.08 510.185L197.541 511.133L199.984 520.251L198.254 520.715ZM205.12 518.875L202.279 508.273L207.859 506.778C208.611 506.577 209.27 506.544 209.836 506.679C210.403 506.814 210.874 507.091 211.251 507.509C211.626 507.917 211.898 508.44 212.069 509.079C212.26 509.79 212.266 510.451 212.087 511.062C211.909 511.673 211.559 512.181 211.038 512.585L214.424 516.382L212.538 516.888L209.432 513.33L205.754 514.316L206.851 518.411L205.12 518.875ZM205.364 512.863L209.074 511.869C209.63 511.72 210.013 511.441 210.224 511.031C210.445 510.619 210.476 510.119 210.319 509.531C210.222 509.171 210.074 508.885 209.874 508.673C209.671 508.452 209.422 508.308 209.129 508.243C208.836 508.179 208.498 508.197 208.117 508.299L204.408 509.293L205.364 512.863ZM218.971 515.164L217.803 510.806L212.003 505.668L213.982 505.138L218.27 509.024L218.347 509.004L220.086 503.502L221.987 502.993L219.534 510.342L220.702 514.7L218.971 515.164ZM226.235 513.218L223.394 502.616L229.019 501.108C229.607 500.951 230.151 500.921 230.652 501.019C231.15 501.106 231.575 501.312 231.928 501.638C232.29 501.96 232.542 502.384 232.682 502.91C232.79 503.311 232.811 503.698 232.745 504.069C232.689 504.437 232.557 504.771 232.35 505.069C232.153 505.365 231.905 505.614 231.606 505.815L231.622 505.877C232.026 505.857 232.407 505.921 232.767 506.067C233.134 506.201 233.453 506.425 233.725 506.738C234.004 507.039 234.21 507.436 234.343 507.931C234.522 508.601 234.52 509.192 234.338 509.705C234.165 510.215 233.864 510.638 233.435 510.974C233.003 511.299 232.478 511.545 231.86 511.71L226.235 513.218ZM227.568 511.27L231.324 510.264C231.798 510.137 232.151 509.91 232.383 509.582C232.623 509.242 232.668 508.788 232.516 508.222C232.425 507.882 232.28 507.611 232.083 507.41C231.893 507.196 231.653 507.062 231.362 507.007C231.068 506.942 230.726 506.962 230.334 507.067L226.703 508.04L227.568 511.27ZM226.313 506.587L229.806 505.652C230.136 505.563 230.403 505.425 230.606 505.238C230.81 505.051 230.944 504.828 231.007 504.568C231.08 504.305 231.079 504.035 231.005 503.757C230.869 503.252 230.631 502.918 230.289 502.756C229.955 502.58 229.566 502.552 229.123 502.671L225.522 503.636L226.313 506.587Z" fill="#25245C"/>
<path d="M332.803 494.498C333.159 493.454 333.515 492.409 333.806 491.123C334.097 489.838 333.957 486.942 334.55 486.783C335.143 486.624 336.297 488.558 337.106 489.204C337.915 489.85 338.465 489.53 339.403 490.659C340.341 491.788 342.142 496.137 342.735 495.978C343.328 495.819 342.11 488.898 342.703 488.739C343.296 488.581 343.889 488.422 344.482 488.263C345.075 488.104 345.755 488.267 346.52 488.752C347.286 489.237 348.742 492.298 349.335 492.139C349.928 491.98 350.262 490.855 350.855 490.696C351.449 490.537 354.112 498.106 354.705 497.947C355.298 497.788 355.892 497.629 356.485 497.47C357.078 497.311 356.161 491.518 356.193 489.266C356.226 487.014 356.086 484.118 356.679 483.959C357.272 483.8 358.339 485.412 359.234 486.38C360.13 487.348 361.456 489.926 362.049 489.767C362.642 489.608 362.2 485.586 362.793 485.427C363.386 485.268 363.979 485.109 364.572 484.95C365.166 484.791 364.465 479.803 365.058 479.644C365.651 479.485 366.718 481.097 367.614 482.065C368.509 483.033 369.662 484.967 370.428 485.452C371.194 485.937 371.873 486.1 372.466 485.941C373.059 485.782 372.358 480.793 372.952 480.634C373.545 480.475 374.612 482.087 375.507 483.055C376.402 484.023 377.556 485.957 378.322 486.442C379.088 486.927 379.767 487.09 380.36 486.931C380.953 486.773 380.166 481.462 380.587 480.659C381.007 479.856 381.514 479.375 382.107 479.216C382.7 479.057 383.811 480.83 384.663 481.637C385.515 482.444 386.626 484.217 387.219 484.058C387.812 483.9 388.103 482.614 388.48 481.65C388.858 480.686 388.89 478.434 389.483 478.275C390.076 478.116 390.669 477.957 391.263 477.798C391.856 477.64 392.276 476.837 392.783 476.356C393.29 475.875 393.797 475.394 394.304 474.913C394.81 474.432 395.404 474.273 395.824 473.47C396.245 472.668 396.018 469.45 396.051 467.198C396.083 464.946 396.05 462.453 396.018 459.96" stroke="#14B27C" stroke-width="2" stroke-linecap="round" stroke-linejoin="round"/>
<defs>
<filter id="filter0_d_3520_10841" x="15.3994" y="254.532" width="506.752" height="513.117" filterUnits="userSpaceOnUse" color-interpolation-filters="sRGB">
<feFlood flood-opacity="0" result="BackgroundImageFix"/>
<feColorMatrix in="SourceAlpha" type="matrix" values="0 0 0 0 0 0 0 0 0 0 0 0 0 0 0 0 0 0 127 0" result="hardAlpha"/>
<feOffset dy="16"/>
<feGaussianBlur stdDeviation="12"/>
<feComposite in2="hardAlpha" operator="out"/>
<feColorMatrix type="matrix" values="0 0 0 0 0 0 0 0 0 0 0 0 0 0 0 0 0 0 0.05 0"/>
<feBlend mode="normal" in2="BackgroundImageFix" result="effect1_dropShadow_3520_10841"/>
<feBlend mode="normal" in="SourceGraphic" in2="effect1_dropShadow_3520_10841" result="shape"/>
</filter>
<clipPath id="clip0_3520_10841">
<rect x="363.43" y="303.565" width="110" height="34" rx="8" transform="rotate(-15 363.43 303.565)" fill="white"/>
</clipPath>
<clipPath id="clip1_3520_10841">
<rect x="58.583" y="653.385" width="380" height="60" rx="12" transform="rotate(-15 58.583 653.385)" fill="white"/>
</clipPath>
<clipPath id="clip2_3520_10841">
<rect width="12" height="12" fill="white" transform="translate(145.932 546.641) rotate(-15)"/>
</clipPath>
</defs>
</svg>
