<svg width="536" height="834" viewBox="0 0 536 834" fill="none" xmlns="http://www.w3.org/2000/svg">
<rect width="536" height="834" fill="white"/>
<rect width="536" height="834" fill="#E2EDFE"/>
<mask id="mask0_3520_10839" style="mask-type:alpha" maskUnits="userSpaceOnUse" x="0" y="0" width="536" height="834">
<rect width="536" height="834" fill="#FFF8E6"/>
</mask>
<g mask="url(#mask0_3520_10839)">
<path opacity="0.05" d="M37.0928 437.449C38.1369 341.963 119.234 249.611 236.967 219.012C367.699 185.035 495.97 239.58 530.835 341.477C536.314 351.977 540.644 363.128 543.69 374.872C571.571 482.363 481.331 598.831 342.133 635.009C202.934 671.187 67.49 613.376 39.6089 505.884C33.7232 483.193 33.1014 460.101 37.0928 437.449Z" fill="#0066FF"/>
<path opacity="0.05" d="M132.025 408.511C144.214 349.446 205.602 302.042 282.213 297.366C367.283 292.175 440.129 341.56 449.404 408.959C451.527 416.134 452.861 423.572 453.328 431.222C457.601 501.241 387.636 562.485 297.056 568.012C206.477 573.54 129.584 521.259 125.311 451.24C124.409 436.459 126.815 422.068 132.025 408.511Z" fill="#0066FF"/>
<path d="M407.965 489.346C417.634 504.182 439.049 546.24 447.354 595.778" stroke="#0066FF" stroke-width="3" stroke-dasharray="9 9"/>
<g filter="url(#filter0_d_3520_10839)">
<circle cx="297.972" cy="432.373" r="104" transform="rotate(-15 297.972 432.373)" fill="white"/>
</g>
<path d="M308.924 451.854C316.066 451.009 323.084 449.323 329.831 446.833C324.117 440.503 320.959 432.276 320.972 423.748V421.065V420.873C320.972 414.773 318.549 408.923 314.236 404.61C309.922 400.296 304.072 397.873 297.972 397.873C291.872 397.873 286.022 400.296 281.709 404.61C277.395 408.923 274.972 414.773 274.972 420.873V423.748C274.984 432.276 271.825 440.504 266.109 446.833C272.753 449.286 279.756 450.992 287.02 451.854M308.924 451.854C301.648 452.717 294.296 452.717 287.02 451.854M308.924 451.854C309.476 453.579 309.614 455.409 309.325 457.197C309.036 458.984 308.329 460.679 307.262 462.141C306.194 463.604 304.797 464.794 303.182 465.614C301.568 466.435 299.783 466.862 297.972 466.862C296.161 466.862 294.376 466.435 292.762 465.614C291.148 464.794 289.75 463.604 288.682 462.141C287.615 460.679 286.908 458.984 286.619 457.197C286.33 455.409 286.468 453.579 287.02 451.854" stroke="#25245C" stroke-width="4" stroke-linecap="round" stroke-linejoin="round"/>
<circle cx="319.067" cy="402.925" r="14.1053" fill="#0066FF" stroke="white" stroke-width="3.52632"/>
<circle cx="391.092" cy="461.849" r="29" transform="rotate(-15 391.092 461.849)" fill="#14B27C" stroke="white" stroke-width="20"/>
<path d="M384.042 464.515L391.39 468.757L396.589 453.388" stroke="white" stroke-width="2" stroke-linecap="round" stroke-linejoin="round"/>
<g filter="url(#filter1_d_3520_10839)">
<rect x="380.125" y="579.283" width="132" height="132" rx="66" fill="white"/>
</g>
<path fill-rule="evenodd" clip-rule="evenodd" d="M427.686 606.566L436.568 608.941V674.56C453.68 672.239 462.653 661.818 464.406 642.302L464.457 641.708L445.33 636.479V627.367L473.492 635.065L473.495 639.543L473.492 639.68C473.453 641.197 473.299 642.666 473.146 644.083C470.877 665.154 460.794 675.517 449.158 680.262C441.725 682.889 434.568 684.131 427.686 683.989V606.566ZM445.32 611.258L466.106 616.811V626.018L445.32 620.157V611.258Z" fill="url(#paint0_linear_3520_10839)"/>
<g filter="url(#filter2_d_3520_10839)">
<rect x="73.1953" y="192.372" width="195" height="65" rx="12" transform="rotate(-15 73.1953 192.372)" fill="white"/>
</g>
<rect x="139.363" y="203.63" width="118" height="9" rx="4.5" transform="rotate(-15 139.363 203.63)" fill="#F7F7F8"/>
<circle cx="112.387" cy="214.999" r="19" transform="rotate(-15 112.387 214.999)" fill="#E2EDFE"/>
<path fill-rule="evenodd" clip-rule="evenodd" d="M124.944 211.634C123.085 204.699 115.957 200.584 109.022 202.442C102.087 204.3 97.9713 211.429 99.8295 218.364C101.688 225.299 108.816 229.414 115.751 227.556C122.686 225.698 126.802 218.569 124.944 211.634ZM101.922 217.803C100.374 212.024 103.803 206.083 109.583 204.535C115.362 202.986 121.302 206.416 122.851 212.195C124.399 217.974 101.922 217.803 101.922 217.803Z" fill="#0066FF"/>
<g filter="url(#filter3_d_3520_10839)">
<rect x="281.665" y="155.147" width="195" height="65" rx="12" transform="rotate(-15 281.665 155.147)" fill="white"/>
</g>
<circle opacity="0.1" cx="320.857" cy="177.775" r="19" transform="rotate(-15 320.857 177.775)" fill="#14B27C"/>
<path d="M313.591 180.515L320.939 184.757L326.138 169.388" stroke="#14B27C" stroke-width="2" stroke-linecap="round" stroke-linejoin="round"/>
<rect x="327.645" y="181.693" width="14.25" height="14.25" rx="7.125" transform="rotate(-15 327.645 181.693)" fill="#F6CD43" stroke="white" stroke-width="1.58333"/>
<path d="M337.586 188.92L337.795 189.702L337.222 190.285L336.454 190.062L336.244 189.279L337.012 189.503L337.586 188.92ZM333.217 187.193L333.985 187.417L334.344 188.758L335.668 189.133L335.878 189.914L333.791 189.335L333.217 187.193ZM339.144 185.604L339.718 187.747L338.18 189.297L337.971 188.516L338.93 187.529L338.571 186.188L339.144 185.604ZM337.038 185.032L337.826 185.25L338.035 186.031L337.076 187.017L337.441 188.378L336.887 188.956L336.119 188.732L335.754 187.372L334.391 187.007L334.181 186.226L334.755 185.643L336.078 186.018L337.038 185.032ZM334.541 187.568L335.309 187.791L335.518 188.572L334.75 188.349L334.541 187.568ZM338.185 186.591L338.394 187.372L337.841 187.95L337.632 187.169L338.185 186.591ZM333.411 185.275L334.2 185.491L333.626 186.074L333.835 186.855L333.067 186.632L332.858 185.851L333.411 185.275ZM338.017 184.041L338.805 184.259L339.014 185.039L338.441 185.622L338.231 184.841L337.462 184.618L338.017 184.041ZM335.714 184.658L336.502 184.876L335.928 185.459L335.16 185.235L335.714 184.658ZM335.354 183.316L337.461 183.889L336.908 184.467L335.584 184.091L334.603 185.084L333.835 184.861L335.354 183.316Z" fill="white"/>
<rect x="347.833" y="166.405" width="118" height="9" rx="4.5" transform="rotate(-15 347.833 166.405)" fill="#F7F7F8"/>
<g filter="url(#filter4_d_3520_10839)">
<rect x="209.642" y="257.268" width="268" height="65" rx="12" transform="rotate(-15 209.642 257.268)" fill="white"/>
</g>
<path d="M282.47 279.165L279.411 267.748L275.374 268.83L274.809 266.724L285.203 263.939L285.767 266.045L281.729 267.127L284.789 278.544L282.47 279.165ZM288.973 277.423L286.415 267.879L288.598 267.294L288.893 268.396L289.222 268.308C289.257 267.87 289.417 267.517 289.704 267.247C289.99 266.977 290.365 266.78 290.829 266.655L291.988 266.345L292.516 268.315L291.318 268.636C290.674 268.809 290.199 269.122 289.893 269.577C289.584 270.019 289.524 270.594 289.714 271.302L291.194 276.827L288.973 277.423ZM298.915 275.048C298.246 275.228 297.609 275.274 297.006 275.187C296.4 275.088 295.875 274.855 295.432 274.491C295.003 274.123 294.7 273.611 294.524 272.954C294.351 272.31 294.361 271.727 294.552 271.207C294.757 270.683 295.107 270.237 295.602 269.869C296.094 269.489 296.694 269.204 297.402 269.014L300.165 268.274L300.009 267.695C299.875 267.192 299.612 266.828 299.22 266.602C298.824 266.363 298.298 266.331 297.641 266.507C296.997 266.68 296.549 266.965 296.297 267.364C296.055 267.747 295.946 268.19 295.97 268.694L293.742 268.567C293.761 268.023 293.884 267.5 294.108 266.998C294.345 266.493 294.715 266.042 295.216 265.646C295.713 265.236 296.374 264.921 297.199 264.7C298.448 264.365 299.511 264.419 300.389 264.86C301.276 265.285 301.878 266.09 302.195 267.275L303.199 271.022C303.303 271.409 303.535 271.554 303.896 271.457L304.707 271.24L305.199 273.075L303.634 273.494C303.17 273.618 302.759 273.604 302.401 273.452C302.043 273.299 301.81 273.024 301.703 272.624L301.693 272.586L301.364 272.674C301.335 272.875 301.259 273.13 301.135 273.439C301.01 273.749 300.775 274.053 300.427 274.353C300.089 274.637 299.585 274.869 298.915 275.048ZM298.796 273.134C299.53 272.937 300.074 272.571 300.427 272.035C300.777 271.485 300.857 270.856 300.667 270.148L300.615 269.955L297.988 270.659C297.511 270.787 297.152 270.993 296.911 271.279C296.67 271.564 296.603 271.906 296.71 272.306C296.814 272.692 297.053 272.966 297.428 273.128C297.799 273.277 298.255 273.279 298.796 273.134ZM306.65 272.686L304.093 263.143L306.276 262.558L306.634 263.891L306.962 263.803C307.033 263.397 307.244 262.975 307.596 262.535C307.947 262.096 308.567 261.757 309.456 261.519C310.19 261.323 310.885 261.316 311.542 261.499C312.198 261.682 312.76 262.028 313.228 262.538C313.709 263.044 314.058 263.703 314.275 264.514L315.807 270.232L313.586 270.828L312.1 265.283C311.893 264.51 311.546 263.989 311.06 263.719C310.583 263.433 309.997 263.383 309.301 263.569C308.516 263.78 307.968 264.209 307.659 264.858C307.346 265.494 307.319 266.295 307.578 267.261L308.872 272.091L306.65 272.686ZM322.163 268.819C320.927 269.151 319.837 269.153 318.893 268.826C317.95 268.499 317.255 267.836 316.808 266.838L318.716 265.767C318.937 266.233 319.201 266.576 319.509 266.797C319.817 267.018 320.154 267.142 320.52 267.168C320.898 267.191 321.288 267.149 321.687 267.042C322.292 266.88 322.714 266.649 322.951 266.351C323.201 266.049 323.282 265.731 323.192 265.396C323.099 265.049 322.882 264.831 322.541 264.743C322.213 264.651 321.737 264.627 321.113 264.67L320.488 264.733C319.797 264.781 319.152 264.767 318.552 264.693C317.949 264.606 317.428 264.415 316.99 264.118C316.561 263.805 316.265 263.346 316.103 262.741C315.855 261.813 316.005 261.007 316.553 260.322C317.113 259.633 317.954 259.139 319.075 258.839C320.144 258.552 321.09 258.554 321.913 258.844C322.736 259.134 323.357 259.651 323.777 260.394L321.895 261.561C321.647 261.048 321.32 260.728 320.914 260.603C320.504 260.464 320.048 260.462 319.546 260.596C319.03 260.735 318.655 260.932 318.42 261.188C318.198 261.441 318.132 261.734 318.222 262.069C318.311 262.404 318.52 262.617 318.849 262.709C319.177 262.8 319.589 262.821 320.087 262.771L320.717 262.726C321.46 262.665 322.142 262.662 322.764 262.716C323.399 262.767 323.935 262.94 324.373 263.237C324.812 263.534 325.119 264.01 325.295 264.667C325.561 265.659 325.405 266.522 324.829 267.256C324.262 267.974 323.374 268.495 322.163 268.819ZM329.386 266.594L327.32 258.886L324.77 259.569L324.278 257.734L326.829 257.051L326.311 255.119C326.142 254.488 326.189 253.944 326.453 253.486C326.727 253.013 327.166 252.695 327.771 252.533L330.244 251.87L330.736 253.705L328.997 254.171C328.637 254.268 328.508 254.509 328.612 254.896L329.031 256.461L331.658 255.757L332.15 257.592L329.523 258.296L331.588 266.004L329.386 266.594ZM339.87 264.075C338.917 264.33 338.02 264.357 337.179 264.154C336.347 263.935 335.627 263.514 335.018 262.89C334.418 262.25 333.986 261.434 333.72 260.443L333.658 260.211C333.389 259.206 333.356 258.283 333.558 257.442C333.761 256.601 334.169 255.884 334.783 255.292C335.394 254.687 336.17 254.258 337.11 254.006C338.037 253.758 338.904 253.746 339.71 253.972C340.512 254.185 341.205 254.607 341.788 255.237C342.371 255.868 342.794 256.672 343.056 257.651L343.268 258.443L336.101 260.364C336.327 261.104 336.751 261.632 337.374 261.948C337.997 262.264 338.676 262.324 339.41 262.127C340.131 261.934 340.624 261.636 340.889 261.234C341.151 260.819 341.318 260.388 341.391 259.94L343.48 260.395C343.393 260.791 343.229 261.235 342.989 261.728C342.757 262.204 342.396 262.659 341.905 263.094C341.411 263.517 340.733 263.844 339.87 264.075ZM335.67 258.678L340.557 257.368C340.337 256.751 339.958 256.314 339.42 256.058C338.894 255.798 338.291 255.76 337.608 255.943C336.9 256.133 336.383 256.471 336.058 256.959C335.733 257.446 335.604 258.019 335.67 258.678ZM346.27 262.07L343.713 252.527L345.896 251.942L346.191 253.043L346.519 252.955C346.554 252.518 346.715 252.164 347.001 251.894C347.288 251.624 347.663 251.427 348.127 251.303L349.286 250.992L349.814 252.962L348.616 253.283C347.972 253.456 347.497 253.77 347.191 254.224C346.881 254.666 346.821 255.241 347.011 255.95L348.492 261.475L346.27 262.07ZM361.981 258.15C360.745 258.481 359.655 258.483 358.711 258.157C357.768 257.83 357.073 257.167 356.626 256.169L358.534 255.098C358.755 255.564 359.02 255.907 359.327 256.128C359.635 256.349 359.972 256.473 360.338 256.499C360.717 256.522 361.106 256.48 361.505 256.373C362.11 256.211 362.532 255.98 362.769 255.682C363.02 255.38 363.1 255.062 363.01 254.727C362.917 254.379 362.7 254.161 362.359 254.073C362.031 253.982 361.555 253.958 360.931 254L360.306 254.064C359.615 254.111 358.97 254.098 358.37 254.024C357.767 253.937 357.246 253.745 356.808 253.449C356.379 253.136 356.083 252.677 355.921 252.071C355.673 251.144 355.823 250.338 356.371 249.653C356.931 248.964 357.772 248.47 358.893 248.169C359.962 247.883 360.908 247.885 361.731 248.175C362.554 248.465 363.175 248.982 363.595 249.725L361.713 250.892C361.465 250.379 361.138 250.059 360.732 249.933C360.322 249.795 359.866 249.793 359.364 249.927C358.848 250.065 358.473 250.262 358.238 250.519C358.016 250.771 357.95 251.065 358.04 251.4C358.129 251.735 358.338 251.948 358.667 252.04C358.995 252.131 359.408 252.152 359.905 252.101L360.535 252.057C361.278 251.996 361.96 251.992 362.582 252.047C363.217 252.097 363.753 252.271 364.192 252.568C364.63 252.864 364.937 253.341 365.113 253.998C365.379 254.99 365.224 255.853 364.647 256.587C364.08 257.305 363.192 257.826 361.981 258.15ZM371.424 255.496C370.689 255.692 369.996 255.706 369.343 255.536C368.687 255.353 368.124 255.006 367.657 254.497C367.185 253.974 366.843 253.314 366.629 252.515L365.097 246.797L367.299 246.207L368.784 251.751C368.992 252.524 369.332 253.047 369.805 253.32C370.292 253.59 370.883 253.632 371.578 253.446C372.364 253.235 372.913 252.812 373.226 252.176C373.551 251.537 373.585 250.734 373.326 249.768L372.032 244.939L374.234 244.348L376.791 253.892L374.628 254.472L374.271 253.139L373.942 253.227C373.868 253.619 373.648 254.037 373.284 254.48C372.932 254.919 372.312 255.258 371.424 255.496ZM383.765 252.313C382.838 252.561 381.949 252.593 381.098 252.406C380.248 252.22 379.505 251.819 378.871 251.202C378.249 250.582 377.8 249.756 377.524 248.726L377.452 248.456C377.175 247.425 377.152 246.486 377.38 245.638C377.621 244.787 378.063 244.068 378.707 243.481C379.35 242.895 380.136 242.477 381.063 242.229C381.977 241.984 382.8 241.936 383.53 242.085C384.273 242.231 384.92 242.534 385.471 242.994C386.019 243.441 386.444 243.996 386.746 244.661L384.721 245.68C384.562 245.294 384.343 244.966 384.064 244.696C383.781 244.413 383.433 244.223 383.021 244.127C382.621 244.027 382.164 244.046 381.649 244.184C381.121 244.325 380.675 244.569 380.313 244.915C379.959 245.244 379.72 245.667 379.596 246.183C379.485 246.696 379.514 247.268 379.684 247.899L379.735 248.092C379.904 248.723 380.165 249.233 380.518 249.622C380.88 249.994 381.298 250.241 381.772 250.362C382.259 250.48 382.767 250.468 383.295 250.327C384.081 250.117 384.62 249.758 384.912 249.252C385.214 248.729 385.33 248.132 385.26 247.461L387.539 247.388C387.564 248.1 387.451 248.786 387.2 249.446C386.949 250.107 386.54 250.693 385.973 251.204C385.416 251.698 384.679 252.068 383.765 252.313ZM394.755 249.368C393.827 249.617 392.939 249.648 392.088 249.462C391.238 249.276 390.495 248.874 389.86 248.257C389.239 247.637 388.79 246.812 388.514 245.781L388.441 245.511C388.165 244.481 388.141 243.541 388.37 242.694C388.611 241.842 389.053 241.123 389.697 240.537C390.34 239.95 391.125 239.533 392.053 239.284C392.967 239.039 393.789 238.991 394.52 239.141C395.263 239.287 395.91 239.59 396.461 240.049C397.009 240.496 397.433 241.052 397.736 241.716L395.71 242.735C395.552 242.35 395.333 242.022 395.054 241.751C394.771 241.468 394.423 241.279 394.011 241.182C393.611 241.082 393.154 241.101 392.639 241.239C392.111 241.381 391.665 241.624 391.302 241.97C390.949 242.299 390.71 242.722 390.586 243.238C390.475 243.751 390.504 244.323 390.673 244.954L390.725 245.148C390.894 245.779 391.155 246.288 391.508 246.677C391.87 247.049 392.288 247.296 392.762 247.418C393.249 247.536 393.757 247.524 394.285 247.382C395.07 247.172 395.609 246.813 395.902 246.307C396.203 245.785 396.319 245.188 396.25 244.516L398.529 244.444C398.554 245.155 398.441 245.841 398.19 246.502C397.939 247.162 397.53 247.748 396.963 248.259C396.405 248.754 395.669 249.123 394.755 249.368ZM405.648 246.45C404.695 246.705 403.798 246.731 402.957 246.529C402.125 246.31 401.405 245.889 400.796 245.265C400.196 244.625 399.764 243.809 399.498 242.817L399.436 242.586C399.167 241.581 399.134 240.658 399.336 239.817C399.539 238.976 399.947 238.259 400.561 237.667C401.172 237.061 401.948 236.633 402.888 236.381C403.815 236.132 404.682 236.121 405.488 236.347C406.29 236.56 406.983 236.981 407.566 237.612C408.149 238.243 408.572 239.047 408.834 240.026L409.046 240.818L401.879 242.739C402.105 243.479 402.529 244.007 403.152 244.323C403.775 244.639 404.454 244.699 405.188 244.502C405.909 244.309 406.402 244.011 406.667 243.609C406.929 243.194 407.096 242.762 407.17 242.315L409.258 242.77C409.171 243.166 409.007 243.61 408.767 244.102C408.535 244.578 408.174 245.034 407.683 245.469C407.189 245.892 406.511 246.218 405.648 246.45ZM401.448 241.053L406.335 239.743C406.115 239.126 405.736 238.689 405.198 238.433C404.673 238.173 404.069 238.135 403.386 238.318C402.678 238.508 402.161 238.846 401.836 239.334C401.511 239.821 401.382 240.394 401.448 241.053ZM416.062 243.659C414.825 243.99 413.735 243.993 412.792 243.666C411.848 243.339 411.153 242.676 410.706 241.678L412.614 240.607C412.836 241.073 413.1 241.416 413.408 241.637C413.716 241.858 414.052 241.982 414.418 242.008C414.797 242.031 415.186 241.989 415.585 241.882C416.191 241.72 416.612 241.489 416.85 241.191C417.1 240.889 417.18 240.571 417.091 240.236C416.997 239.888 416.78 239.671 416.439 239.583C416.111 239.491 415.635 239.467 415.012 239.51L414.387 239.573C413.696 239.621 413.05 239.607 412.451 239.533C411.848 239.446 411.327 239.255 410.888 238.958C410.46 238.645 410.164 238.186 410.002 237.58C409.753 236.653 409.903 235.847 410.451 235.162C411.012 234.473 411.853 233.979 412.973 233.678C414.042 233.392 414.988 233.394 415.811 233.684C416.634 233.974 417.256 234.491 417.676 235.234L415.794 236.401C415.546 235.888 415.219 235.568 414.812 235.443C414.402 235.304 413.946 235.302 413.444 235.436C412.929 235.574 412.554 235.772 412.319 236.028C412.097 236.281 412.031 236.574 412.12 236.909C412.21 237.244 412.419 237.457 412.747 237.549C413.075 237.64 413.488 237.661 413.985 237.61L414.615 237.566C415.358 237.505 416.04 237.502 416.662 237.556C417.297 237.607 417.834 237.78 418.272 238.077C418.71 238.374 419.018 238.85 419.194 239.507C419.459 240.499 419.304 241.362 418.728 242.096C418.161 242.814 417.272 243.335 416.062 243.659ZM425.825 241.043C424.589 241.374 423.499 241.377 422.555 241.05C421.612 240.723 420.917 240.06 420.47 239.062L422.378 237.991C422.599 238.457 422.863 238.8 423.171 239.021C423.479 239.242 423.816 239.366 424.182 239.392C424.56 239.415 424.949 239.373 425.349 239.266C425.954 239.104 426.375 238.873 426.613 238.575C426.863 238.273 426.944 237.955 426.854 237.62C426.761 237.272 426.544 237.054 426.203 236.966C425.874 236.875 425.399 236.851 424.775 236.893L424.15 236.957C423.459 237.005 422.814 236.991 422.214 236.917C421.611 236.83 421.09 236.638 420.652 236.342C420.223 236.029 419.927 235.57 419.765 234.964C419.517 234.037 419.666 233.231 420.214 232.546C420.775 231.857 421.616 231.363 422.736 231.062C423.805 230.776 424.752 230.778 425.575 231.068C426.398 231.358 427.019 231.875 427.439 232.618L425.557 233.785C425.309 233.272 424.982 232.952 424.576 232.826C424.166 232.688 423.71 232.686 423.208 232.82C422.692 232.958 422.317 233.156 422.082 233.412C421.86 233.665 421.794 233.958 421.884 234.293C421.973 234.628 422.182 234.841 422.511 234.933C422.839 235.024 423.251 235.045 423.749 234.994L424.379 234.95C425.121 234.889 425.804 234.885 426.426 234.94C427.06 234.99 427.597 235.164 428.035 235.461C428.474 235.757 428.781 236.234 428.957 236.891C429.223 237.883 429.067 238.746 428.491 239.48C427.924 240.198 427.036 240.719 425.825 241.043ZM433.048 238.818L430.982 231.11L428.432 231.793L427.94 229.958L430.49 229.275L429.973 227.343C429.804 226.712 429.851 226.167 430.115 225.71C430.389 225.237 430.828 224.919 431.433 224.757L433.906 224.094L434.398 225.929L432.659 226.395C432.299 226.492 432.17 226.733 432.274 227.12L432.693 228.684L435.32 227.98L435.812 229.816L433.185 230.52L435.25 238.228L433.048 238.818ZM443.125 236.283C442.391 236.48 441.698 236.493 441.045 236.323C440.388 236.14 439.826 235.794 439.359 235.284C438.887 234.762 438.545 234.101 438.331 233.303L436.798 227.584L439.001 226.994L440.486 232.539C440.693 233.311 441.034 233.834 441.507 234.108C441.994 234.378 442.585 234.42 443.28 234.233C444.066 234.023 444.615 233.6 444.928 232.964C445.253 232.324 445.287 231.522 445.028 230.556L443.734 225.726L445.936 225.136L448.493 234.679L446.33 235.259L445.972 233.926L445.644 234.014C445.57 234.407 445.35 234.824 444.986 235.267C444.634 235.706 444.014 236.045 443.125 236.283ZM450.932 234.026L447.308 220.503L449.53 219.908L453.154 233.431L450.932 234.026ZM454.676 228.467L452.191 219.195L454.451 218.589L456.936 227.862L454.676 228.467ZM457.027 232.683C456.537 232.814 456.082 232.763 455.661 232.531C455.253 232.295 454.981 231.926 454.847 231.424C454.716 230.935 454.768 230.486 455.004 230.077C455.252 229.666 455.621 229.394 456.111 229.263C456.6 229.132 457.049 229.184 457.457 229.42C457.865 229.656 458.137 230.025 458.271 230.527C458.406 231.029 458.355 231.485 458.12 231.893C457.88 232.288 457.516 232.551 457.027 232.683Z" fill="#25245C"/>
<circle opacity="0.1" cx="248.834" cy="279.896" r="19" transform="rotate(-15 248.834 279.896)" fill="#14B27C"/>
<path d="M241.591 282.515L248.939 286.757L254.138 271.388" stroke="#14B27C" stroke-width="2" stroke-linecap="round" stroke-linejoin="round"/>
<rect x="255.621" y="283.814" width="14.25" height="14.25" rx="7.125" transform="rotate(-15 255.621 283.814)" fill="#6F7CBA" stroke="white" stroke-width="1.58333"/>
<path fill-rule="evenodd" clip-rule="evenodd" d="M262.579 289.148C262.595 289.175 262.62 289.194 262.648 289.2L264.688 289.765C264.756 289.78 264.824 289.764 264.875 289.722L266.355 288.342C266.4 288.301 266.397 288.232 266.352 288.187L263.577 285.388C263.533 285.342 263.484 285.353 263.469 285.412L262.566 289.063C262.559 289.091 262.564 289.122 262.579 289.148ZM262.731 289.713C262.674 289.695 262.665 289.716 262.714 289.761L265.382 292.235C265.429 292.279 265.485 292.267 265.504 292.206L266.529 288.881C266.548 288.821 266.53 288.805 266.489 288.847L264.998 290.361C264.95 290.405 264.884 290.42 264.819 290.403L262.731 289.713Z" fill="white"/>
</g>
<defs>
<filter id="filter0_d_3520_10839" x="113.946" y="264.348" width="368.052" height="368.052" filterUnits="userSpaceOnUse" color-interpolation-filters="sRGB">
<feFlood flood-opacity="0" result="BackgroundImageFix"/>
<feColorMatrix in="SourceAlpha" type="matrix" values="0 0 0 0 0 0 0 0 0 0 0 0 0 0 0 0 0 0 127 0" result="hardAlpha"/>
<feOffset dy="16"/>
<feGaussianBlur stdDeviation="40"/>
<feComposite in2="hardAlpha" operator="out"/>
<feColorMatrix type="matrix" values="0 0 0 0 0.145098 0 0 0 0 0.141176 0 0 0 0 0.360784 0 0 0 0.08 0"/>
<feBlend mode="normal" in2="BackgroundImageFix" result="effect1_dropShadow_3520_10839"/>
<feBlend mode="normal" in="SourceGraphic" in2="effect1_dropShadow_3520_10839" result="shape"/>
</filter>
<filter id="filter1_d_3520_10839" x="300.125" y="515.283" width="292" height="292" filterUnits="userSpaceOnUse" color-interpolation-filters="sRGB">
<feFlood flood-opacity="0" result="BackgroundImageFix"/>
<feColorMatrix in="SourceAlpha" type="matrix" values="0 0 0 0 0 0 0 0 0 0 0 0 0 0 0 0 0 0 127 0" result="hardAlpha"/>
<feOffset dy="16"/>
<feGaussianBlur stdDeviation="40"/>
<feComposite in2="hardAlpha" operator="out"/>
<feColorMatrix type="matrix" values="0 0 0 0 0.145098 0 0 0 0 0.141176 0 0 0 0 0.360784 0 0 0 0.08 0"/>
<feBlend mode="normal" in2="BackgroundImageFix" result="effect1_dropShadow_3520_10839"/>
<feBlend mode="normal" in="SourceGraphic" in2="effect1_dropShadow_3520_10839" result="shape"/>
</filter>
<filter id="filter2_d_3520_10839" x="-4.11035" y="80.5958" width="359.79" height="267.867" filterUnits="userSpaceOnUse" color-interpolation-filters="sRGB">
<feFlood flood-opacity="0" result="BackgroundImageFix"/>
<feColorMatrix in="SourceAlpha" type="matrix" values="0 0 0 0 0 0 0 0 0 0 0 0 0 0 0 0 0 0 127 0" result="hardAlpha"/>
<feOffset dy="16"/>
<feGaussianBlur stdDeviation="40"/>
<feComposite in2="hardAlpha" operator="out"/>
<feColorMatrix type="matrix" values="0 0 0 0 0.145098 0 0 0 0 0.141176 0 0 0 0 0.360784 0 0 0 0.08 0"/>
<feBlend mode="normal" in2="BackgroundImageFix" result="effect1_dropShadow_3520_10839"/>
<feBlend mode="normal" in="SourceGraphic" in2="effect1_dropShadow_3520_10839" result="shape"/>
</filter>
<filter id="filter3_d_3520_10839" x="204.359" y="43.3717" width="359.79" height="267.867" filterUnits="userSpaceOnUse" color-interpolation-filters="sRGB">
<feFlood flood-opacity="0" result="BackgroundImageFix"/>
<feColorMatrix in="SourceAlpha" type="matrix" values="0 0 0 0 0 0 0 0 0 0 0 0 0 0 0 0 0 0 127 0" result="hardAlpha"/>
<feOffset dy="16"/>
<feGaussianBlur stdDeviation="40"/>
<feComposite in2="hardAlpha" operator="out"/>
<feColorMatrix type="matrix" values="0 0 0 0 0.145098 0 0 0 0 0.141176 0 0 0 0 0.360784 0 0 0 0.08 0"/>
<feBlend mode="normal" in2="BackgroundImageFix" result="effect1_dropShadow_3520_10839"/>
<feBlend mode="normal" in="SourceGraphic" in2="effect1_dropShadow_3520_10839" result="shape"/>
</filter>
<filter id="filter4_d_3520_10839" x="132.336" y="126.599" width="430.303" height="286.761" filterUnits="userSpaceOnUse" color-interpolation-filters="sRGB">
<feFlood flood-opacity="0" result="BackgroundImageFix"/>
<feColorMatrix in="SourceAlpha" type="matrix" values="0 0 0 0 0 0 0 0 0 0 0 0 0 0 0 0 0 0 127 0" result="hardAlpha"/>
<feOffset dy="16"/>
<feGaussianBlur stdDeviation="40"/>
<feComposite in2="hardAlpha" operator="out"/>
<feColorMatrix type="matrix" values="0 0 0 0 0.145098 0 0 0 0 0.141176 0 0 0 0 0.360784 0 0 0 0.08 0"/>
<feBlend mode="normal" in2="BackgroundImageFix" result="effect1_dropShadow_3520_10839"/>
<feBlend mode="normal" in="SourceGraphic" in2="effect1_dropShadow_3520_10839" result="shape"/>
</filter>
<linearGradient id="paint0_linear_3520_10839" x1="427.686" y1="606.566" x2="495.552" y2="646.717" gradientUnits="userSpaceOnUse">
<stop stop-color="#BAE1EB"/>
<stop offset="0.548203" stop-color="#6061E6"/>
<stop offset="1" stop-color="#006BFF"/>
</linearGradient>
</defs>
</svg>
