<svg width="24" height="24" viewBox="0 0 24 24" fill="none" xmlns="http://www.w3.org/2000/svg">
<path d="M3.75 13.875C3.75 16.1532 7.44365 18 12 18C12.9055 18 13.7769 17.9271 14.592 17.7923M3.75 13.875V10.125M3.75 13.875V17.625C3.75 19.9032 7.44365 21.75 12 21.75C14.1187 21.75 16.0509 21.3507 17.5119 20.6943M3.75 10.125C3.75 12.2405 6.93495 13.984 11.0381 14.2223M3.75 10.125V7.11231C3.75 7.11231 4.72557 8.54306 6.04954 9.23222M20.25 6.375C20.25 4.09683 16.5564 2.25 12 2.25C10.5407 2.25 9.16992 2.43944 7.98062 2.77183M20.25 6.375V10.125M20.25 6.375C20.25 8.65317 16.5563 10.5 12 10.5C11.4614 10.5 10.9348 10.4742 10.4249 10.4249M20.25 13.875V17.625C20.25 18.2297 19.9898 18.8041 19.5222 19.3216M20.25 13.875V10.125M20.25 13.875C20.25 15.198 19.039 16.3473 17.1021 17.1021M20.25 10.125C20.25 12.0317 17.6627 13.6363 14.1477 14.1088M3 3L10.4249 10.4249M10.4249 10.4249L17.1021 17.1021M10.4249 10.4249L10.422 10.4246M17.1021 17.1021L21 21M4.63738 4.51199C5.3808 3.77894 6.54926 3.17186 7.98062 2.77183M7.98062 2.77183C6.52195 3.17949 5.33631 3.80217 4.59528 4.55407" stroke="#6B7280" stroke-width="1.5" stroke-linecap="round" stroke-linejoin="round"/>
</svg>
