  <svg
    xmlns="http://www.w3.org/2000/svg"
    width="12"
    height="12"
    viewBox="0 0 12 12"
    fill="none"
  >
    <path
      d="M3.4752 10.5C3.11301 10.5 2.7817 10.4116 2.48128 10.2348C2.18086 10.0552 1.94221 9.81525 1.76533 9.51497C1.58844 9.21469 1.5 8.88494 1.5 8.52572C1.5 8.1609 1.58844 7.82975 1.76533 7.53227C1.94221 7.23199 2.18086 6.99205 2.48128 6.81244C2.7817 6.63283 3.11161 6.54303 3.47099 6.54303H4.30487V5.44855H3.47099C3.11161 5.44855 2.7817 5.36015 2.48128 5.18335C2.18086 5.00655 1.94221 4.76941 1.76533 4.47194C1.58844 4.17166 1.5 3.8391 1.5 3.47427C1.5 3.10945 1.58844 2.7783 1.76533 2.48082C1.94221 2.18335 2.18086 1.94621 2.48128 1.76941C2.7817 1.5898 3.11161 1.5 3.47099 1.5C3.83879 1.5 4.1715 1.5898 4.46912 1.76941C4.76954 1.94621 5.00819 2.18335 5.18507 2.48082C5.36476 2.7783 5.45461 3.10945 5.45461 3.47427V4.29514H6.55381V3.47427C6.55381 3.10945 6.64226 2.7783 6.81914 2.48082C6.99602 2.18335 7.23327 1.94621 7.53088 1.76941C7.83131 1.5898 8.16261 1.5 8.5248 1.5C8.8898 1.5 9.2211 1.5898 9.51872 1.76941C9.81914 1.94621 10.0578 2.18335 10.2347 2.48082C10.4116 2.7783 10.5 3.10945 10.5 3.47427C10.5 3.8391 10.4116 4.17166 10.2347 4.47194C10.0578 4.76941 9.81914 5.00655 9.51872 5.18335C9.2211 5.36015 8.8898 5.44855 8.5248 5.44855H7.70356V6.54303H8.5248C8.8898 6.54303 9.2211 6.63283 9.51872 6.81244C9.81914 6.99205 10.0578 7.23199 10.2347 7.53227C10.4116 7.82975 10.5 8.1609 10.5 8.52572C10.5 8.88775 10.4116 9.2189 10.2347 9.51918C10.0578 9.81665 9.81914 10.0552 9.51872 10.2348C9.2211 10.4116 8.8898 10.5 8.5248 10.5C8.16261 10.5 7.83131 10.4116 7.53088 10.2348C7.23327 10.0552 6.99602 9.81525 6.81914 9.51497C6.64226 9.21469 6.55381 8.88494 6.55381 8.52572V7.69644H5.45461V8.52572C5.45461 8.88494 5.36476 9.21469 5.18507 9.51497C5.00819 9.81525 4.76954 10.0552 4.46912 10.2348C4.1715 10.4116 3.8402 10.5 3.4752 10.5ZM3.47099 9.34659C3.62541 9.34659 3.76439 9.3101 3.88793 9.23714C4.01427 9.16417 4.11535 9.06455 4.19116 8.93826C4.26696 8.81197 4.30487 8.67446 4.30487 8.52572V7.69644H3.4752C3.32358 7.69644 3.1846 7.73433 3.05826 7.8101C2.93472 7.88307 2.83505 7.98269 2.75924 8.10898C2.68624 8.23527 2.64974 8.37418 2.64974 8.52572C2.64974 8.67446 2.68624 8.81197 2.75924 8.93826C2.83505 9.06455 2.93472 9.16417 3.05826 9.23714C3.1846 9.3101 3.32218 9.34659 3.47099 9.34659ZM3.47099 4.29514H4.30487V3.47427C4.30487 3.32273 4.26696 3.18522 4.19116 3.06174C4.11535 2.93545 4.01427 2.83583 3.88793 2.76286C3.76439 2.6899 3.62541 2.65341 3.47099 2.65341C3.32218 2.65341 3.1846 2.6899 3.05826 2.76286C2.93472 2.83583 2.83505 2.93545 2.75924 3.06174C2.68624 3.18522 2.64974 3.32273 2.64974 3.47427C2.64974 3.62582 2.68624 3.76473 2.75924 3.89102C2.83505 4.0145 2.93472 4.11272 3.05826 4.18569C3.1846 4.25865 3.32218 4.29514 3.47099 4.29514ZM7.70356 4.29514H8.5248C8.67922 4.29514 8.8182 4.25865 8.94174 4.18569C9.06528 4.11272 9.16355 4.0145 9.23655 3.89102C9.31235 3.76473 9.35026 3.62582 9.35026 3.47427C9.35026 3.32273 9.31235 3.18522 9.23655 3.06174C9.16355 2.93545 9.06528 2.83583 8.94174 2.76286C8.8182 2.6899 8.67922 2.65341 8.5248 2.65341C8.37319 2.65341 8.23421 2.6899 8.10786 2.76286C7.98432 2.83583 7.88605 2.93545 7.81306 3.06174C7.74006 3.18522 7.70356 3.32273 7.70356 3.47427V4.29514ZM8.52901 9.34659C8.68063 9.34659 8.8182 9.3101 8.94174 9.23714C9.06528 9.16417 9.16355 9.06455 9.23655 8.93826C9.31235 8.81197 9.35026 8.67446 9.35026 8.52572C9.35026 8.37418 9.31235 8.23527 9.23655 8.10898C9.16355 7.98269 9.06528 7.88307 8.94174 7.8101C8.8182 7.73433 8.67922 7.69644 8.5248 7.69644H7.70356V8.52572C7.70356 8.67727 7.74006 8.81618 7.81306 8.94247C7.88605 9.06595 7.98432 9.16417 8.10786 9.23714C8.23421 9.3101 8.37459 9.34659 8.52901 9.34659ZM5.45461 6.54303H6.55381V5.44855H5.45461V6.54303Z"
      fill="#A4AEC0"
    />
  </svg>