<svg width="24" height="24" viewBox="0 0 24 24" fill="none" xmlns="http://www.w3.org/2000/svg">
<path d="M7.90918 2.90915H16.091C18.8576 2.90915 21.091 5.14255 21.091 7.90912V16.0909C21.091 18.8575 18.8576 21.0909 16.091 21.0909H7.90918C5.1426 21.0909 2.90918 18.8575 2.90918 16.0909V7.90912C2.90918 5.14255 5.1426 2.90915 7.90918 2.90915Z" stroke="#6B7280" stroke-width="1.5" stroke-linecap="round" stroke-linejoin="round"/>
<path d="M12.0001 7.90912C14.2648 7.90912 16.091 9.73529 16.091 12C16.091 14.2647 14.2648 16.0909 12.0001 16.0909C9.73536 16.0909 7.90918 14.2647 7.90918 12C7.90918 9.73529 9.73536 7.90912 12.0001 7.90912Z" stroke="#6B7280" stroke-width="1.5" stroke-linecap="round" stroke-linejoin="round"/>
<path d="M17.4501 6.54H17.4576V6.5475H17.4501V6.54Z" stroke="#6B7280" stroke-width="1.5" stroke-linecap="round" stroke-linejoin="round"/>
</svg>
