<svg width="24" height="24" viewBox="0 0 24 24" fill="none" xmlns="http://www.w3.org/2000/svg">
<path fill-rule="evenodd" clip-rule="evenodd" d="M7.13354 5.11887C6.86194 5.00419 6.56256 4.97209 6.27282 5.02657C5.98308 5.08106 5.71582 5.21973 5.50443 5.42524C5.29305 5.63075 5.14691 5.894 5.08428 6.1821C5.02166 6.47019 5.04531 6.77035 5.1523 7.04507C5.25929 7.31979 5.44486 7.5569 5.68584 7.72676C5.92622 7.8962 6.2111 7.99124 6.50505 8.00006C6.9086 8.00408 7.29743 7.8485 7.58683 7.56714C7.87623 7.28578 8.0427 6.90148 8.05005 6.49798C8.04951 6.2039 7.96254 5.91646 7.79993 5.67139C7.63692 5.42573 7.40514 5.23355 7.13354 5.11887ZM15.5919 10.1499C15.1024 10.1339 14.6171 10.244 14.1823 10.4694C13.7476 10.6948 13.378 11.0281 13.109 11.4373C13.0483 11.5297 12.9342 11.5712 12.8284 11.5395C12.7225 11.5079 12.65 11.4105 12.65 11.3V10.4C12.65 10.3172 12.5829 10.25 12.5 10.25H10.4C10.3172 10.25 10.25 10.3172 10.25 10.4V18.6C10.25 18.6829 10.3172 18.75 10.4 18.75H12.6C12.6829 18.75 12.75 18.6829 12.75 18.6V14.3422C12.7454 14.2905 12.7451 14.2384 12.7493 14.1867C12.7339 13.9322 12.7675 13.6771 12.8483 13.4352C12.9314 13.1866 13.0629 12.9568 13.235 12.7592C13.4072 12.5615 13.6167 12.3998 13.8515 12.2834C14.0864 12.1669 14.3419 12.098 14.6034 12.0806C14.609 12.0802 14.6145 12.08 14.62 12.08C15.0678 12.08 15.4917 12.2291 15.7967 12.605C16.0946 12.9721 16.25 13.5203 16.25 14.26V18.6C16.25 18.6829 16.3172 18.75 16.4001 18.75H18.5971C18.6804 18.75 18.7477 18.6822 18.7471 18.5989L18.7101 13.5619L18.71 13.56C18.71 12.2176 18.2786 11.377 17.6968 10.8682C17.1083 10.3537 16.333 10.15 15.6 10.15L15.5919 10.1499ZM5.40005 10.25C5.31721 10.25 5.25005 10.3172 5.25005 10.4V18.6C5.25005 18.6829 5.31721 18.75 5.40005 18.75H7.60005C7.68289 18.75 7.75005 18.6829 7.75005 18.6V10.4C7.75005 10.3172 7.68289 10.25 7.60005 10.25H5.40005Z" fill="#6B7280"/>
<path d="M20.5 2H3.5C3.10218 2 2.72064 2.15804 2.43934 2.43934C2.15804 2.72064 2 3.10218 2 3.5V20.5C2 20.8978 2.15804 21.2794 2.43934 21.5607C2.72064 21.842 3.10218 22 3.5 22H20.5C20.8978 22 21.2794 21.842 21.5607 21.5607C21.842 21.2794 22 20.8978 22 20.5V3.5C22 3.10218 21.842 2.72064 21.5607 2.43934C21.2794 2.15804 20.8978 2 20.5 2Z" stroke="#6B7280" stroke-width="1.5" stroke-linecap="round" stroke-linejoin="round"/>
</svg>
