<svg width="24" height="24" viewBox="0 0 24 24" fill="none" xmlns="http://www.w3.org/2000/svg">
<rect x="3" y="2" width="18" height="20" rx="2.5" stroke="#6B7280" stroke-width="1.5" stroke-linecap="round" stroke-linejoin="round"/>
<path d="M10.125 19H13.875" stroke="#6B7280" stroke-width="1.5" stroke-linecap="round" stroke-linejoin="round"/>
<path d="M12 15C14.3292 15 16.2864 13.4073 16.8421 11.2516M12 15C9.67079 15 7.71357 13.4073 7.15794 11.2516M12 15C13.3807 15 14.5 12.7614 14.5 10C14.5 7.23858 13.3807 5 12 5M12 15C10.6193 15 9.5 12.7614 9.5 10C9.5 7.23858 10.6193 5 12 5M12 5C13.8696 5 15.4994 6.02608 16.3573 7.5458M12 5C10.1304 5 8.50055 6.02608 7.64274 7.5458M16.3573 7.5458C15.1887 8.55577 13.6657 9.16667 12 9.16667C10.3343 9.16667 8.81126 8.55577 7.64274 7.5458M16.3573 7.5458C16.7665 8.27079 17 9.10813 17 10C17 10.4322 16.9452 10.8516 16.8421 11.2516M16.8421 11.2516C15.4074 12.0471 13.7566 12.5 12 12.5C10.2434 12.5 8.59257 12.0471 7.15794 11.2516M7.15794 11.2516C7.05484 10.8516 7 10.4322 7 10C7 9.10813 7.23351 8.27079 7.64274 7.5458" stroke="#6B7280" stroke-width="1.5" stroke-linecap="round" stroke-linejoin="round"/>
</svg>
