<svg width="24" height="24" viewBox="0 0 24 24" fill="none" xmlns="http://www.w3.org/2000/svg">
<path d="M11.9251 4.81302C15.6078 4.81302 18.5731 5.11874 20.0058 5.37451C20.7731 5.58033 21.3866 6.09186 21.4885 6.75726C21.7962 8.39379 22 10.1342 22 11.9246C21.95 14.1226 21.6943 15.913 21.4885 17.1918C21.3366 18.163 20.3135 18.4707 20.0058 18.5746C18.1635 18.9323 15.0942 19.186 12.025 19.186C8.95574 19.186 5.83655 18.9822 4.04616 18.5746C3.27885 18.3688 2.6654 17.8572 2.56349 17.1918C2.15386 15.7591 2 13.8668 2 11.9746C2 9.62068 2.20581 7.88225 2.40963 6.80922C2.56349 5.8361 3.63653 5.52837 3.8923 5.42646C5.58078 5.06879 8.70197 4.81302 11.9251 4.81302Z" stroke="#6B7280" stroke-width="1.5" stroke-linecap="round" stroke-linejoin="round"/>
<path d="M9.63464 8.99067L14.8265 11.9745L9.63464 14.9584V8.99067Z" stroke="#6B7280" stroke-width="1.5" stroke-linecap="round" stroke-linejoin="round"/>
</svg>
