<svg width="100" height="36" viewBox="0 0 100 36" fill="none" xmlns="http://www.w3.org/2000/svg" class="logo" data-testid="logo"><path d="M49.4536 25.5562C50.387 25.5562 51.1977 25.4532 51.8856 25.2471C52.5735 25.041 53.1432 24.7458 53.5948 24.3613C54.0463 23.9769 54.3827 23.514 54.6039 22.9727C54.8251 22.4314 54.9357 21.8256 54.9357 21.1551C54.9357 20.3555 54.7751 19.6419 54.4539 19.0145C54.1327 18.3871 53.6448 17.8766 52.9902 17.4829C53.5599 16.794 53.8448 15.9913 53.8448 15.0748C53.8448 14.515 53.7342 13.9937 53.5129 13.5108C53.2917 13.028 52.9538 12.6112 52.4993 12.2606C52.0447 11.91 51.4734 11.6348 50.7855 11.4348C50.0976 11.2349 49.29 11.135 48.3627 11.135H40.7713V25.5562H49.4536ZM50.1991 16.6986C49.9628 16.6802 49.7203 16.671 49.4718 16.671H43.6533V13.7092H48.4354C49.2112 13.7092 49.8006 13.8522 50.2037 14.1382C50.6067 14.4243 50.8083 14.8287 50.8083 15.3515C50.8083 15.8559 50.6052 16.305 50.1991 16.6986ZM49.5264 23.0096H43.6533V19.116H49.5264C50.3022 19.116 50.8916 19.2882 51.2946 19.6327C51.6977 19.9772 51.8992 20.4569 51.8992 21.0721C51.8992 21.6872 51.6977 22.1639 51.2946 22.5022C50.8916 22.8405 50.3022 23.0096 49.5264 23.0096ZM57.9119 13.1833C58.1847 13.1833 58.4286 13.1448 58.6438 13.068C58.8589 12.9911 59.0423 12.8865 59.1938 12.7543C59.3453 12.622 59.462 12.4682 59.5438 12.2929C59.6256 12.1176 59.6665 11.9315 59.6665 11.7347C59.6665 11.5317 59.6256 11.3426 59.5438 11.1673C59.462 10.992 59.3453 10.8397 59.1938 10.7106C59.0423 10.5814 58.8589 10.4784 58.6438 10.4015C58.4286 10.3246 58.1847 10.2861 57.9119 10.2861C57.6452 10.2861 57.4043 10.3246 57.1891 10.4015C56.974 10.4784 56.7906 10.5814 56.6391 10.7106C56.4876 10.8397 56.3709 10.992 56.2891 11.1673C56.2073 11.3426 56.1664 11.5317 56.1664 11.7347C56.1664 11.9315 56.2073 12.1176 56.2891 12.2929C56.3709 12.4682 56.4876 12.622 56.6391 12.7543C56.7906 12.8865 56.974 12.9911 57.1891 13.068C57.4043 13.1448 57.6452 13.1833 57.9119 13.1833ZM59.2574 25.5562V14.6688H56.5664V25.5562H59.2574ZM73.1615 25.5562V22.9912H64.8974V11.135H62.0154V25.5562H73.1615ZM76.0103 13.1833C76.2831 13.1833 76.527 13.1448 76.7422 13.068C76.9574 12.9911 77.1407 12.8865 77.2922 12.7543C77.4437 12.622 77.5604 12.4682 77.6422 12.2929C77.7241 12.1176 77.765 11.9315 77.765 11.7347C77.765 11.5317 77.7241 11.3426 77.6422 11.1673C77.5604 10.992 77.4437 10.8397 77.2922 10.7106C77.1407 10.5814 76.9574 10.4784 76.7422 10.4015C76.527 10.3246 76.2831 10.2861 76.0103 10.2861C75.7437 10.2861 75.5027 10.3246 75.2876 10.4015C75.0724 10.4784 74.8891 10.5814 74.7375 10.7106C74.586 10.8397 74.4693 10.992 74.3875 11.1673C74.3057 11.3426 74.2648 11.5317 74.2648 11.7347C74.2648 11.9315 74.3057 12.1176 74.3875 12.2929C74.4693 12.4682 74.586 12.622 74.7375 12.7543C74.8891 12.8865 75.0724 12.9911 75.2876 13.068C75.5027 13.1448 75.7437 13.1833 76.0103 13.1833ZM77.3559 25.5562V14.6688H74.6648V25.5562H77.3559ZM82.4685 25.5562V19.0791C82.9594 18.4148 83.5974 17.8996 84.3822 17.5336C85.1671 17.1677 86.0778 16.9324 87.1142 16.8278L86.3233 14.3274C85.6687 14.4996 85.0111 14.7487 84.3504 15.0748C83.6898 15.4008 83.0625 15.7883 82.4685 16.2373V14.6688H79.7775V25.5562H82.4685ZM92.6541 25.75C93.1511 25.75 93.6224 25.7177 94.0679 25.6531C94.5133 25.5885 94.93 25.5008 95.3179 25.3901C95.7058 25.2794 96.0649 25.1502 96.3953 25.0026C96.7256 24.855 97.0301 24.6981 97.3089 24.532V25.5562H100V20.8137C100 18.667 99.5121 17.0739 98.5363 16.0343C97.5605 14.9948 96.0695 14.475 94.0633 14.475C93.6087 14.475 93.139 14.4996 92.6541 14.5488C92.1693 14.598 91.6844 14.6672 91.1995 14.7564C90.7146 14.8456 90.2404 14.9517 89.7767 15.0748C89.3131 15.1978 88.8782 15.3331 88.4721 15.4807L89.2903 17.7228C89.6176 17.569 89.9707 17.4368 90.3495 17.326C90.7283 17.2153 91.1116 17.1231 91.4995 17.0492C91.8874 16.9754 92.2632 16.9201 92.6269 16.8832C92.9905 16.8463 93.3239 16.8278 93.6269 16.8278C94.1845 16.8278 94.683 16.8862 95.1225 17.0031C95.5619 17.12 95.9377 17.2845 96.2498 17.4967C96.5619 17.709 96.8059 17.9611 96.9817 18.2533C97.1574 18.5455 97.2605 18.8638 97.2908 19.2083C96.515 19.0053 95.7619 18.8546 95.0315 18.7562C94.3012 18.6578 93.6057 18.6085 92.9451 18.6085C92.0541 18.6085 91.2738 18.6931 90.604 18.8623C89.9343 19.0314 89.3752 19.2713 88.9267 19.582C88.4782 19.8926 88.1418 20.2632 87.9175 20.6938C87.6933 21.1243 87.5811 21.601 87.5811 22.1239C87.5811 22.6406 87.6887 23.1188 87.9039 23.5586C88.119 23.9984 88.4388 24.3813 88.863 24.7073C89.2873 25.0334 89.8161 25.2886 90.4495 25.4732C91.0828 25.6577 91.8177 25.75 92.6541 25.75ZM92.8905 23.3972C92.4481 23.3972 92.0708 23.3587 91.7586 23.2818C91.4465 23.2049 91.1904 23.1035 90.9904 22.9774C90.7904 22.8513 90.6449 22.7067 90.554 22.5437C90.4631 22.3807 90.4177 22.21 90.4177 22.0316C90.4177 21.8655 90.4601 21.7056 90.5449 21.5518C90.6298 21.3981 90.7753 21.2643 90.9813 21.1505C91.1874 21.0367 91.4571 20.946 91.7905 20.8783C92.1238 20.8106 92.542 20.7768 93.0451 20.7768C93.2875 20.7768 93.5709 20.786 93.8951 20.8045C94.2194 20.8229 94.5649 20.8552 94.9315 20.9014C95.2982 20.9475 95.6831 21.0105 96.0861 21.0905C96.4892 21.1705 96.8968 21.2689 97.3089 21.3858V21.8655C97.1029 22.0624 96.8453 22.2531 96.5362 22.4376C96.2271 22.6221 95.8816 22.7851 95.4998 22.9266C95.1179 23.0681 94.7058 23.1819 94.2633 23.268C93.8209 23.3541 93.3633 23.3972 92.8905 23.3972Z" fill="currentColor"></path><path d="M0 17.3166C0 9.58512 0 5.72506 2.39118 3.31111C4.81653 0.919922 8.67658 0.919922 16.3967 0.919922H17.7631C25.4946 0.919922 29.3546 0.919922 31.7686 3.31111C34.1598 5.73645 34.1598 9.5965 34.1598 17.3166V18.683C34.1598 26.4145 34.1598 30.2746 31.7686 32.6885C29.3433 35.0797 25.4832 35.0797 17.7631 35.0797H16.3967C8.6652 35.0797 4.80514 35.0797 2.39118 32.6885C0 30.2632 0 26.4031 0 18.683V17.3166Z" fill="url(#paint0_linear_603_5169)"></path><path fill-rule="evenodd" clip-rule="evenodd" d="M11.3583 6.8125L13.9247 7.49882V26.4596C18.8694 25.7889 21.4622 22.7778 21.9687 17.1384L21.9834 16.9667L16.4568 15.456V12.823L24.5943 15.0473L24.5952 16.3411L24.5943 16.3808C24.5828 16.8192 24.5383 17.2435 24.4942 17.653C23.8386 23.7416 20.9251 26.7361 17.5627 28.107C15.415 28.8661 13.3468 29.2251 11.3583 29.184V6.8125ZM16.4539 8.1681L22.4598 9.77263V12.4332L16.4539 10.7395V8.1681Z" fill="white"></path><defs><linearGradient id="paint0_linear_603_5169" x1="0" y1="0.919922" x2="34.1598" y2="35.0797" gradientUnits="userSpaceOnUse"><stop stop-color="#BAE1EB"></stop><stop offset="0.548203" stop-color="#6061E6"></stop><stop offset="1" stop-color="#006BFF"></stop></linearGradient></defs></svg>