<svg width="35" height="36" viewBox="0 0 35 36" fill="none" xmlns="http://www.w3.org/2000/svg">
<path d="M0 17.3169C0 9.58536 0 5.72531 2.39118 3.31135C4.81653 0.920166 8.67658 0.920166 16.3967 0.920166H17.7631C25.4946 0.920166 29.3546 0.920166 31.7686 3.31135C34.1598 5.73669 34.1598 9.59675 34.1598 17.3169V18.6833C34.1598 26.4147 34.1598 30.2748 31.7686 32.6888C29.3433 35.0799 25.4832 35.0799 17.7631 35.0799H16.3967C8.6652 35.0799 4.80514 35.0799 2.39118 32.6888C0 30.2634 0 26.4034 0 18.6833V17.3169Z" fill="url(#paint0_linear_648_29559)"/>
<path fill-rule="evenodd" clip-rule="evenodd" d="M11.3583 6.81274L13.9247 7.49906V26.4598C18.8694 25.7891 21.4622 22.778 21.9687 17.1387L21.9834 16.967L16.4568 15.4562V12.8232L24.5943 15.0475L24.5952 16.3413L24.5943 16.3811C24.5828 16.8195 24.5383 17.2438 24.4942 17.6533C23.8386 23.7419 20.9251 26.7363 17.5627 28.1073C15.415 28.8663 13.3468 29.2253 11.3583 29.1842V6.81274ZM16.4539 8.16834L22.4598 9.77288V12.4335L16.4539 10.7398V8.16834Z" fill="white"/>
<defs>
<linearGradient id="paint0_linear_648_29559" x1="0" y1="0.920166" x2="34.1598" y2="35.0799" gradientUnits="userSpaceOnUse">
<stop stop-color="#BAE1EB"/>
<stop offset="0.548203" stop-color="#6061E6"/>
<stop offset="1" stop-color="#006BFF"/>
</linearGradient>
</defs>
</svg>
