<svg width="35" height="36" viewBox="0 0 35 36" fill="none" xmlns="http://www.w3.org/2000/svg">
<path d="M0 17.3169C0 9.58536 0 5.72531 2.39118 3.31135C4.81653 0.920166 8.67658 0.920166 16.3967 0.920166H17.7631C25.4946 0.920166 29.3546 0.920166 31.7686 3.31135C34.1598 5.73669 34.1598 9.59675 34.1598 17.3169V18.6833C34.1598 26.4147 34.1598 30.2748 31.7686 32.6888C29.3433 35.0799 25.4832 35.0799 17.7631 35.0799H16.3967C8.6652 35.0799 4.80514 35.0799 2.39118 32.6888C0 30.2634 0 26.4034 0 18.6833V17.3169Z" fill="url(#paint0_linear_173_1230)"/>
<defs>
<linearGradient id="paint0_linear_173_1230" x1="0" y1="0.920166" x2="34.1598" y2="35.0799" gradientUnits="userSpaceOnUse">
<stop stop-color="#BAE1EB"/>
<stop offset="0.548203" stop-color="#6061E6"/>
<stop offset="1" stop-color="#006BFF"/>
</linearGradient>
</defs>
</svg>
