<svg  viewBox="0 0 24 24" fill="none" xmlns="http://www.w3.org/2000/svg">
<path fill-rule="evenodd" clip-rule="evenodd" d="M4.75541 10.0589C5.82748 6.05793 9.94 3.68356 13.941 4.75562C15.262 5.10958 16.4038 5.79377 17.3036 6.69531L18.9506 8.34232C19.0451 8.43681 18.9782 8.59838 18.8446 8.59838H16.023C15.6088 8.59838 15.273 8.93417 15.273 9.34838C15.273 9.76259 15.6088 10.0984 16.023 10.0984H21.0156C21.2145 10.0984 21.4053 10.0193 21.546 9.87867C21.6866 9.738 21.7656 9.5472 21.7656 9.34827V4.35578C21.7656 3.94156 21.4298 3.60578 21.0156 3.60578C20.6014 3.60578 20.2656 3.94156 20.2656 4.35578V7.17381C20.2656 7.30745 20.104 7.37437 20.0095 7.27988L18.3653 5.63564C17.2841 4.55256 15.9116 3.73074 14.3292 3.30673C9.52803 2.02026 4.593 4.8695 3.30653 9.6707C3.19932 10.0708 3.43676 10.482 3.83686 10.5893C4.23696 10.6965 4.64821 10.459 4.75541 10.0589ZM20.1629 13.4109C19.7628 13.3037 19.3515 13.5411 19.2443 13.9412C18.1722 17.9422 14.0597 20.3166 10.0587 19.2445C8.73774 18.8906 7.59594 18.2064 6.69609 17.3048L5.05007 15.6578C4.95562 15.5632 5.02256 15.4017 5.15617 15.4017H7.97702C8.39123 15.4017 8.72702 15.0659 8.72702 14.6517C8.72702 14.2375 8.39123 13.9017 7.97702 13.9017L2.98438 13.9017C2.57016 13.9017 2.23438 14.2375 2.23438 14.6517V19.6444C2.23438 20.0586 2.57016 20.3944 2.98438 20.3944C3.39859 20.3944 3.73438 20.0586 3.73438 19.6444V16.8255C3.73438 16.6919 3.89599 16.6249 3.99048 16.7195L5.63444 18.3645C6.71564 19.4477 8.08796 20.2694 9.67048 20.6934C14.4717 21.9799 19.4067 19.1306 20.6932 14.3294C20.8004 13.9293 20.563 13.5181 20.1629 13.4109Z" fill="#6B7280"/>
</svg>
