<svg width="24" height="24" viewBox="0 0 24 24" fill="none" xmlns="http://www.w3.org/2000/svg">
<path d="M14.4 10.8C14.0817 10.8 13.7765 10.6736 13.5514 10.4485C13.3264 10.2235 13.2 9.91825 13.2 9.59999V3.59999C13.2 2.93639 13.74 2.39039 14.3964 2.48399C16.1927 2.74294 17.8569 3.57638 19.1402 4.8597C20.4236 6.14302 21.257 7.80727 21.516 9.60359C21.6096 10.26 21.0624 10.8 20.4 10.8H14.4Z" fill="#6B7280"/>
<path d="M9.6035 4.88398C10.2599 4.79038 10.7999 5.33638 10.7999 5.99998V12C10.7999 12.3182 10.9263 12.6235 11.1514 12.8485C11.3764 13.0736 11.6816 13.2 11.9999 13.2H17.9999C18.6623 13.2 19.2095 13.74 19.1159 14.3964C18.8122 16.4979 17.7239 18.4065 16.07 19.7382C14.4161 21.0699 12.3193 21.726 10.2013 21.5744C8.08337 21.4228 6.10136 20.4748 4.65399 18.9212C3.20662 17.3675 2.40126 15.3234 2.3999 13.2C2.40001 11.1793 3.12831 9.22634 4.45134 7.69901C5.77437 6.17167 7.6035 5.17228 9.6035 4.88398Z" fill="#6B7280"/>
</svg>
