<svg width="24" height="24" viewBox="0 0 24 24" fill="none" xmlns="http://www.w3.org/2000/svg">
<path d="M21 6.375C21 9.06739 16.9706 11.25 12 11.25C7.02944 11.25 3 9.06739 3 6.375C3 3.68261 7.02944 1.5 12 1.5C16.9706 1.5 21 3.68261 21 6.375Z" fill="#6B7280"/>
<path d="M12 12.75C14.6852 12.75 17.1905 12.1637 19.0784 11.1411C19.6794 10.8155 20.2549 10.4223 20.7568 9.96437C20.8482 9.88093 20.996 9.93286 20.9991 10.0566C20.9997 10.0794 21 10.1022 21 10.125C21 12.8174 16.9706 15 12 15C7.02944 15 3 12.8174 3 10.125C3 10.1022 3.00029 10.0794 3.00087 10.0566C3.00401 9.93286 3.15177 9.88093 3.24322 9.96437C3.74509 10.4223 4.32061 10.8155 4.92161 11.1411C6.80949 12.1637 9.31481 12.75 12 12.75Z" fill="#6B7280"/>
<path d="M12 16.5C14.6852 16.5 17.1905 15.9137 19.0784 14.8911C19.6794 14.5655 20.2549 14.1723 20.7568 13.7144C20.8482 13.6309 20.996 13.6829 20.9991 13.8066C20.9997 13.8294 21 13.8522 21 13.875C21 16.5674 16.9706 18.75 12 18.75C7.02944 18.75 3 16.5674 3 13.875C3 13.8522 3.00029 13.8294 3.00087 13.8066C3.00401 13.6829 3.15177 13.6309 3.24322 13.7144C3.74509 14.1723 4.32061 14.5655 4.92161 14.8911C6.80949 15.9137 9.31481 16.5 12 16.5Z" fill="#6B7280"/>
<path d="M12 20.25C14.6852 20.25 17.1905 19.6637 19.0784 18.6411C19.6794 18.3155 20.2549 17.9223 20.7568 17.4644C20.8482 17.3809 20.996 17.4329 20.9991 17.5566C20.9997 17.5794 21 17.6022 21 17.625C21 20.3174 16.9706 22.5 12 22.5C7.02944 22.5 3 20.3174 3 17.625C3 17.6022 3.00029 17.5794 3.00087 17.5566C3.00401 17.4329 3.15177 17.3809 3.24322 17.4644C3.74509 17.9223 4.32061 18.3155 4.92161 18.6411C6.80949 19.6637 9.31481 20.25 12 20.25Z" fill="#6B7280"/>
</svg>
