<svg xmlns="http://www.w3.org/2000/svg" width="24" height="24" viewBox="0 0 24 24" fill="none">
  <path d="M6.9504 21C6.22602 21 5.56341 20.8232 4.96256 20.4696C4.36172 20.1104 3.88442 19.6305 3.53065 19.0299C3.17688 18.4294 3 17.7699 3 17.0514C3 16.3218 3.17688 15.6595 3.53065 15.0645C3.88442 14.464 4.36172 13.9841 4.96256 13.6249C5.56341 13.2657 6.22321 13.0861 6.94198 13.0861H8.60973V10.8971H6.94198C6.22321 10.8971 5.56341 10.7203 4.96256 10.3667C4.36172 10.0131 3.88442 9.53882 3.53065 8.94387C3.17688 8.34331 3 7.6782 3 6.94855C3 6.2189 3.17688 5.5566 3.53065 4.96165C3.88442 4.3667 4.36172 3.89242 4.96256 3.53882C5.56341 3.17961 6.22321 3 6.94198 3C7.67759 3 8.343 3.17961 8.93823 3.53882C9.53907 3.89242 10.0164 4.3667 10.3701 4.96165C10.7295 5.5566 10.9092 6.2189 10.9092 6.94855V8.59027H13.1076V6.94855C13.1076 6.2189 13.2845 5.5566 13.6383 4.96165C13.992 4.3667 14.4665 3.89242 15.0618 3.53882C15.6626 3.17961 16.3252 3 17.0496 3C17.7796 3 18.4422 3.17961 19.0374 3.53882C19.6383 3.89242 20.1156 4.3667 20.4693 4.96165C20.8231 5.5566 21 6.2189 21 6.94855C21 7.6782 20.8231 8.34331 20.4693 8.94387C20.1156 9.53882 19.6383 10.0131 19.0374 10.3667C18.4422 10.7203 17.7796 10.8971 17.0496 10.8971H15.4071V13.0861H17.0496C17.7796 13.0861 18.4422 13.2657 19.0374 13.6249C19.6383 13.9841 20.1156 14.464 20.4693 15.0645C20.8231 15.6595 21 16.3218 21 17.0514C21 17.7755 20.8231 18.4378 20.4693 19.0384C20.1156 19.6333 19.6383 20.1104 19.0374 20.4696C18.4422 20.8232 17.7796 21 17.0496 21C16.3252 21 15.6626 20.8232 15.0618 20.4696C14.4665 20.1104 13.992 19.6305 13.6383 19.0299C13.2845 18.4294 13.1076 17.7699 13.1076 17.0514V15.3929H10.9092V17.0514C10.9092 17.7699 10.7295 18.4294 10.3701 19.0299C10.0164 19.6305 9.53907 20.1104 8.93823 20.4696C8.343 20.8232 7.68039 21 6.9504 21ZM6.94198 18.6932C7.25082 18.6932 7.52878 18.6202 7.77585 18.4743C8.02854 18.3283 8.2307 18.1291 8.38231 17.8765C8.53393 17.6239 8.60973 17.3489 8.60973 17.0514V15.3929H6.9504C6.64717 15.3929 6.36921 15.4687 6.11652 15.6202C5.86944 15.7661 5.6701 15.9654 5.51848 16.218C5.37248 16.4705 5.29948 16.7484 5.29948 17.0514C5.29948 17.3489 5.37248 17.6239 5.51848 17.8765C5.6701 18.1291 5.86944 18.3283 6.11652 18.4743C6.36921 18.6202 6.64436 18.6932 6.94198 18.6932ZM6.94198 8.59027H8.60973V6.94855C8.60973 6.64546 8.53393 6.37044 8.38231 6.12348C8.2307 5.87091 8.02854 5.67166 7.77585 5.52573C7.52878 5.37979 7.25082 5.30683 6.94198 5.30683C6.64436 5.30683 6.36921 5.37979 6.11652 5.52573C5.86944 5.67166 5.6701 5.87091 5.51848 6.12348C5.37248 6.37044 5.29948 6.64546 5.29948 6.94855C5.29948 7.25164 5.37248 7.52947 5.51848 7.78204C5.6701 8.029 5.86944 8.22544 6.11652 8.37137C6.36921 8.51731 6.64436 8.59027 6.94198 8.59027ZM15.4071 8.59027H17.0496C17.3584 8.59027 17.6364 8.51731 17.8835 8.37137C18.1306 8.22544 18.3271 8.029 18.4731 7.78204C18.6247 7.52947 18.7005 7.25164 18.7005 6.94855C18.7005 6.64546 18.6247 6.37044 18.4731 6.12348C18.3271 5.87091 18.1306 5.67166 17.8835 5.52573C17.6364 5.37979 17.3584 5.30683 17.0496 5.30683C16.7464 5.30683 16.4684 5.37979 16.2157 5.52573C15.9686 5.67166 15.7721 5.87091 15.6261 6.12348C15.4801 6.37044 15.4071 6.64546 15.4071 6.94855V8.59027ZM17.058 18.6932C17.3613 18.6932 17.6364 18.6202 17.8835 18.4743C18.1306 18.3283 18.3271 18.1291 18.4731 17.8765C18.6247 17.6239 18.7005 17.3489 18.7005 17.0514C18.7005 16.7484 18.6247 16.4705 18.4731 16.218C18.3271 15.9654 18.1306 15.7661 17.8835 15.6202C17.6364 15.4687 17.3584 15.3929 17.0496 15.3929H15.4071V17.0514C15.4071 17.3545 15.4801 17.6324 15.6261 17.8849C15.7721 18.1319 15.9686 18.3283 16.2157 18.4743C16.4684 18.6202 16.7492 18.6932 17.058 18.6932ZM10.9092 13.0861H13.1076V10.8971H10.9092V13.0861Z" fill="#6B7280"/>
</svg>