<svg width="24" height="24" viewBox="0 0 24 24" fill="none" xmlns="http://www.w3.org/2000/svg">
<path d="M12 2.25C9.67936 2.25 7.45376 3.17187 5.81282 4.81282C4.19158 6.43406 3.27224 8.62599 3.2504 10.9164C2.68943 11.0755 2.19236 11.409 1.83259 11.8697C1.45515 12.353 1.25009 12.9486 1.25 13.5619V15.439C1.25009 16.0522 1.45515 16.648 1.83259 17.1313C2.19236 17.592 2.68906 17.9254 3.25 18.0844L5.0731 18.5416C5.27222 18.5912 5.48067 18.5949 5.68137 18.5521C5.88206 18.5094 6.07037 18.4214 6.23198 18.2949C6.39358 18.1685 6.52423 18.0068 6.61399 17.8223C6.70366 17.638 6.75017 17.4357 6.75 17.2307V11.768C6.74993 11.563 6.70316 11.3604 6.61325 11.1762C6.52334 10.9919 6.39266 10.8306 6.23109 10.7044C6.06953 10.5781 5.88135 10.4904 5.68082 10.4477C5.48029 10.4051 5.27269 10.4087 5.07375 10.4582L5.0727 10.4585L4.76487 10.5356C4.87734 8.78232 5.62371 7.12325 6.87348 5.87348C8.23311 4.51384 10.0772 3.75 12 3.75C13.9228 3.75 15.7669 4.51384 17.1265 5.87348C18.3763 7.12325 19.1227 8.78232 19.2351 10.5356L18.9273 10.4585L18.9263 10.4582C18.7273 10.4087 18.5197 10.4051 18.3192 10.4477C18.1186 10.4904 17.9305 10.5781 17.7689 10.7044C17.6073 10.8306 17.4767 10.9919 17.3867 11.1762C17.2968 11.3604 17.2501 11.563 17.25 11.768V17.2307C17.2498 17.4357 17.2963 17.638 17.386 17.8223C17.4758 18.0068 17.6064 18.1685 17.768 18.2949C17.9296 18.4214 18.1179 18.5094 18.3186 18.5521C18.5193 18.5949 18.7278 18.5912 18.9269 18.5416L19.25 18.4608V18.5C19.25 18.8315 19.1183 19.1495 18.8839 19.3839C18.6495 19.6183 18.3315 19.75 18 19.75H15.6213C15.5105 19.4366 15.3305 19.1486 15.091 18.909C14.669 18.4871 14.0967 18.25 13.5 18.25H10.5C9.90326 18.25 9.33097 18.4871 8.90901 18.909C8.48705 19.331 8.25 19.9033 8.25 20.5C8.25 21.0967 8.48705 21.669 8.90901 22.091C9.33097 22.5129 9.90326 22.75 10.5 22.75H13.5C14.0967 22.75 14.669 22.5129 15.091 22.091C15.3305 21.8514 15.5105 21.5634 15.6213 21.25H18C18.7293 21.25 19.4288 20.9603 19.9445 20.4445C20.4603 19.9288 20.75 19.2293 20.75 18.5V18.0844C21.3109 17.9254 21.8076 17.592 22.1674 17.1313C22.5448 16.648 22.7499 16.0522 22.75 15.439V13.5619C22.7499 12.9486 22.5448 12.353 22.1674 11.8697C21.8076 11.409 21.3106 11.0755 20.7496 10.9164C20.7278 8.62599 19.8084 6.43406 18.1872 4.81282C16.5462 3.17187 14.3206 2.25 12 2.25Z" fill="#6B7280"/>
</svg>
