<svg width="24" height="24" viewBox="0 0 24 24" fill="none" xmlns="http://www.w3.org/2000/svg">
<path fill-rule="evenodd" clip-rule="evenodd" d="M9.75 6.75H6.75C5.95435 6.75 5.19129 7.06607 4.62868 7.62868C4.06607 8.19129 3.75 8.95435 3.75 9.75V17.25C3.75 18.0456 4.06607 18.8087 4.62868 19.3713C5.19129 19.9339 5.95435 20.25 6.75 20.25H14.25C15.0456 20.25 15.8087 19.9339 16.3713 19.3713C16.9339 18.8087 17.25 18.0456 17.25 17.25V9.75C17.25 8.95435 16.9339 8.19129 16.3713 7.62868C15.8087 7.06607 15.0456 6.75 14.25 6.75H11.25V1.5C11.25 1.30109 11.171 1.11032 11.0303 0.96967C10.8897 0.829018 10.6989 0.75 10.5 0.75C10.3011 0.75 10.1103 0.829018 9.96967 0.96967C9.82902 1.11032 9.75 1.30109 9.75 1.5V6.75ZM9.75 6.75H11.25V12.44L12.97 10.72C13.0387 10.6463 13.1215 10.5872 13.2135 10.5462C13.3055 10.5052 13.4048 10.4832 13.5055 10.4814C13.6062 10.4796 13.7062 10.4982 13.7996 10.5359C13.893 10.5736 13.9778 10.6297 14.049 10.701C14.1203 10.7722 14.1764 10.857 14.2141 10.9504C14.2518 11.0438 14.2704 11.1438 14.2686 11.2445C14.2668 11.3452 14.2448 11.4445 14.2038 11.5365C14.1628 11.6285 14.1037 11.7113 14.03 11.78L11.03 14.78C10.8894 14.9205 10.6988 14.9993 10.5 14.9993C10.3012 14.9993 10.1106 14.9205 9.97 14.78L6.97 11.78C6.89631 11.7113 6.83721 11.6285 6.79622 11.5365C6.75523 11.4445 6.73319 11.3452 6.73141 11.2445C6.72963 11.1438 6.74816 11.0438 6.78588 10.9504C6.8236 10.857 6.87974 10.7722 6.95096 10.701C7.02218 10.6297 7.10701 10.5736 7.2004 10.5359C7.29379 10.4982 7.39382 10.4796 7.49452 10.4814C7.59523 10.4832 7.69454 10.5052 7.78654 10.5462C7.87854 10.5872 7.96134 10.6463 8.03 10.72L9.75 12.44V6.75Z" fill="#6B7280"/>
<path fill-rule="evenodd" clip-rule="evenodd" d="M14.0303 5.03033C13.7374 5.32322 13.2626 5.32322 12.9697 5.03033L10.5 2.56066L8.03033 5.03033C7.73744 5.32322 7.26256 5.32322 6.96967 5.03033C6.67678 4.73744 6.67678 4.26256 6.96967 3.96967L9.96967 0.96967C10.2626 0.676777 10.7374 0.676777 11.0303 0.96967L14.0303 3.96967C14.3232 4.26256 14.3232 4.73744 14.0303 5.03033Z" fill="#6B7280"/>
<path d="M7.15088 21.75C7.41418 22.2063 7.79303 22.5851 8.24928 22.8484C8.70553 23.1118 9.22309 23.2503 9.74988 23.25H17.2499C18.0455 23.25 18.8086 22.9339 19.3712 22.3713C19.9338 21.8087 20.2499 21.0457 20.2499 20.25V12.75C20.2499 11.64 19.6469 10.67 18.7499 10.151V17.25C18.7499 18.4435 18.2758 19.5881 17.4319 20.432C16.5879 21.2759 15.4434 21.75 14.2499 21.75H7.15088Z" fill="#6B7280"/>
</svg>
