<svg  viewBox="0 0 24 24" fill="none" xmlns="http://www.w3.org/2000/svg">
<path fill-rule="evenodd" clip-rule="evenodd" d="M21.5303 4.25995C21.3643 3.23231 20.7444 2.61351 19.7459 2.4723C19.7215 2.46648 17.2897 2 13.4732 2C9.65783 2 7.22599 2.46648 7.2096 2.47018C6.42842 2.58125 5.88367 2.98162 5.60071 3.62951C7.23611 3.44872 8.88038 3.3599 10.5257 3.36348C14.2248 3.36348 16.6857 3.78871 17.0469 3.85535C18.6754 4.09969 19.8078 5.2294 20.0817 6.88483C20.2002 7.42429 20.5746 9.32089 20.5746 11.5851C20.5746 12.7973 20.4657 13.9095 20.3483 14.7595C20.9935 14.4866 21.3997 13.9397 21.5277 13.1495C21.5319 13.13 22 11.1323 22 8.69892C22 6.26603 21.5319 4.26841 21.5293 4.25942" fill="#6B7280"/>
<path fill-rule="evenodd" clip-rule="evenodd" d="M18.5828 7.1461C18.4167 6.11793 17.7964 5.49913 16.7983 5.35739C16.774 5.3521 14.3422 4.88668 10.5262 4.88668C6.71082 4.88668 4.27846 5.3521 4.26259 5.35633C3.25611 5.49913 2.63625 6.11793 2.47283 7.13499C2.46754 7.15456 2 9.15217 2 11.5856C2 14.0185 2.46754 16.0161 2.47018 16.0246C2.63625 17.0527 3.25611 17.6715 4.25466 17.8133C4.27423 17.817 5.8519 18.119 8.45034 18.2369L9.99893 20.9194C10.0523 21.012 10.1292 21.0889 10.2218 21.1424C10.3143 21.1959 10.4193 21.224 10.5262 21.224C10.6331 21.224 10.7381 21.1959 10.8307 21.1424C10.9233 21.0889 11.0001 21.012 11.0535 20.9194L12.6027 18.2374C15.2011 18.119 16.7772 17.8175 16.7904 17.8143C17.7964 17.6715 18.4167 17.0527 18.5802 16.0357C18.5855 16.0161 19.0525 14.0185 19.0525 11.5856C19.0525 9.15217 18.5849 7.15456 18.5828 7.1461Z" fill="#6B7280"/>
</svg>
