<svg  viewBox="0 0 24 24" fill="none" xmlns="http://www.w3.org/2000/svg">
<path fill-rule="evenodd" clip-rule="evenodd" d="M22 12C22 6.477 17.523 2 12 2C6.477 2 2 6.477 2 12C2 16.9305 5.56886 21.0276 10.2646 21.8492C10.3553 21.8651 10.438 21.7947 10.438 21.7026V15.041C10.438 14.9582 10.3708 14.891 10.288 14.891H8.048C7.96516 14.891 7.898 14.8238 7.898 14.741V12.15C7.898 12.0672 7.96516 12 8.048 12H10.288C10.3708 12 10.438 11.9328 10.438 11.85V9.797C10.438 7.291 11.93 5.907 14.215 5.907C15.0931 5.907 16.0035 6.03264 16.3285 6.08222C16.4008 6.09324 16.453 6.15548 16.453 6.2286V8.412C16.453 8.49484 16.3858 8.562 16.303 8.562H15.193C13.95 8.562 13.563 9.333 13.563 10.124V11.85C13.563 11.9328 13.6302 12 13.713 12H16.1613C16.2532 12 16.3234 12.0819 16.3095 12.1727L15.9125 14.7627C15.9013 14.8359 15.8383 14.89 15.7642 14.89H13.713C13.6302 14.89 13.563 14.9572 13.563 15.04V21.7026C13.563 21.7947 13.6457 21.8651 13.7364 21.8492C18.4312 21.0275 22 16.9305 22 12Z" fill="#6B7280"/>
</svg>
