<svg width="24" height="24" viewBox="0 0 24 24" fill="none" xmlns="http://www.w3.org/2000/svg">
<path d="M21.6619 12.7923C21.6996 12.7668 21.7235 12.7254 21.7267 12.68C21.7421 12.4553 21.75 12.2286 21.75 12C21.75 10.5487 21.4329 9.17147 20.8642 7.9338C20.8219 7.84158 20.7016 7.8197 20.6268 7.88839C19.4487 8.9715 18.0662 9.83573 16.5438 10.4166C16.481 10.4405 16.4412 10.5029 16.4463 10.5699C16.4819 11.0419 16.5 11.5189 16.5 12C16.5 13.0217 16.4183 14.0243 16.261 15.0017C16.2438 15.1088 16.3415 15.1994 16.4465 15.1715C18.3312 14.6701 20.0892 13.8576 21.6619 12.7923Z" fill="#6B7280"/>
<path d="M14.5315 15.5656C14.5933 15.5565 14.6429 15.5096 14.6553 15.4483C14.8813 14.3341 15 13.1809 15 12C15 11.6918 14.9919 11.3854 14.9759 11.0811C14.9711 10.9882 14.8829 10.9231 14.7921 10.9433C13.8935 11.1441 12.9591 11.25 12 11.25C11.0409 11.25 10.1065 11.1441 9.20789 10.9433C9.11707 10.9231 9.02893 10.9882 9.02406 11.0811C9.00809 11.3854 9 11.6918 9 12C9 13.1809 9.11866 14.3341 9.34471 15.4483C9.35715 15.5096 9.40666 15.5565 9.46854 15.5656C10.2948 15.6871 11.14 15.75 12 15.75C12.86 15.75 13.7052 15.6871 14.5315 15.5656Z" fill="#6B7280"/>
<path d="M9.84218 17.3392C9.8086 17.2359 9.89376 17.1333 10.0017 17.1448C10.6583 17.2143 11.325 17.25 12 17.25C12.675 17.25 13.3417 17.2143 13.9983 17.1448C14.1062 17.1333 14.1914 17.2359 14.1578 17.3392C13.6694 18.8411 12.9805 20.2527 12.1227 21.5422C12.0642 21.63 11.9358 21.63 11.8773 21.5422C11.0195 20.2527 10.3306 18.8411 9.84218 17.3392Z" fill="#6B7280"/>
<path d="M7.55354 15.1715C7.65845 15.1994 7.75622 15.1088 7.73898 15.0017C7.58172 14.0243 7.5 13.0217 7.5 12C7.5 11.5189 7.51812 11.0419 7.55373 10.5699C7.55878 10.5029 7.51903 10.4405 7.45625 10.4166C5.93379 9.83573 4.55126 8.9715 3.37315 7.88839C3.29844 7.8197 3.17814 7.84158 3.13577 7.9338C2.56709 9.17147 2.25 10.5487 2.25 12C2.25 12.2286 2.25787 12.4553 2.27334 12.68C2.27647 12.7254 2.3004 12.7668 2.33809 12.7923C3.91084 13.8576 5.66877 14.6701 7.55354 15.1715Z" fill="#6B7280"/>
<path d="M21.0298 14.9364C21.1483 14.8712 21.2867 14.9816 21.2435 15.1098C20.1746 18.2885 17.5119 20.735 14.2054 21.4995C14.0791 21.5287 13.982 21.3924 14.0463 21.2798C14.8169 19.9294 15.4246 18.4738 15.8424 16.94C15.8573 16.8854 15.9014 16.8436 15.9568 16.8317C17.7574 16.445 19.462 15.7996 21.0298 14.9364Z" fill="#6B7280"/>
<path d="M2.75646 15.1098C2.71332 14.9816 2.85167 14.8712 2.97023 14.9364C4.53804 15.7996 6.24264 16.445 8.04324 16.8317C8.09858 16.8436 8.14273 16.8854 8.1576 16.94C8.57541 18.4738 9.18305 19.9294 9.95372 21.2798C10.018 21.3924 9.9209 21.5287 9.79463 21.4995C6.48808 20.735 3.82545 18.2885 2.75646 15.1098Z" fill="#6B7280"/>
<path d="M14.0463 2.72019C13.982 2.60763 14.0792 2.4713 14.2054 2.50049C16.5453 3.04156 18.5628 4.42489 19.9212 6.31392C19.9635 6.37279 19.9566 6.4536 19.9051 6.50455C18.9083 7.48894 17.7287 8.28854 16.4217 8.84775C16.3332 8.88562 16.2334 8.82975 16.2167 8.73492C15.8385 6.58105 15.0927 4.55378 14.0463 2.72019Z" fill="#6B7280"/>
<path d="M11.8773 2.45784C11.9358 2.36997 12.0642 2.36997 12.1227 2.45784C13.4608 4.46939 14.388 6.77791 14.7841 9.26349C14.7963 9.33951 14.7483 9.41218 14.6735 9.43042C13.8166 9.63928 12.9212 9.75001 12 9.75001C11.0788 9.75001 10.1834 9.63928 9.32653 9.43042C9.25173 9.41218 9.20373 9.33951 9.21585 9.26349C9.61204 6.77792 10.5392 4.46939 11.8773 2.45784Z" fill="#6B7280"/>
<path d="M9.79456 2.50049C9.92083 2.47129 10.018 2.60763 9.95373 2.72019C8.90735 4.55378 8.16151 6.58105 7.7833 8.73492C7.76664 8.82975 7.66679 8.88562 7.57828 8.84775C6.27129 8.28853 5.09165 7.48894 4.09495 6.50455C4.04336 6.4536 4.03648 6.37279 4.07881 6.31392C5.43722 4.42489 7.45465 3.04156 9.79456 2.50049Z" fill="#6B7280"/>
</svg>
