<svg width="24" height="24" viewBox="0 0 24 24" fill="none" xmlns="http://www.w3.org/2000/svg">
<path fill-rule="evenodd" clip-rule="evenodd" d="M7.90918 3.65915C5.55681 3.65915 3.65918 5.55677 3.65918 7.90912V16.0909C3.65918 18.4432 5.55681 20.3409 7.90918 20.3409H16.091C18.4434 20.3409 20.341 18.4432 20.341 16.0909V7.90912C20.341 5.55677 18.4434 3.65915 16.091 3.65915H7.90918ZM2.15918 7.90912C2.15918 4.72833 4.72839 2.15915 7.90918 2.15915H16.091C19.2718 2.15915 21.841 4.72833 21.841 7.90912V16.0909C21.841 19.2717 19.2718 21.8409 16.091 21.8409H7.90918C4.72839 21.8409 2.15918 19.2717 2.15918 16.0909V7.90912Z" fill="#6B7280"/>
<path fill-rule="evenodd" clip-rule="evenodd" d="M16.7002 6.54C16.7002 6.12579 17.036 5.79 17.4502 5.79H17.4577C17.8719 5.79 18.2077 6.12579 18.2077 6.54V6.5475C18.2077 6.96172 17.8719 7.2975 17.4577 7.2975H17.4502C17.036 7.2975 16.7002 6.96172 16.7002 6.5475V6.54Z" fill="#6B7280"/>
<path fill-rule="evenodd" clip-rule="evenodd" d="M12.0002 8.65912C10.1497 8.65912 8.65927 10.1495 8.65927 12C8.65927 13.8505 10.1497 15.3409 12.0002 15.3409C13.8507 15.3409 15.3411 13.8505 15.3411 12C15.3411 10.1495 13.8507 8.65912 12.0002 8.65912ZM7.15927 12C7.15927 9.32107 9.32124 7.15912 12.0002 7.15912C14.6791 7.15912 16.8411 9.32107 16.8411 12C16.8411 14.6789 14.6791 16.8409 12.0002 16.8409C9.32124 16.8409 7.15927 14.6789 7.15927 12Z" fill="#6B7280"/>
</svg>
