<svg  viewBox="0 0 24 24" fill="none" xmlns="http://www.w3.org/2000/svg">
<path d="M20.5 2H3.5C3.10218 2 2.72064 2.15804 2.43934 2.43934C2.15804 2.72064 2 3.10218 2 3.5V20.5C2 20.8978 2.15804 21.2794 2.43934 21.5607C2.72064 21.842 3.10218 22 3.5 22H20.5C20.8978 22 21.2794 21.842 21.5607 21.5607C21.842 21.2794 22 20.8978 22 20.5V3.5C22 3.10218 21.842 2.72064 21.5607 2.43934C21.2794 2.15804 20.8978 2 20.5 2ZM8 18.85C8 18.9328 7.93284 19 7.85 19H5.15C5.06716 19 5 18.9328 5 18.85V10.15C5 10.0672 5.06716 10 5.15 10H7.85C7.93284 10 8 10.0672 8 10.15V18.85ZM6.5 8.25C6.15618 8.24017 5.82288 8.12924 5.54175 7.93108C5.26062 7.73291 5.04411 7.45629 4.9193 7.13578C4.79448 6.81527 4.76687 6.46508 4.83994 6.12897C4.913 5.79286 5.0835 5.48574 5.33011 5.24597C5.57673 5.00621 5.88853 4.84443 6.22656 4.78086C6.5646 4.71729 6.91387 4.75475 7.23074 4.88854C7.5476 5.02234 7.81802 5.24655 8.00819 5.53315C8.19836 5.81975 8.29986 6.15604 8.3 6.5C8.2921 6.97035 8.09834 7.41845 7.76105 7.74637C7.42376 8.07428 6.97039 8.25535 6.5 8.25ZM18.9989 18.8489C18.9995 18.9322 18.9322 19 18.8489 19H16.15C16.0672 19 16 18.9328 16 18.85V14.26C16 12.84 15.4 12.33 14.62 12.33C14.3913 12.3452 14.1679 12.4055 13.9625 12.5073C13.7572 12.6091 13.574 12.7505 13.4235 12.9234C13.273 13.0962 13.1581 13.2971 13.0854 13.5144C13.0141 13.7276 12.9848 13.9525 12.9991 14.1767C12.9997 14.1855 12.9995 14.1944 12.9987 14.2033C12.9951 14.2455 12.9955 14.2879 13 14.33V18.85C13 18.9328 12.9328 19 12.85 19H10.15C10.0672 19 10 18.9328 10 18.85V10.15C10 10.0672 10.0672 10 10.15 10H12.75C12.8328 10 12.9 10.0672 12.9 10.15V10.7987C12.9 10.9477 13.1071 11.0148 13.2078 10.9051C13.4528 10.6383 13.7434 10.4153 14.0672 10.2474C14.54 10.0023 15.0677 9.88267 15.6 9.9C17.15 9.9 18.96 10.76 18.96 13.56L18.9989 18.8489Z" fill="#6B7280"/>
</svg>
