<svg  viewBox="0 0 24 24" fill="none" xmlns="http://www.w3.org/2000/svg">
<path d="M20.6716 14.409C21.1933 12.5312 21.0913 10.5348 20.381 8.71987C19.6707 6.90497 18.3904 5.36969 16.7327 4.34482C15.075 3.31996 13.1293 2.86091 11.1883 3.03668C9.24732 3.21244 7.41582 4.01353 5.96916 5.31951C4.5225 6.62549 3.53886 8.36578 3.16613 10.2788C2.79339 12.1917 3.0517 14.174 3.90222 15.9276C4.75273 17.6812 6.1495 19.1113 7.88253 20.0029C9.61555 20.8945 11.5912 21.1995 13.5124 20.872L13.1041 18.4766C11.7016 18.7157 10.2594 18.493 8.99424 17.8421C7.72913 17.1912 6.7095 16.1472 6.08862 14.8671C5.46774 13.587 5.27918 12.14 5.55127 10.7435C5.82337 9.34702 6.54142 8.07661 7.59749 7.12324C8.65355 6.16988 9.99055 5.58508 11.4075 5.45677C12.8244 5.32846 14.2447 5.66357 15.4549 6.41172C16.665 7.15987 17.5996 8.28063 18.1181 9.60551C18.6366 10.9304 18.7111 12.3878 18.3303 13.7586L20.6716 14.409Z" fill="#6B7280"/>
</svg>
