<svg  viewBox="0 0 24 24" fill="none" xmlns="http://www.w3.org/2000/svg">
<path fill-rule="evenodd" clip-rule="evenodd" d="M6.0001 10.8V8.4C6.0001 6.8087 6.63224 5.28258 7.75746 4.15736C8.88268 3.03214 10.4088 2.4 12.0001 2.4C13.5914 2.4 15.1175 3.03214 16.2427 4.15736C17.368 5.28258 18.0001 6.8087 18.0001 8.4V10.8C18.6366 10.8 19.2471 11.0529 19.6972 11.5029C20.1472 11.953 20.4001 12.5635 20.4001 13.2V19.2C20.4001 19.8365 20.1472 20.447 19.6972 20.8971C19.2471 21.3471 18.6366 21.6 18.0001 21.6H6.0001C5.36358 21.6 4.75313 21.3471 4.30304 20.8971C3.85295 20.447 3.6001 19.8365 3.6001 19.2V13.2C3.6001 12.5635 3.85295 11.953 4.30304 11.5029C4.75313 11.0529 5.36358 10.8 6.0001 10.8ZM15.6001 8.4V10.8H8.4001V8.4C8.4001 7.44522 8.77938 6.52955 9.45451 5.85442C10.1296 5.17929 11.0453 4.8 12.0001 4.8C12.9549 4.8 13.8706 5.17929 14.5457 5.85442C15.2208 6.52955 15.6001 7.44522 15.6001 8.4Z" fill="#6B7280"/>
</svg>
