<svg width="24" height="24" viewBox="0 0 24 24" fill="none" xmlns="http://www.w3.org/2000/svg">
<path d="M5.73333 4.36624C5.66261 4.47494 5.76593 4.60597 5.89327 4.58143C6.17058 4.52799 6.45695 4.5 6.74986 4.5H17.2499C17.5428 4.5 17.8291 4.52799 18.1065 4.58143C18.2338 4.60597 18.3371 4.47494 18.2664 4.36624C17.7314 3.54382 16.8041 3 15.7499 3H8.24986C7.1956 3 6.26835 3.54382 5.73333 4.36624Z" fill="#6B7280"/>
<path d="M2.25 12C2.25 10.3431 3.59315 9 5.25 9H18.75C20.4069 9 21.75 10.3431 21.75 12V18C21.75 19.6569 20.4069 21 18.75 21H5.25C3.59315 21 2.25 19.6569 2.25 18V12Z" fill="#6B7280"/>
<path d="M5.24986 7.5C4.95695 7.5 4.67058 7.52799 4.39327 7.58143C4.26593 7.60597 4.16261 7.47494 4.23333 7.36624C4.76835 6.54382 5.6956 6 6.74986 6H17.2499C18.3041 6 19.2314 6.54382 19.7664 7.36624C19.8371 7.47494 19.7338 7.60597 19.6065 7.58143C19.3291 7.52799 19.0428 7.5 18.7499 7.5H5.24986Z" fill="#6B7280"/>
</svg>
