<svg  viewBox="0 0 24 24" fill="none" xmlns="http://www.w3.org/2000/svg">
<path d="M21.7121 4.34603C21.6417 4.14288 21.5577 4.086 21.4277 4.03724C21.1433 3.9289 20.6611 4.09142 20.6611 4.09142C20.6611 4.09142 3.57242 10.2319 2.59731 10.9117C2.38604 11.058 2.31562 11.142 2.28311 11.2422C2.11518 11.727 2.64065 11.941 2.64065 11.941L7.04487 13.3766C7.04487 13.3766 7.2101 13.401 7.26698 13.363C8.26917 12.7292 17.3485 6.99777 17.8712 6.80546C17.9552 6.78108 18.0148 6.80817 17.9986 6.86505C17.79 7.60179 9.90518 14.609 9.90518 14.609C9.90518 14.609 9.87539 14.6469 9.85643 14.6903L9.84559 14.6848L9.43388 19.0539C9.43388 19.0539 9.26053 20.3919 10.6013 19.0539C11.5466 18.1086 12.4594 17.3203 12.9172 16.9357C14.4313 17.9812 16.0619 19.1378 16.7634 19.7419C17.1155 20.0452 17.4135 20.094 17.6546 20.0858C18.3209 20.0615 18.5078 19.3274 18.5078 19.3274C18.5078 19.3274 21.6227 6.79462 21.7256 5.11528C21.7365 4.95005 21.75 4.84712 21.75 4.73336C21.75 4.57626 21.7365 4.41916 21.7121 4.34332V4.34603Z" fill="#6B7280"/>
</svg>
