<svg  viewBox="0 0 24 24" fill="none" xmlns="http://www.w3.org/2000/svg">
<path fill-rule="evenodd" clip-rule="evenodd" d="M16.5001 4.47819V4.56808C16.5001 4.64563 16.5592 4.71036 16.6364 4.71765C17.545 4.80338 18.4463 4.91405 19.3398 5.04898C19.6871 5.10143 20.0332 5.15755 20.3781 5.2173C20.7863 5.28799 21.0598 5.67617 20.9891 6.0843C20.9184 6.49244 20.5302 6.76598 20.1221 6.69529C20.1064 6.69257 20.0907 6.68985 20.075 6.68715C19.9881 6.67219 19.9073 6.73535 19.9005 6.82328L18.9077 19.7301C18.7875 21.2931 17.4842 22.5 15.9166 22.5H8.08369C6.51608 22.5 5.21276 21.2931 5.09253 19.7301L4.0997 6.82327C4.09293 6.73535 4.01215 6.67219 3.92525 6.68715C3.90954 6.68985 3.89384 6.69257 3.87813 6.69529C3.47 6.76598 3.08183 6.49244 3.01113 6.0843C2.94043 5.67617 3.21398 5.28799 3.62211 5.2173C3.96701 5.15755 4.31315 5.10143 4.66048 5.04898C5.55392 4.91405 6.45526 4.80338 7.36381 4.71765C7.44101 4.71036 7.50012 4.64563 7.50012 4.56808V4.47819C7.50012 2.91371 8.71265 1.57818 10.3156 1.52691C10.8749 1.50901 11.4365 1.5 12.0001 1.5C12.5638 1.5 13.1253 1.50901 13.6847 1.52691C15.2876 1.57818 16.5001 2.91371 16.5001 4.47819ZM10.3635 3.02614C10.9069 3.00876 11.4525 3 12.0001 3C12.5478 3 13.0934 3.00876 13.6367 3.02614C14.3913 3.05028 15.0001 3.68393 15.0001 4.47819C15.0001 4.53926 14.9487 4.58769 14.8877 4.58412C13.9322 4.5283 12.9694 4.5 12.0001 4.5C11.0308 4.5 10.068 4.5283 9.11256 4.58412C9.05159 4.58769 9.00012 4.53926 9.00012 4.47819C9.00012 3.68393 9.6089 3.05028 10.3635 3.02614ZM10.0087 8.97118C9.9928 8.55727 9.64436 8.23463 9.23045 8.25055C8.81654 8.26647 8.49391 8.61492 8.50983 9.02882L8.85599 18.0288C8.8719 18.4427 9.22035 18.7654 9.63426 18.7494C10.0482 18.7335 10.3708 18.3851 10.3549 17.9712L10.0087 8.97118ZM15.4895 9.02882C15.5054 8.61492 15.1828 8.26647 14.7689 8.25055C14.355 8.23463 14.0065 8.55727 13.9906 8.97118L13.6444 17.9712C13.6285 18.3851 13.9512 18.7335 14.3651 18.7494C14.779 18.7654 15.1274 18.4427 15.1433 18.0288L15.4895 9.02882Z" fill="#6B7280"/>
</svg>
