<svg  viewBox="0 0 24 24" fill="none" xmlns="http://www.w3.org/2000/svg">
<path d="M20.0207 7.93402C19.9785 7.96476 19.9549 8.01492 19.9575 8.06709C19.9647 8.21274 19.9647 8.35857 19.9647 8.50553C19.9647 13.8432 15.8377 19.9991 8.29128 20C8.2904 20 8.28966 19.9993 8.28966 19.9984C8.28966 19.9975 8.28894 19.9968 8.28806 19.9968C6.28115 19.9994 4.31181 19.49 2.56969 18.5233C2.42999 18.4458 2.50043 18.2313 2.66007 18.2375C2.76549 18.2417 2.87102 18.2439 2.97664 18.2441C4.68119 18.2456 6.34079 17.7262 7.72896 16.7633C7.84534 16.6826 7.78824 16.4989 7.64763 16.4818C6.15658 16.3014 4.87728 15.3296 4.32577 13.9448C4.28354 13.8388 4.3768 13.7313 4.49003 13.7457C4.81288 13.7867 5.13902 13.7896 5.46154 13.7546C5.61926 13.7375 5.62314 13.5178 5.47413 13.4634C3.8882 12.8839 2.80033 11.3858 2.80033 9.67665C2.80033 9.65361 2.82503 9.63897 2.84537 9.64979C3.24884 9.86453 3.68534 10.0103 4.13624 10.0818C4.28555 10.1054 4.35483 9.91129 4.24018 9.81275C2.83216 8.6026 2.42366 6.58433 3.28879 4.9241C3.33687 4.83183 3.46272 4.82177 3.53043 4.90076C5.56735 7.27714 8.49803 8.73764 11.6502 8.94602C11.7497 8.9526 11.8264 8.86049 11.8084 8.76233C11.5617 7.41934 12.0197 6.03844 13.0364 5.09774C14.6688 3.58691 17.2249 3.64496 18.7844 5.21404C18.8204 5.25027 18.8721 5.26714 18.9221 5.25692C19.6827 5.10149 20.4162 4.84064 21.1018 4.48306C21.2241 4.41926 21.3619 4.53459 21.3063 4.66086C21.0596 5.22106 20.6879 5.71824 20.2205 6.11584C20.097 6.22088 20.1847 6.44711 20.3435 6.41472C20.7429 6.33328 21.1357 6.22247 21.5184 6.08317C21.6597 6.03174 21.7876 6.19152 21.6955 6.31038C21.2182 6.92658 20.6542 7.47303 20.0207 7.93402Z" fill="#6B7280"/>
</svg>
