<svg width="24" height="24" viewBox="0 0 24 24" fill="none" xmlns="http://www.w3.org/2000/svg">
<path fill-rule="evenodd" clip-rule="evenodd" d="M20.0058 5.37451C18.5731 5.11874 15.6078 4.81302 11.9251 4.81302C8.70197 4.81302 5.58078 5.06879 3.8923 5.42646C3.87036 5.4352 3.84242 5.44546 3.80956 5.45751C3.45925 5.58604 2.5503 5.91954 2.40963 6.80922C2.20581 7.88225 2 9.62068 2 11.9746C2 13.8668 2.15386 15.7591 2.56349 17.1918C2.6654 17.8572 3.27885 18.3688 4.04616 18.5746C5.83655 18.9822 8.95574 19.186 12.025 19.186C15.0942 19.186 18.1635 18.9323 20.0058 18.5746C20.0166 18.5709 20.0284 18.567 20.0409 18.5628C20.3846 18.4482 21.342 18.1287 21.4885 17.1918C21.6943 15.913 21.95 14.1226 22 11.9246C22 10.1342 21.7962 8.39379 21.4885 6.75726C21.3866 6.09186 20.7731 5.58033 20.0058 5.37451ZM14.8264 11.9745L9.63452 8.99066V14.9584L14.8264 11.9745Z" fill="#6B7280"/>
</svg>
