<svg  viewBox="0 0 24 24" fill="none" xmlns="http://www.w3.org/2000/svg">
<path d="M15.4713 18.5822H15.4604V20.9175H9.64045V20.533C9.66035 20.4706 9.66958 20.4057 9.66958 20.3427C9.66958 20.2467 9.66781 20.0733 9.6655 19.8471C9.66123 19.4222 9.65502 18.8109 9.65502 18.1748C6.73047 18.7131 5.97384 17.4618 5.74099 16.8071C5.61009 16.4724 5.04263 15.4394 4.54798 15.1629C4.14054 14.9447 3.5585 14.4064 4.53341 14.3918C5.45007 14.3772 6.10474 15.2357 6.32303 15.5849C7.37058 17.3454 9.04386 16.8507 9.71327 16.5452C9.81505 15.7886 10.1205 15.2794 10.4553 14.9883C7.8654 14.6973 5.15914 13.6934 5.15914 9.2411C5.15914 7.97526 5.61009 6.92766 6.35215 6.11287C6.23582 5.8219 5.82838 4.62879 6.46849 3.02829C6.46849 3.02829 7.4434 2.72276 9.66958 4.2214C10.6008 3.95951 11.5901 3.82852 12.5796 3.82852C13.5689 3.82852 14.5583 3.95951 15.4896 4.2214C17.7157 2.70819 18.6905 3.02829 18.6905 3.02829C19.3308 4.62879 18.9233 5.8219 18.807 6.11287C19.549 6.92766 20 7.96074 20 9.2411C20 13.7079 17.2792 14.6973 14.6892 14.9883C15.1112 15.3521 15.475 16.0505 15.475 17.1417C15.475 17.6631 15.4734 18.1501 15.4713 18.5822Z" stroke="currentColor" stroke-width="1.5" stroke-linecap="round" stroke-linejoin="round"/>
</svg>
