<svg  viewBox="0 0 24 24" fill="none" xmlns="http://www.w3.org/2000/svg">
<path d="M12.603 7.50002V13.5H17.103M4.33922 14.0482C4.84599 16.2166 6.13861 18.1201 7.96724 19.3908C9.79586 20.6615 12.0306 21.2092 14.2396 20.928C16.4485 20.6468 18.4748 19.5566 19.9268 17.8683C21.3787 16.18 22.1532 14.0134 22.1005 11.7872C22.0479 9.56104 21.1718 7.43344 19.6417 5.81565C18.1116 4.19786 16.036 3.20476 13.8162 3.02832C11.5964 2.85187 9.39005 3.5046 7.62355 4.86034C5.85705 6.21608 4.65587 8.17856 4.25219 10.3684M7.67682 9.23826L4.0144 11.3528L1.8999 7.69034" stroke="currentColor" stroke-width="1.5" stroke-linecap="round" stroke-linejoin="round"/>
</svg>
