<svg xmlns="http://www.w3.org/2000/svg" width="100" height="36" viewBox="0 0 100 36" fill="none">
  <path d="M49.4536 25.5567C50.387 25.5567 51.1977 25.4537 51.8856 25.2476C52.5735 25.0415 53.1432 24.7463 53.5948 24.3618C54.0463 23.9774 54.3827 23.5145 54.6039 22.9732C54.8251 22.4319 54.9357 21.8261 54.9357 21.1556C54.9357 20.3559 54.7751 19.6424 54.4539 19.015C54.1327 18.3876 53.6448 17.8771 52.9902 17.4834C53.5599 16.7945 53.8448 15.9918 53.8448 15.0752C53.8448 14.5155 53.7342 13.9942 53.5129 13.5113C53.2917 13.0285 52.9538 12.6117 52.4993 12.2611C52.0447 11.9105 51.4734 11.6352 50.7855 11.4353C50.0976 11.2354 49.29 11.1355 48.3627 11.1355H40.7713V25.5567H49.4536ZM50.1991 16.6991C49.9628 16.6807 49.7203 16.6714 49.4718 16.6714H43.6533V13.7097H48.4354C49.2112 13.7097 49.8006 13.8527 50.2037 14.1387C50.6067 14.4248 50.8083 14.8292 50.8083 15.352C50.8083 15.8564 50.6052 16.3055 50.1991 16.6991ZM49.5264 23.0101H43.6533V19.1165H49.5264C50.3022 19.1165 50.8916 19.2887 51.2946 19.6332C51.6977 19.9777 51.8992 20.4574 51.8992 21.0725C51.8992 21.6877 51.6977 22.1644 51.2946 22.5027C50.8916 22.841 50.3022 23.0101 49.5264 23.0101ZM57.9119 13.1838C58.1847 13.1838 58.4286 13.1453 58.6438 13.0684C58.8589 12.9916 59.0423 12.887 59.1938 12.7547C59.3453 12.6225 59.462 12.4687 59.5438 12.2934C59.6256 12.1181 59.6665 11.932 59.6665 11.7352C59.6665 11.5322 59.6256 11.3431 59.5438 11.1678C59.462 10.9925 59.3453 10.8402 59.1938 10.711C59.0423 10.5819 58.8589 10.4788 58.6438 10.402C58.4286 10.3251 58.1847 10.2866 57.9119 10.2866C57.6452 10.2866 57.4043 10.3251 57.1891 10.402C56.974 10.4788 56.7906 10.5819 56.6391 10.711C56.4876 10.8402 56.3709 10.9925 56.2891 11.1678C56.2073 11.3431 56.1664 11.5322 56.1664 11.7352C56.1664 11.932 56.2073 12.1181 56.2891 12.2934C56.3709 12.4687 56.4876 12.6225 56.6391 12.7547C56.7906 12.887 56.974 12.9916 57.1891 13.0684C57.4043 13.1453 57.6452 13.1838 57.9119 13.1838ZM59.2574 25.5567V14.6693H56.5664V25.5567H59.2574ZM73.1615 25.5567V22.9917H64.8974V11.1355H62.0154V25.5567H73.1615ZM76.0103 13.1838C76.2831 13.1838 76.527 13.1453 76.7422 13.0684C76.9574 12.9916 77.1407 12.887 77.2922 12.7547C77.4437 12.6225 77.5604 12.4687 77.6422 12.2934C77.7241 12.1181 77.765 11.932 77.765 11.7352C77.765 11.5322 77.7241 11.3431 77.6422 11.1678C77.5604 10.9925 77.4437 10.8402 77.2922 10.711C77.1407 10.5819 76.9574 10.4788 76.7422 10.402C76.527 10.3251 76.2831 10.2866 76.0103 10.2866C75.7437 10.2866 75.5027 10.3251 75.2876 10.402C75.0724 10.4788 74.8891 10.5819 74.7375 10.711C74.586 10.8402 74.4693 10.9925 74.3875 11.1678C74.3057 11.3431 74.2648 11.5322 74.2648 11.7352C74.2648 11.932 74.3057 12.1181 74.3875 12.2934C74.4693 12.4687 74.586 12.6225 74.7375 12.7547C74.8891 12.887 75.0724 12.9916 75.2876 13.0684C75.5027 13.1453 75.7437 13.1838 76.0103 13.1838ZM77.3559 25.5567V14.6693H74.6648V25.5567H77.3559ZM82.4685 25.5567V19.0796C82.9594 18.4153 83.5974 17.9001 84.3822 17.5341C85.1671 17.1681 86.0778 16.9329 87.1142 16.8283L86.3233 14.3279C85.6687 14.5001 85.0111 14.7492 84.3504 15.0752C83.6898 15.4012 83.0625 15.7888 82.4685 16.2378V14.6693H79.7775V25.5567H82.4685ZM92.6541 25.7504C93.1511 25.7504 93.6224 25.7182 94.0679 25.6536C94.5133 25.589 94.93 25.5013 95.3179 25.3906C95.7058 25.2799 96.0649 25.1507 96.3953 25.0031C96.7256 24.8555 97.0301 24.6986 97.3089 24.5325V25.5567H100V20.8142C100 18.6675 99.5121 17.0743 98.5363 16.0348C97.5605 14.9953 96.0695 14.4755 94.0633 14.4755C93.6087 14.4755 93.139 14.5001 92.6541 14.5493C92.1693 14.5985 91.6844 14.6677 91.1995 14.7569C90.7146 14.8461 90.2404 14.9522 89.7767 15.0752C89.3131 15.1983 88.8782 15.3336 88.4721 15.4812L89.2903 17.7233C89.6176 17.5695 89.9707 17.4373 90.3495 17.3265C90.7283 17.2158 91.1116 17.1235 91.4995 17.0497C91.8874 16.9759 92.2632 16.9206 92.6269 16.8837C92.9905 16.8468 93.3239 16.8283 93.6269 16.8283C94.1845 16.8283 94.683 16.8867 95.1225 17.0036C95.5619 17.1205 95.9377 17.285 96.2498 17.4972C96.5619 17.7094 96.8059 17.9616 96.9817 18.2538C97.1574 18.546 97.2605 18.8643 97.2908 19.2088C96.515 19.0058 95.7619 18.8551 95.0315 18.7567C94.3012 18.6582 93.6057 18.609 92.9451 18.609C92.0541 18.609 91.2738 18.6936 90.604 18.8628C89.9343 19.0319 89.3752 19.2718 88.9267 19.5824C88.4782 19.8931 88.1418 20.2637 87.9175 20.6943C87.6933 21.1248 87.5811 21.6015 87.5811 22.1244C87.5811 22.6411 87.6887 23.1193 87.9039 23.5591C88.119 23.9989 88.4388 24.3818 88.863 24.7078C89.2873 25.0338 89.8161 25.2891 90.4495 25.4736C91.0828 25.6582 91.8177 25.7504 92.6541 25.7504ZM92.8905 23.3977C92.4481 23.3977 92.0708 23.3592 91.7586 23.2823C91.4465 23.2054 91.1904 23.1039 90.9904 22.9778C90.7904 22.8517 90.6449 22.7072 90.554 22.5442C90.4631 22.3812 90.4177 22.2105 90.4177 22.0321C90.4177 21.866 90.4601 21.7061 90.5449 21.5523C90.6298 21.3986 90.7753 21.2648 90.9813 21.151C91.1874 21.0372 91.4571 20.9464 91.7905 20.8788C92.1238 20.8111 92.542 20.7773 93.0451 20.7773C93.2875 20.7773 93.5709 20.7865 93.8951 20.805C94.2194 20.8234 94.5649 20.8557 94.9315 20.9019C95.2982 20.948 95.6831 21.011 96.0861 21.091C96.4892 21.171 96.8968 21.2694 97.3089 21.3863V21.866C97.1029 22.0629 96.8453 22.2536 96.5362 22.4381C96.2271 22.6226 95.8816 22.7856 95.4998 22.9271C95.1179 23.0686 94.7058 23.1824 94.2633 23.2685C93.8209 23.3546 93.3633 23.3977 92.8905 23.3977Z" fill="#25245C"/>
  <path d="M0 17.3169C0 9.58536 0 5.72531 2.39118 3.31135C4.81653 0.920166 8.67658 0.920166 16.3967 0.920166H17.7631C25.4946 0.920166 29.3546 0.920166 31.7686 3.31135C34.1598 5.73669 34.1598 9.59675 34.1598 17.3169V18.6833C34.1598 26.4147 34.1598 30.2748 31.7686 32.6888C29.3433 35.0799 25.4832 35.0799 17.7631 35.0799H16.3967C8.6652 35.0799 4.80514 35.0799 2.39118 32.6888C0 30.2634 0 26.4034 0 18.6833V17.3169Z" fill="url(#paint0_linear_173_1227)"/>
  <path fill-rule="evenodd" clip-rule="evenodd" d="M11.3583 6.81274L13.9247 7.49906V26.4598C18.8694 25.7891 21.4622 22.778 21.9687 17.1387L21.9834 16.967L16.4568 15.4562V12.8232L24.5943 15.0475L24.5952 16.3413L24.5943 16.3811C24.5828 16.8195 24.5383 17.2438 24.4942 17.6533C23.8386 23.7419 20.9251 26.7363 17.5627 28.1073C15.415 28.8663 13.3468 29.2253 11.3583 29.1842V6.81274ZM16.4539 8.16834L22.4598 9.77288V12.4335L16.4539 10.7398V8.16834Z" fill="white"/>
  <defs>
    <linearGradient id="paint0_linear_173_1227" x1="0" y1="0.920166" x2="34.1598" y2="35.0799" gradientUnits="userSpaceOnUse">
      <stop stop-color="#BAE1EB"/>
      <stop offset="0.548203" stop-color="#6061E6"/>
      <stop offset="1" stop-color="#006BFF"/>
    </linearGradient>
  </defs>
</svg>