<svg width="120" height="120" viewBox="0 0 120 120" fill="none" xmlns="http://www.w3.org/2000/svg">
<path opacity="0.15" d="M28.9746 107.38C32.8238 106.159 45.1935 105.266 59.8584 105.266C74.8269 105.266 87.4042 106.196 90.9703 107.456H91.2522L71.5398 44.4248H48.177L28.9746 107.38Z" fill="url(#paint0_radial_1445_23124)"/>
<path d="M100.967 30.3097C100.967 32.1664 99.9581 34.0267 97.932 35.8092C95.907 37.5906 92.9338 39.229 89.1952 40.6201C81.7237 43.4002 71.3517 45.1349 59.8584 45.1349C48.3651 45.1349 37.9931 43.4002 30.5216 40.6201C26.783 39.229 23.8098 37.5906 21.7848 35.8092C19.7586 34.0267 18.75 32.1664 18.75 30.3097C18.75 28.4531 19.7586 26.5927 21.7848 24.8103C23.8098 23.0289 26.783 21.3904 30.5216 19.9993C37.9931 17.2192 48.3651 15.4845 59.8584 15.4845C71.3517 15.4845 81.7237 17.2192 89.1952 19.9993C92.9338 21.3904 95.907 23.0289 97.932 24.8103C99.9581 26.5927 100.967 28.4531 100.967 30.3097Z" fill="url(#paint1_radial_1445_23124)" stroke="#40444F" stroke-width="1.5"/>
<path d="M97.3227 28.3628C97.3227 30.0413 96.3766 31.7071 94.5157 33.2864C92.657 34.8639 89.9379 36.3071 86.5342 37.5289C79.7311 39.971 70.2997 41.4911 59.8581 41.4911C49.4165 41.4911 39.9852 39.971 33.1821 37.5289C29.7784 36.3071 27.0592 34.8639 25.2005 33.2864C23.3397 31.7071 22.3936 30.0413 22.3936 28.3628C22.3936 26.6843 23.3397 25.0186 25.2005 23.4393C27.0592 21.8618 29.7784 20.4186 33.1821 19.1967C39.9852 16.7546 49.4165 15.2345 59.8581 15.2345C70.2997 15.2345 79.7311 16.7546 86.5342 19.1967C89.9379 20.4186 92.657 21.8618 94.5157 23.4393C96.3766 25.0186 97.3227 26.6843 97.3227 28.3628Z" fill="#191B1F" stroke="#40444F"/>
<path d="M38.2192 26.4159C38.2192 15.0025 47.4717 5.75 58.8852 5.75C70.2986 5.75 79.5511 15.0025 79.5511 26.4159V26.9614L78.3282 27.684C66.0448 34.1535 51.4777 34.1499 39.4447 27.6855L38.2192 26.9614V26.4159Z" fill="#191B1F" stroke="#40444F" stroke-width="1.5"/>
<path d="M67.1592 11.5708C69.025 12.3009 73.0972 15.1726 74.4601 20.8186" stroke="#40444F" stroke-width="0.973451" stroke-linecap="round"/>
<ellipse opacity="0.15" cx="83.2213" cy="9.86726" rx="4.86725" ry="4.86726" fill="url(#paint2_radial_1445_23124)"/>
<ellipse cx="0.973451" cy="0.973451" rx="0.973451" ry="0.973451" transform="matrix(1 0 0 -1 87.1152 27.3894)" fill="#40444F"/>
<ellipse cx="0.973451" cy="0.973451" rx="0.973451" ry="0.973451" transform="matrix(1 0 0 -1 78.354 35.177)" fill="#40444F"/>
<ellipse cx="0.973451" cy="0.973451" rx="0.973451" ry="0.973451" transform="matrix(1 0 0 -1 39.416 35.177)" fill="#40444F"/>
<ellipse cx="0.973451" cy="0.973451" rx="0.973451" ry="0.973451" transform="matrix(1 0 0 -1 58.8848 38.0973)" fill="#40444F"/>
<ellipse cx="0.973451" cy="0.973451" rx="0.973451" ry="0.973451" transform="matrix(1 0 0 -1 29.6816 27.3894)" fill="#40444F"/>
<ellipse opacity="0.15" cx="25.7877" cy="51.7257" rx="4.86725" ry="4.86726" fill="url(#paint3_radial_1445_23124)"/>
<ellipse opacity="0.15" cx="91.9824" cy="56.5929" rx="7.78761" ry="7.78761" fill="url(#paint4_radial_1445_23124)"/>
<path d="M59.858 54.3384C54.8055 54.3384 50.666 50.4288 50.2998 45.47C50.8508 45.5178 51.406 45.5616 51.9651 45.6012C52.3881 49.5867 55.7604 52.6915 59.858 52.6915C63.9556 52.6915 67.3279 49.5867 67.7509 45.6012C68.31 45.5616 68.8651 45.5178 69.4161 45.47C69.0499 50.4288 64.9105 54.3384 59.858 54.3384Z" fill="#40444F"/>
<path fill-rule="evenodd" clip-rule="evenodd" d="M65.4486 47.7355C65.6836 47.8661 65.7682 48.1624 65.6377 48.3974C65.1003 49.3647 64.2824 50.0872 63.4999 50.5952C62.7177 51.1032 61.9414 51.416 61.4465 51.5509C61.1871 51.6217 60.9195 51.4688 60.8488 51.2094C60.7781 50.9501 60.931 50.6825 61.1903 50.6118C61.5877 50.5034 62.2716 50.2321 62.9698 49.7788C63.6678 49.3256 64.3507 48.7095 64.7867 47.9246C64.9173 47.6897 65.2136 47.605 65.4486 47.7355Z" fill="#40444F"/>
<ellipse opacity="0.15" cx="59.8583" cy="112.08" rx="32.1239" ry="2.92035" fill="url(#paint5_radial_1445_23124)"/>
<path fill-rule="evenodd" clip-rule="evenodd" d="M51.9887 70.6051L51.9897 70.6029L52.0119 70.6125L52.6322 70.8119L55.6842 63.0643C55.7508 62.8952 55.9395 62.8095 56.1107 62.8706L66.94 66.7382C67.0883 66.7912 67.1801 66.94 67.1609 67.0964L67.1253 67.3864C66.8358 69.7435 66.0666 73.2249 64.6771 75.9934C63.9829 77.3765 63.1076 78.6355 62.0113 79.4736C60.8916 80.3297 59.5447 80.7402 58.0022 80.3974C54.749 79.6745 51.5088 78.9228 49.1599 77.3784C47.9663 76.5935 46.9809 75.5921 46.3335 74.2719C45.6869 72.9533 45.4014 71.3655 45.5295 69.4444L45.5605 68.9782C45.5751 68.7597 45.7911 68.613 45.9996 68.68L51.9887 70.6051ZM65.6579 67.7707L56.6114 64.5398L53.9113 71.3941L56.2245 72.3466C56.3554 72.4005 56.4386 72.5306 56.4327 72.672L56.4221 72.9274C56.3819 73.8925 56.3458 75.3623 56.3678 76.6339C56.3789 77.2717 56.4043 77.8447 56.4487 78.2745C56.4578 78.3631 56.4674 78.4422 56.4773 78.512L56.4916 78.6135L56.5914 78.637C57.1498 78.7686 57.7225 78.8975 58.3067 79.0273C59.3923 79.2686 60.3229 78.9978 61.1589 78.3586C62.0182 77.7016 62.7764 76.6516 63.4227 75.3638C64.5911 73.0358 65.3076 70.1068 65.6396 67.8928L65.6579 67.7707ZM51.5406 71.9353L46.9015 70.4442L46.9083 70.657C46.9469 71.8589 47.1944 72.8397 47.5936 73.6539C48.1098 74.7065 48.9039 75.5303 49.931 76.2056C51.2608 77.08 52.9393 77.6831 54.831 78.1952L55.035 78.2504L55.0198 78.0396C54.9901 77.6256 54.973 77.1509 54.9645 76.6581C54.9461 75.5931 54.9672 74.4012 54.9977 73.4647L55.0011 73.3608L51.5406 71.9353Z" fill="#40444F"/>
<path fill-rule="evenodd" clip-rule="evenodd" d="M43.5897 94.8041L43.5888 94.8018L43.5666 94.8115L42.9463 95.0109L39.8943 87.2633C39.8277 87.0942 39.6389 87.0085 39.4678 87.0696L28.6385 90.9372C28.4902 90.9902 28.3984 91.139 28.4176 91.2954L28.4532 91.5854C28.7426 93.9425 29.5119 97.4239 30.9014 100.192C31.5956 101.575 32.4709 102.834 33.5672 103.673C34.6869 104.529 36.0338 104.939 37.5763 104.596C40.8295 103.873 44.0697 103.122 46.4186 101.577C47.6122 100.793 48.5976 99.7911 49.245 98.4709C49.8916 97.1523 50.1771 95.5645 50.049 93.6434L50.018 93.1772C50.0034 92.9587 49.7874 92.812 49.5789 92.879L43.5897 94.8041ZM29.9206 91.9697L38.9671 88.7388L41.6671 95.5931L39.354 96.5456C39.2231 96.5995 39.1399 96.7295 39.1458 96.871L39.1564 97.1264C39.1966 98.0914 39.2326 99.5613 39.2107 100.833C39.1996 101.471 39.1742 102.044 39.1298 102.473C39.1207 102.562 39.1111 102.641 39.1012 102.711L39.0869 102.813L38.9871 102.836C38.4287 102.968 37.856 103.096 37.2718 103.226C36.1862 103.468 35.2556 103.197 34.4196 102.558C33.5603 101.901 32.8021 100.851 32.1558 99.5628C30.9873 97.2348 30.2709 94.3057 29.9389 92.0917L29.9206 91.9697ZM44.0379 96.1343L48.677 94.6432L48.6702 94.8559C48.6316 96.0579 48.3841 97.0387 47.9848 97.8529C47.4687 98.9055 46.6746 99.7293 45.6474 100.405C44.3177 101.279 42.6392 101.882 40.7475 102.394L40.5435 102.449L40.5587 102.239C40.5884 101.825 40.6055 101.35 40.614 100.857C40.6324 99.7921 40.6113 98.6002 40.5807 97.6637L40.5774 97.5597L44.0379 96.1343Z" fill="#40444F"/>
<path fill-rule="evenodd" clip-rule="evenodd" d="M74.0658 78.8475C74.027 78.6745 74.1852 78.5217 74.3568 78.5667L85.5992 81.5111C85.6746 81.5309 85.7355 81.5865 85.7619 81.6599L85.8487 81.901C87.6637 86.9427 87.0953 90.8877 85.5702 93.7703C84.06 96.6249 81.6456 98.3742 79.8478 99.1196L79.6749 99.1913C79.6237 99.2125 79.5667 99.2151 79.5138 99.1986L68.2839 95.6958C68.072 95.6297 68.0594 95.3345 68.265 95.2506L69.7378 94.6499L69.7477 94.6448C72.4897 93.2296 73.8478 90.5198 74.4 87.5678C74.9521 84.6161 74.6706 81.5415 74.2409 79.6275L74.0658 78.8475ZM84.6129 82.7485L75.8743 80.4598L75.9267 80.8317C76.2054 82.8104 76.2866 85.3509 75.8222 87.8338C75.3402 90.4104 74.2513 93.0054 72.1117 94.801L71.7693 95.0883L79.5369 97.6775L79.6278 97.6345C81.1191 96.9274 83.0521 95.4359 84.2913 93.0937C85.5632 90.6895 86.1366 87.3283 84.6557 82.8771L84.6129 82.7485Z" fill="#40444F"/>
<defs>
<radialGradient id="paint0_radial_1445_23124" cx="0" cy="0" r="1" gradientUnits="userSpaceOnUse" gradientTransform="translate(28.9746 39.7987) rotate(63.9167) scale(141.644 75.9067)">
<stop stop-color="#6061E6"/>
<stop offset="1" stop-color="#BAE1EB"/>
</radialGradient>
<radialGradient id="paint1_radial_1445_23124" cx="0" cy="0" r="1" gradientUnits="userSpaceOnUse" gradientTransform="translate(18 12.4482) rotate(36.9071) scale(104.697 68.2237)">
<stop stop-color="#6061E6"/>
<stop offset="1" stop-color="#BAE1EB"/>
</radialGradient>
<radialGradient id="paint2_radial_1445_23124" cx="0" cy="0" r="1" gradientUnits="userSpaceOnUse" gradientTransform="translate(78.354 4.28554) rotate(63.6437) scale(21.9269 11.837)">
<stop stop-color="#6061E6"/>
<stop offset="1" stop-color="#BAE1EB"/>
</radialGradient>
<radialGradient id="paint3_radial_1445_23124" cx="0" cy="0" r="1" gradientUnits="userSpaceOnUse" gradientTransform="translate(20.9204 46.1439) rotate(63.6437) scale(21.9269 11.837)">
<stop stop-color="#6061E6"/>
<stop offset="1" stop-color="#BAE1EB"/>
</radialGradient>
<radialGradient id="paint4_radial_1445_23124" cx="0" cy="0" r="1" gradientUnits="userSpaceOnUse" gradientTransform="translate(84.1948 47.6622) rotate(63.6437) scale(35.0831 18.9393)">
<stop stop-color="#6061E6"/>
<stop offset="1" stop-color="#BAE1EB"/>
</radialGradient>
<radialGradient id="paint5_radial_1445_23124" cx="0" cy="0" r="1" gradientUnits="userSpaceOnUse" gradientTransform="translate(27.7344 108.731) rotate(10.3973) scale(65.3203 15.735)">
<stop stop-color="#6061E6"/>
<stop offset="1" stop-color="#BAE1EB"/>
</radialGradient>
</defs>
</svg>
